<?xml version="1.0" encoding="UTF-8"?>
<svg id="_レイヤー_2" data-name="レイヤー 2" xmlns="http://www.w3.org/2000/svg" viewBox="0 0 204.41 207.5">
  <g id="cabbage">
    <g>
      <path d="M118,189.99c-3.17-.56-10.41-1.78-10-5h23.5c2.17,0,19.78-6.75,20.4-8.67,1.37-4.25-9.23-16.77-7.89-18.32,1.51-1.76,2.19,1.37,2.57,1.89,3.27,4.41,6.39,8.93,9.99,13.09,5.66-2.06,8.49-7.42,12.28-11.62-1.56-4.12-4.3-7.61-6.03-11.68-2-4.7-4.79-15.96-6.94-19.06-2.54-3.65-12.87-5-14.4-10.59,3.64.87,7.43,4.99,11,5.01s-.75-4.33.53-6.03c.65-.1,1.11.52,1.49,1,3.22,4.09,8.01,20.34,11.98,27.02,1.72,2.9,3.38,5.78,6.02,7.98,4.6-8.44,8.49-17.88,9.37-27.61,1.25-13.8-11.78-24.73-16.88-36.87.97-1.61,2.25.22,2.99,1.01,5.3,5.56,8.87,16.07,15,21.48,1.19-14.59-1.98-28.68-3.98-42.99,1.78.77,2.43,4.67,3.01,6.48.88,2.77,1.72,5.61,1.99,8.52l6.98-12.99c.57,6.41-4.52,12.64-5,18.5-.47,5.77,1.77,12.2,2.06,17.95.32,6.62-.81,12.99-1.03,19.54l2.51-2.98,9.47-18.01c-1.24,11.65-9.6,20.79-13.47,31.01-1.99,5.26-2.8,11.4-5.04,16.96-1.35,3.36-4.51,7.12-5.47,9.53-.5,1.25.19,1.86,1.47,1.47,3.35-1.03,7.5-6.36,11.52-6.99-2.52,3.26-1.14,4.49-6,7-3.13,1.62-8.9,3.08-11.96,5.54l-7.04,9.46c-15.07,8.37-26.97,12.21-45,9Z" fill="#a9c56e"/>
      <path d="M17,79.99c.65,1.77.65,3.69,2.5,5l2.49-3-.98,31,19.98-27.99c-1.56,9.3-18.47,28.85-18.95,36.54-.22,3.59,2.18,13.71,3.25,17.66.55,2.05,5.05,15.29,5.73,15.78,2.02,1.47,6.22-6.72,7.16-8.33,2.35-4.03,7.89-19.34,9.34-20.72.65-.62,7.82-1.08,9.48-1.94.55,2.65-.66,1.72-1.97,2.48-2.02,1.18-6.5,2.55-7.51,4.53-1.79,3.5-3.01,12.18-5.04,16.96-1.74,4.1-7.75,11.2-5.99,14.99.54,1.16,9.91,10.12,10.87,9.95,6.41-4.97,8.85-13.35,14.63-18.92.67,4.43-11.8,20.29-9.92,22.92,10.08,4.6,22.19,9.08,33.43,9.16,3.65.03,7.09-1.55,11.5-1.08v2c-4.67,2.76-5.01,2.26-10,3-12.61,1.86-28.01,1.34-39-6-5.33-3.56-10.28-9.13-15.09-13.41l-9.91-3.59c-2.47-2.61-2.99-3.42-5-6l11.98,5.51c-6.73-8.89-7.91-20.61-11.78-30.21-2.86-7.09-7.11-13.08-10.2-21.3l1-1,3.2,7.31,4.79,6.69c1.11-5.05-1.13-10.99-1.07-15.49.17-12.64,4.21-18.38.08-31.5l1-1Z" fill="#a9c56e"/>
      <path d="M185,49.99c-2.32.17-3.36,2.22-5.43,3.07-1.89.78-6.26,1.05-7.35,2.15-2.6,2.62-.57,8.65-9.17,13.33-11.62,6.32-11.54,7.15-21.04,15.96-6.83,6.33-11.08,7.1-16.01,16.49-.33-3.71.05-6.54,1.61-9.89,2.18-4.69,7.78-6.25,8.94-10.06,2.53-8.27-2.71-14.69,6.95-22.05,2.07-1.58,5.63-2.43,6.93-4.07,1.83-2.31,2.91-7.94,2.56-10.94,1.94-.46,4.04-3.77,10-5,.91-.19,1.89-.99,2-1,.35-.02,1.27,1.07,1.99,1-.34-6.68,4.74-13.54,11.99-10.48,6.74,2.84,4.7,15.86,6.02,21.47Z" fill="#627e30"/>
      <path d="M20,49.99c1.3-5.53-1.93-17.19,4.61-20.88,7.49-4.23,13.17,2.46,12.39,9.88,1.82.56,1.78-.91,2-1,.97-.36,1.98-.41,3-1,.61,3.79,4.74,2.23,7.46,6.04,2.45,3.44,1.75,7.73,3.48,10.52,1.44,2.32,7.12,4.21,9.55,6.45,5.83,5.37,4.37,12.28,5.51,18.99s3.36,5.08,6,8c5.55,6.15,5.55,9.72,5,18-7.54-14.87-10.09-14.92-22.01-25.49-2.71-2.4-4.76-6.15-7.02-7.98-4.59-3.71-11.71-3.31-15.39-9.61-1.1-1.89-1.82-6.86-2.81-7.69-1.16-.97-9.46-2.05-11.76-4.23Z" fill="#627e30"/>
      <path d="M165,37.99c-.11,0-1.09.81-2,1-.28-.37-.72-.64-1-1-7.69-9.98-24.14-16.05-36-19-.78-.19-1.56-.71-3-1-10.31-2.06-23.5-3.06-34-2l-3-9C90.15,6.13,95.34,0,102.5,0c7.5,0,11.63,6.15,16.05,6.95,5.9,1.07,13.95-2.45,21.48-.49,4.7,1.22,18.34,17.21,21.16,21.84,1.66,2.71,3.56,6.47,3.81,9.69Z" fill="#495c2b"/>
      <path d="M86,6.99l3,9c-7.75.78-14.93,4.19-22,7-.82.33-1.39.74-2,1-10.23,4.45-13.95,7.75-23,13-1.02.59-2.03.64-3,1-.15-1.9.65-3.41,1.45-5.04,2.52-5.05,15.75-21.87,20.21-24.8,11.03-7.23,17.65.43,25.34-1.16Z" fill="#556d2e"/>
      <path d="M48,183.99c-10.38-2.47-17.95-9.54-25-17l9.91,3.59c4.8,4.28,9.75,9.85,15.09,13.41Z" fill="#89ac47"/>
      <path d="M182,165.99c-3.83,7.32-12.18,11.21-19,15l7.04-9.46c3.06-2.46,8.84-3.92,11.96-5.54Z" fill="#759736"/>
      <path d="M153,43.99c.35,2.99-.73,8.63-2.56,10.94-1.3,1.64-4.87,2.49-6.93,4.07-9.67,7.36-4.42,13.77-6.95,22.05-1.16,3.81-6.77,5.37-8.94,10.06-1.56,3.35-1.94,6.18-1.61,9.89-1.82,3.47-.61,6.92-2.99,10.51-5.79,8.7-20.94,7.46-18.92,22.91.87,6.65,4.25,17.51,3.98,24.06-.17,4.25-4.85,9.22-5.1,15.06-.19,4.37,2.19,7.24,2.03,11.45h-5c-.41-3.79,2.15-6.55,1.94-10.35-.33-6.01-5.57-10.62-5.94-14.22-.14-1.42,1.7-15.41,2.08-17.84,1.46-9.39,7.14-11.26-2.07-20.09-8.35-8.01-10.79-5.23-17.01-17.49.55-8.28.55-11.85-5-18,3.21-6.45,6.46-13.03,13.48-16.02,4.3-1.83,8.79-1.65,12.86-4.14,6.63-4.08,6.98-12.21,17.19-12.87,5.98-.38,8.05,2.6,14.43-1.51,2.91-1.88,5.67-6.99,8.99-8.01,3.95-1.22,8.7.34,12.05-.45Z" fill="#89ac47"/>
      <path d="M21.01,80.99c-.74-.84,4.46-19.42,6.98-20.99-1.69,5.42-2.08,13.48-4,18.49-.59,1.55-.85,2.89-2.99,2.5Z" fill="#94ba52"/>
      <path d="M9,113.99l-1,1c-1.56-4.14-4.28-8.3-3.99-13l4.99,12Z" fill="#94ba52"/>
      <path d="M49,121.99c.44-2.64,1.61-5.39,2.73-7.81.65-1.41-.6-2.73,2.26-2.18l-4,10.99-1-1Z" fill="#94ba52"/>
      <path d="M17,79.99l-1,1c-.8-2.55-4.33-5.94-2.99-10,2.83,1.61,2.96,6.2,3.99,9Z" fill="#94ba52"/>
      <path d="M64,119c1.22,1.22-2.99,5.09-4.99,3.99-1.65-1.37,4.4-4.58,4.99-3.99Z" fill="#94ba52"/>
      <path d="M162.99,83c.29.25,2.31,4.97,2.01,5.99-2.97.14-5.42-8.92-2.01-5.99Z" fill="#94ba52"/>
      <path d="M97,184.99c1.59.17,2.32-.65,2.01,1.49.07,1.07-1.58.26-2.01.51v-2Z" fill="#94ba52"/>
      <path d="M64,152.99c-.07.07-2.12.38-1.99-.49,1.56-2.73,3.13-.67,1.99.49Z" fill="#a9c56e"/>
      <path d="M178.99,68.99c-.35.68-1.7-.59-.98-1.99.35-.68,1.7.59.98,1.99Z" fill="#a9c56e"/>
      <path d="M12.99,69.99c-.35.68-1.7-.59-.98-1.99.35-.68,1.7.59.98,1.99Z" fill="#94ba52"/>
      <path d="M152.99,117.99c-.35.68-1.7-.59-.98-1.99.35-.68,1.7.59.98,1.99Z" fill="#a9c56e"/>
      <path d="M142.01,154c.47-.97,1.93,1.98,1.5,2.97-1.08-.89-1.83-1.51-1.5-2.97Z" fill="#a9c56e"/>
      <path d="M151.99,114.99c-.35.68-1.7-.59-.98-1.99.35-.68,1.7.59.98,1.99Z" fill="#a9c56e"/>
      <path d="M160.5,80.99c.65.33.65.67,0,1v-1Z" fill="#94ba52"/>
      <path d="M150.5,110.99c.65.33.65.67,0,1v-1Z" fill="#a9c56e"/>
      <path d="M50,122.99c-.41-.11-1.06-.65-1-1l1,1Z" fill="#a9c56e"/>
      <path d="M65.5,117.99c.65.33.65.67,0,1v-1Z" fill="#94ba52"/>
      <path d="M20,49.99c2.3,2.18,10.6,3.26,11.76,4.23.99.83,1.71,5.8,2.81,7.69,3.68,6.3,10.79,5.9,15.39,9.61,2.26,1.83,4.32,5.58,7.02,7.98,11.92,10.56,14.47,10.62,22.01,25.49,6.22,12.26,8.66,9.48,17.01,17.49,9.21,8.83,3.53,10.7,2.07,20.09-.38,2.43-2.22,16.42-2.08,17.84.36,3.6,5.61,8.22,5.94,14.22.21,3.8-2.35,6.56-1.94,10.35h5c.16-4.2-2.22-7.08-2.03-11.45.25-5.85,4.93-10.82,5.1-15.06.26-6.55-3.12-17.41-3.98-24.06-2.01-15.45,13.14-14.22,18.92-22.91,2.38-3.59,1.17-7.03,2.99-10.51,4.93-9.39,9.18-10.16,16.01-16.49,9.5-8.81,9.43-9.64,21.04-15.96,8.6-4.68,6.57-10.71,9.17-13.33,1.09-1.1,5.46-1.37,7.35-2.15,2.07-.86,3.11-2.91,5.43-3.07,1.46,6.19,10.56,18.81,13.46,27.04,9.97,28.29,8,58.07-10.46,81.96-4.02.62-8.17,5.96-11.52,6.99-1.28.39-1.97-.22-1.47-1.47.96-2.41,4.12-6.17,5.47-9.53,2.24-5.56,3.05-11.7,5.04-16.96,3.87-10.22,12.23-19.37,13.47-31.01l-9.47,18.01-2.51,2.98c.22-6.55,1.36-12.92,1.03-19.54-.28-5.75-2.53-12.18-2.06-17.95.48-5.86,5.57-12.09,5-18.5l-6.98,12.99c-.27-2.91-1.11-5.75-1.99-8.52-.58-1.8-1.23-5.71-3.01-6.48,2,14.31,5.17,28.4,3.98,42.99-6.14-5.41-9.71-15.92-15-21.48-.75-.79-2.03-2.62-2.99-1.01,5.1,12.15,18.13,23.08,16.88,36.87-.88,9.73-4.77,19.18-9.37,27.61-2.65-2.2-4.3-5.08-6.02-7.98-3.97-6.68-8.76-22.93-11.98-27.02-.38-.48-.84-1.1-1.49-1-1.28,1.7,3.01,6.06-.53,6.03s-7.35-4.14-11-5.01c1.53,5.59,11.86,6.94,14.4,10.59,2.15,3.1,4.94,14.36,6.94,19.06,1.73,4.07,4.47,7.57,6.03,11.68-3.79,4.21-6.62,9.57-12.28,11.62-3.6-4.16-6.72-8.67-9.99-13.09-.38-.52-1.06-3.65-2.57-1.89-1.33,1.55,9.26,14.07,7.89,18.32-.62,1.92-18.23,8.67-20.4,8.67h-23.5c-.41,3.22,6.83,4.44,10,5-1.66,4.72,4.01,10.94,1.09,14.6-1.93,2.41-5.88.96-8.52,1.48-9.1,1.8-12.46,2.11-21.84-.31-8.18-2.11-.4-10.24-1.73-15.77,4.99-.74,5.33-.24,10-3,.42-.25,2.08.56,2.01-.51.32-2.14-.42-1.32-2.01-1.49-4.41-.46-7.85,1.11-11.5,1.08-11.25-.08-23.36-4.57-33.43-9.16-1.88-2.63,10.59-18.49,9.92-22.92-5.78,5.58-8.22,13.95-14.63,18.92-.96.17-10.34-8.79-10.87-9.95-1.75-3.79,4.26-10.89,5.99-14.99,2.03-4.78,3.25-13.46,5.04-16.96,1.01-1.98,5.48-3.35,7.51-4.53,1.3-.76,2.51.17,1.97-2.48-1.66.86-8.83,1.32-9.48,1.94-1.45,1.38-7,16.7-9.34,20.72-.94,1.6-5.14,9.8-7.16,8.33-.68-.49-5.18-13.73-5.73-15.78-1.07-3.96-3.47-14.07-3.25-17.66.48-7.69,17.4-27.25,18.95-36.54l-19.98,27.99.98-31-2.49,3c-1.86-1.3-1.85-3.22-2.5-5-1.03-2.8-1.16-7.39-3.99-9-1.34,4.06,2.19,7.45,2.99,10,4.12,13.12.08,18.86-.08,31.5-.06,4.51,2.18,10.44,1.07,15.49l-4.79-6.69-3.2-7.31-4.99-12c-.29,4.69,2.43,8.85,3.99,13,3.09,8.22,7.34,14.2,10.2,21.3,3.87,9.6,5.05,21.33,11.78,30.21l-11.98-5.51C-7.83,127.72-2.99,94.7,14.48,58.97c.99-2.03,5.23-7.74,5.52-8.98ZM21.01,80.99c2.13.38,2.39-.95,2.99-2.5,1.92-5.01,2.31-13.07,4-18.49-2.53,1.57-7.72,20.15-6.98,20.99ZM178.99,68.99c.72-1.4-.63-2.67-.98-1.99-.72,1.4.63,2.67.98,1.99ZM12.99,69.99c.72-1.4-.63-2.67-.98-1.99-.72,1.4.63,2.67.98,1.99ZM160.5,80.99v1c.65-.33.65-.67,0-1ZM162.99,83c-3.41-2.93-.96,6.13,2.01,5.99.3-1.02-1.72-5.74-2.01-5.99ZM150.5,110.99v1c.65-.33.65-.67,0-1ZM49,121.99c-.06.35.59.89,1,1l4-10.99c-2.86-.55-1.61.78-2.26,2.18-1.13,2.42-2.29,5.17-2.73,7.81ZM151.99,114.99c.72-1.4-.63-2.67-.98-1.99-.72,1.4.63,2.67.98,1.99ZM152.99,117.99c.72-1.4-.63-2.67-.98-1.99-.72,1.4.63,2.67.98,1.99ZM65.5,117.99v1c.65-.33.65-.67,0-1ZM64,119c-.59-.59-6.64,2.62-4.99,3.99,2,1.1,6.21-2.77,4.99-3.99ZM64,152.99c1.14-1.16-.43-3.22-1.99-.49-.13.87,1.92.56,1.99.49ZM142.01,154c-.33,1.46.42,2.09,1.5,2.97.43-.99-1.03-3.95-1.5-2.97Z" fill="#759736"/>
      <path d="M67,22.99c12.57,3.51,26.15,9.8,36.02,18.48,2.04,1.79,3.23,5.21,5.5,5.58,3.45.56,5.91-2.51,9.04-3,11.26-1.75,11.3-1.73,21.89-5.11,8.05-2.57,14.36-1.92,22.55-.95.28.36.72.63,1,1-5.96,1.23-8.06,4.54-10,5-3.35.79-8.1-.77-12.05.45-3.32,1.02-6.08,6.13-8.99,8.01-6.37,4.11-8.45,1.13-14.43,1.51-10.21.66-10.56,8.79-17.19,12.87-4.07,2.5-8.55,2.31-12.86,4.14-7.02,2.99-10.27,9.58-13.48,16.02-2.64-2.92-4.86-1.3-6-8,10.39-4.29,13.9-19.73,24-23.5,5.12-1.91,14.86-.78,8.99-9-7.48-10.47-23.89-18.85-35.99-22.5.61-.26,1.18-.67,2-1Z" fill="#a9c56e"/>
      <path d="M65,23.99c12.1,3.65,28.51,12.03,35.99,22.5,5.87,8.22-3.87,7.09-8.99,9-10.1,3.77-13.61,19.2-24,23.5-1.14-6.71.32-13.62-5.51-18.99-2.43-2.24-8.11-4.13-9.55-6.45-1.74-2.79-1.03-7.07-3.48-10.52-2.71-3.81-6.85-2.25-7.46-6.04,9.05-5.25,12.77-8.55,23-13Z" fill="#89ac47"/>
      <path d="M123,17.99l2,14c1.14,1.51,1.88-.01,2.03-1.52.35-3.54-1.85-7.67-1.04-11.48,11.86,2.95,28.31,9.02,36,19-8.19-.98-14.5-1.62-22.55.95-10.59,3.38-10.63,3.36-21.89,5.11-3.13.49-5.58,3.56-9.04,3-2.27-.37-3.47-3.79-5.5-5.58-9.87-8.68-23.46-14.96-36.02-18.48,7.07-2.81,14.25-6.22,22-7,10.5-1.06,23.69-.06,34,2Z" fill="#89ac47"/>
      <path d="M126,18.99c-.81,3.81,1.39,7.95,1.04,11.48-.15,1.51-.9,3.03-2.03,1.52l-2-14c1.44.29,2.22.81,3,1Z" fill="#b0ca7f"/>
    </g>
  </g>
</svg>