<?xml version="1.0" encoding="UTF-8"?>
<svg id="_レイヤー_2" data-name="レイヤー 2" xmlns="http://www.w3.org/2000/svg" viewBox="0 0 65.26 206.05">
  <defs>
    <style>
      .cls-1 {
        fill: #769730;
      }

      .cls-2 {
        fill: #cd4b34;
      }

      .cls-3 {
        fill: #e57337;
      }

      .cls-4 {
        fill: #84a73a;
      }
    </style>
  </defs>
  <g id="svg-icon">
    <g>
      <path class="cls-3" d="M24.25,54.86c4.51-.37,11.49-.37,16,0,.98.08,2.06-.14,3,0,2.58.37,10.28,3.32,12.69,4.81,7.15,4.4,9.5,12.12,9.31,20.19-8.79-.12-17.79-1.02-26.55-.05-4.25.47-4.78,3.36-.95,4.04,7.53,1.34,18.54-.98,26.49,0-.81,12.45-2.9,20.31-5,32-2.08.3-16.85-.62-17.01.51-.83,6.22,13.08,2.54,17.01,3.49-2.3,12.39-5.08,24.75-8,37h-16c-.74,6.92,10.26,3.06,15,4-2.62,10.61-5,22.57-8.73,32.77-10.28,28.13-17.29,1.54-21.27-11.77,17.84,1.28,14.27-5.81-1-4-3.5-12.54-6.27-25.27-9-38,2.42-.31,21.85.63,22.01-.51.31-2.17-.33-3.11-2.51-3.49-5.58-1-13.6.72-19.5,0-2.38-11.41-5.17-22.14-7-34,8.38-.74,18.33,1.01,26.49,0,1.43-.18,1.15-3.58-2.94-4.06-7.57-.88-16.78.75-24.55.05-2.03-14.76-7.01-32.79,10.3-40.2,1.32-.57,7.59-2.64,8.7-2.8.94-.14,2.02.08,3,0Z"/>
      <path class="cls-4" d="M41.25,28.86c-1.85,8.51-.69,17.34-1,26-4.51-.37-11.49-.37-16,0-.65-8.3,1.33-18.06-1-26C26.17,20.69,17.6.05,32.74,0c13-.04,7.37,20.67,8.5,28.86Z"/>
      <path class="cls-1" d="M43.25,54.86c-.94-.14-2.02.08-3,0,.31-8.66-.85-17.49,1-26,2.9-3.3,7.8-18.96,10.99-20.5,4.27-2.06,10.77-.31,11.1,4.99.54,8.79-17.28,31.82-20.09,41.51Z"/>
      <path class="cls-1" d="M23.25,28.86c2.33,7.94.35,17.7,1,26-.98.08-2.06-.14-3,0C19.18,45.7,1.36,21.93,1.32,14.36c-.03-4.88,7.42-9.19,11.85-5.92,1.65,1.21,9.29,17.73,10.08,20.42Z"/>
      <path class="cls-2" d="M65.25,79.86c-.05,2.15-.97,3.52-1,4-7.96-.98-18.96,1.34-26.49,0-3.83-.68-3.3-3.57.95-4.04,8.75-.97,17.76-.08,26.55.05Z"/>
      <path class="cls-2" d="M2.25,97.86c7.77.7,16.98-.93,24.55-.05,4.1.48,4.37,3.88,2.94,4.06-8.16,1-18.12-.75-26.49,0-.17-1.09-.78-2.38-1-4Z"/>
      <path class="cls-2" d="M10.25,135.86c5.9.72,13.92-1,19.5,0,2.18.39,2.81,1.32,2.51,3.49-.16,1.13-19.59.19-22.01.51-.25-1.16.24-2.83,0-4Z"/>
      <path class="cls-2" d="M59.25,115.86c-.22,1.21.22,2.8,0,4-3.92-.95-17.84,2.73-17.01-3.49.15-1.13,14.93-.2,17.01-.51Z"/>
      <path class="cls-2" d="M51.25,156.86c-.32,1.34-.67,2.67-1,4-4.73-.94-15.73,2.92-15-3.99h16Z"/>
      <path class="cls-2" d="M20.25,181.86c-.39-1.31-.63-2.68-1-4,15.27-1.81,18.84,5.28,1,4Z"/>
    </g>
  </g>
</svg>