<?xml version="1.0" encoding="UTF-8"?>
<svg id="_レイヤー_2" data-name="レイヤー 2" xmlns="http://www.w3.org/2000/svg" viewBox="0 0 160.52 160.45">
  <g id="carot">
    <g>
      <path d="M102.07,46.52c3.45,2.93,8.39,7.86,11.31,11.31.63.75,1.55,1.36,2.12,2.12,1.56,2.09,4.92,9.61,5.58,12.37,1.94,8.16-1.85,15.28-7.7,20.86-6.13-6.3-11.86-13.3-18.74-18.8-3.33-2.67-5.75-1.01-3.53,2.19,4.38,6.27,13.8,12.42,18.73,18.74-9.38,8.23-16.41,12.31-26.16,19.09-1.68-1.26-11.48-12.36-12.38-11.67-4.99,3.81,7.45,11.05,9.55,14.5-10.39,7.13-21.09,13.91-31.82,20.51l-11.31-11.31c-5.41,4.37,5.1,9.42,7.78,13.43-9.36,5.65-19.49,12.42-29.34,17-27.16,12.62-13.32-11.13-6.72-23.37,11.71,13.52,14.2,5.98,2.12-3.54,6.39-11.34,13.44-22.3,20.51-33.23,1.93,1.49,15,15.89,15.92,15.2,1.75-1.32,1.96-2.43.7-4.24-3.24-4.65-10.13-9.1-13.79-13.79,6.38-9.75,12-19.32,19.09-28.99,6.45,5.4,12.25,13.67,18.73,18.74,1.13.89,3.35-1.72.79-4.95-4.73-5.97-12.4-11.34-17.4-17.32,9.01-11.87,18.23-28.14,35.71-21.14,1.34.54,7.23,3.5,8.13,4.17.76.57,1.37,1.49,2.12,2.12Z" fill="#e57337"/>
      <path d="M132.47,40.15c-7.32,4.71-12.75,11.77-19.09,17.68-2.93-3.45-7.86-8.39-11.31-11.31,5.41-6.33,13.71-11.83,17.68-19.09,7.84-3.71,16.38-24.37,27.12-13.69,9.22,9.16-9.4,19.82-14.39,26.42Z" fill="#84a73a"/>
      <path d="M115.5,59.95c-.57-.76-1.49-1.37-2.12-2.12,6.34-5.91,11.77-12.97,19.09-17.68,4.38-.28,18.93-7.89,22.27-6.72,4.48,1.56,7.83,7.4,4.32,11.38-5.83,6.6-34.72,10.28-43.56,15.15Z" fill="#769730"/>
      <path d="M119.74,27.43c-3.96,7.27-12.27,12.76-17.68,19.09-.75-.63-1.36-1.55-2.12-2.12,5.01-7.94,9.22-37.35,14.55-42.73,3.43-3.47,11.74-1.25,12.56,4.19.31,2.02-5.97,19.11-7.31,21.57Z" fill="#769730"/>
      <path d="M113.38,93.19c-1.56,1.49-3.18,1.81-3.54,2.12-4.93-6.32-14.35-12.46-18.73-18.74-2.23-3.19.19-4.86,3.53-2.19,6.88,5.5,12.61,12.5,18.74,18.8Z" fill="#cd4b34"/>
      <path d="M56.1,61.37c5,5.99,12.67,11.35,17.4,17.32,2.56,3.23.35,5.84-.79,4.95-6.48-5.07-12.28-13.34-18.73-18.74.65-.89,1.14-2.24,2.12-3.54Z" fill="#cd4b34"/>
      <path d="M34.89,93.89c3.66,4.69,10.55,9.14,13.79,13.79,1.26,1.82,1.05,2.92-.7,4.24-.91.69-13.99-13.71-15.92-15.2.64-1,2.18-1.83,2.83-2.83Z" fill="#cd4b34"/>
      <path d="M83.68,114.4c-1.01.7-1.82,2.14-2.83,2.83-2.1-3.45-14.54-10.69-9.55-14.5.9-.69,10.7,10.41,12.38,11.67Z" fill="#cd4b34"/>
      <path d="M49.03,137.74c-1.17.72-2.36,1.41-3.54,2.12-2.68-4.01-13.19-9.06-7.78-13.43l11.31,11.31Z" fill="#cd4b34"/>
      <path d="M9.43,133.49c.65-1.21,1.45-2.34,2.12-3.54,12.08,9.51,9.59,17.05-2.12,3.54Z" fill="#cd4b34"/>
    </g>
  </g>
</svg>