<?xml version="1.0" encoding="UTF-8"?>
<svg id="_レイヤー_2" data-name="レイヤー 2" xmlns="http://www.w3.org/2000/svg" viewBox="0 0 174.12 212.29">
  <g id="chingensai">
    <g>
      <path d="M109.77,22.14c6.82,12.1,14.25,29.41,17,43,2.3,11.36,2.49,23.01-1.51,33.99-1.92,5.27-8.01,12.51-8.49,17.01-1.56.68-2.44,1.81-3.2,3.29-5,9.68-7.97,27.96-6.8,38.71-3.19-4.22-6.46-11.01-8.47-16.03-8.43-21.13-10.02-43.44-11.03-65.98-1.9,28.49-3.44,57.4-19.5,82.01.15-10.62-1.9-28.22-6.8-37.71-.98-1.9-3.02-2.95-3.2-3.29-.34-.65-.65-1.33-1-2-9.88-19.04-13.31-27.99-9-50,2.15-10.99,9.65-32.16,15-42,1.9-3.49,10.11-14.84,12.96-17.54,15.95-15.12,26.84,3.76,34.04,16.54Z" fill="#627f2c"/>
      <path d="M135.77,175.14c-9.68-1.95-7.14-17.83-20-17-.19-5.76,1.73-11.8,2.04-17.46.44-7.87-1.75-17.86-1.04-24.54.48-4.5,6.57-11.75,8.49-17.01,4-10.98,3.81-22.63,1.51-33.99,3.42-2.35,6.53-5.23,10.08-7.42,2.59-1.59,11.69-6.92,13.92-7.58,2.4-.7,9.89-1.24,12.5-1,17.98,1.68,9.51,31.41,3.67,41.67-7.7,13.54-29.17,29.68-29.17,45.83v30c0,.45-1.61,6.52-2,8.5Z" fill="#759732"/>
      <path d="M22.77,50.14c8.58,2.32,17.36,10.67,25,15-4.31,22.01-.88,30.96,9,50-2.2,2.53-12.38,18.53-11.9,20.3.55,2.03,4.34,2.58,1.9,6.7-3.39.07-4.28-3.2-4-5.99l-6.99,3c-1.47-27.92-23.16-32.15-31.76-54.74-6.74-17.7-7.63-41.39,18.76-34.26Z" fill="#759732"/>
      <path d="M57.77,117.14c-2.45,16.2-3.22,35.2,7,49-2.39,10.45-3.55,21.92,3.59,30.91.92,1.16,5.48,5.64,6.41,6.09.08,1.03-.92,2.26-1,3-21.26,1.47-33.74-15.36-36.9-34.6-1.76-10.75-.54-21.61-1.1-32.4l6.99-3c-.29,2.8.61,6.07,4,5.99,2.44-4.11-1.35-4.67-1.9-6.7-.48-1.76,9.71-17.77,11.9-20.3.35.67.66,1.35,1,2Z" fill="#7ea038"/>
      <path d="M62.77,23.14c-5.35,9.84-12.85,31.01-15,42-7.64-4.33-16.42-12.68-25-15v-1l1-1c1.82-9.37,7.22-34.6,19.48-35.1,6.69-.28,15.31,5.07,19.52,10.1Z" fill="#465a28"/>
      <path d="M150.77,50.14c-2.23.65-11.33,5.98-13.92,7.58-3.55,2.19-6.65,5.07-10.08,7.42-2.75-13.59-10.18-30.9-17-43,7.71-2.93,12.23-9.87,21.5-9.05,11.31,1.01,18.44,27.4,19.5,37.05Z" fill="#465a28"/>
      <path d="M115.77,158.14c12.86-.83,10.32,15.05,20,17-3.85,19.33-14.97,32.07-36,31-.28-1.03-.39-2.09-1-3,14.11-6.21,13.63-24.42,11-37,4.07-1.81,1.79-7.73,6-8Z" fill="#7ea038"/>
      <path d="M98.77,203.14c.61.91.72,1.97,1,3,.31,1.13,1.43,4.27.97,4.95-8.81,2.68-18.03.04-26.98.06.12-1.63-.18-3.39,0-5.01.08-.74,1.08-1.97,1-3,5.7,2.8,18.22,2.54,24,0Z" fill="#92b74a"/>
      <path d="M22.77,49.14c.06-.52.98-.91,1-1l-1,1Z" fill="#759732"/>
      <path d="M106.77,158.14c.42,3.87,2.55,5.83,3,8,2.63,12.58,3.11,30.79-11,37-5.78,2.54-18.3,2.8-24,0-.93-.45-5.49-4.93-6.41-6.09-7.14-8.99-5.98-20.45-3.59-30.91.6-2.65,2.95-4.15,3-8,16.06-24.61,17.6-53.52,19.5-82.01,1.02,22.54,2.6,44.85,11.03,65.98,2,5.02,5.28,11.81,8.47,16.03Z" fill="#e2ebbd"/>
      <path d="M115.77,158.14c-4.21.27-1.93,6.19-6,8-.45-2.17-2.58-4.13-3-8-1.17-10.74,1.8-29.02,6.8-38.71.76-1.48,1.64-2.61,3.2-3.29-.71,6.68,1.48,16.67,1.04,24.54-.32,5.65-2.23,11.7-2.04,17.46Z" fill="#d2a673"/>
      <path d="M67.77,158.14c-.05,3.85-2.4,5.35-3,8-10.22-13.8-9.45-32.8-7-49,.18.34,2.22,1.39,3.2,3.29,4.9,9.49,6.95,27.09,6.8,37.71Z" fill="#d2a673"/>
    </g>
  </g>
</svg>