<?xml version="1.0" encoding="UTF-8"?>
<svg id="_レイヤー_2" data-name="レイヤー 2" xmlns="http://www.w3.org/2000/svg" viewBox="0 0 119.99 158.23">
  <g id="corn">
    <g>
      <path d="M23,60.12c1.29.56,6.67,2.8,7,3,.23.13,3.62,2.69,4,3,1.94,1.56,7,6.88,9,9,.95,1.01,2.36,2.25,3,3,2.31,2.71,8.44,11.08,10,14,.81,1.52,3.1,7.71,4,10,6.73,17.16,10.23,38.34,4,56-9.48.62-19.14-1.23-27.3-6.2C1.38,130.41,27.41,82.02,0,55.13c7.89-.35,15.87,1.89,23,4.99Z" fill="#acc46c"/>
      <path d="M84,28.12c2.1-1.21,11.99-12.08,13.99-10-.36,12.07-2.35,26.59-1.04,38.54.64,5.83,3.04,1.77,6.82.73,5.06-1.4,11-3.03,16.22-1.78-19.5,18.81-12.15,47.44-18.07,70.93-4.65,18.48-18.8,30.32-37.92,31.58,6.23-17.66,2.73-38.84-4-56,2.64-2.75,3.2-6.66,5-10,2.07-3.85,6.3-10.73,9-14,.4-.49,1.34-1.27,2-2,2.36-2.6,6.35-5.49,9-8,1.34-1.27,4.36-2.82,4.86-4.72s-.79-4.18-.86-6.28c-.02-.66.07-1.35,0-2-.46-4.37-1.6-6.63-2-9-.16-.93.18-2.12,0-3-.7-3.35-1.3-5.25-2-8-.27-1.07-.68-1.98-1-3s.33-3.08,0-4Z" fill="#98b457"/>
      <path d="M56,2.12l.57,8.02c10.48.85,5.84-.29,8.43-8.02.71.34,1.24.45,2,1v6.01s5,0,5,0c.91,1.07,2.06,1.66,3,3h-8.01s0,9,0,9c6.74.28,10.13,1.14,9-7,2.16,3.38,3.24,4.99,5,9-3.76-.87-1.39,5.89-2.01,9.01h5.01c.32,1.01.73,1.92,1,2.99h-6.01s0,8.01,0,8.01h8.01c.18.87-.16,2.07,0,2.99h-8.01s0,9.01,0,9.01h10.01c.07.65-.02,1.34,0,1.99-2.6.37-8.91-1.25-9.86,1.64-1.97,5.98.34,8.38,5.86,9.36-2.65,2.51-6.64,5.4-9,8v-7.01c-11.36-3.24-13.39,10.69-2,9.01-2.7,3.27-6.93,10.15-9,14h-9c-1.56-2.92-7.69-11.29-10-14,5.2.36,7.74.46,7.07-5.52-.47-4.18-5.59-4.84-8.14-3.04-1.6,1.12-.14,4.44-1.93,5.57-2-2.12-7.06-7.44-9-9h7.01s0-8.01,0-8.01h-9.01c.18-1.26-.18-2.73,0-3.99l9,1v-9.01s-7,0-7,0c.12-.27.05-1.5,0-2,8.11,1.11,7.3-2.2,7.01-9-1.53.21-3.64-.31-5.01,0v-3c1.96.01,5.12.63,5.86-1.64.96-2.9.91-7.82-2.86-6.36,1.8-4.67,2.1-6.39,5-11l1,8.01c8.59,1,8.54-1.19,8.01-9.01h-8c1.59-2.27,1.74-1.7,2-2,5.24.65,6.66-.7,6-6,1.31-.96,1.22-1.08,3-2ZM56,21.12c11.5,2.61,11.4-11.66,0-9.01v9.01ZM55.99,32.12c13.12,2.77,12.13-11.19,0-9.01v9.01ZM75.89,24.23c-.46-.55-6.71-1.57-7.96-.68-1.76,1.26-.67,6.49-.94,8.58h9.01c-.34-1.69.56-7.11-.12-7.9ZM53,24.11h-9.01c-2.65,11.4,11.62,11.5,9.01,0ZM75.94,35.18c-.2-.2-5-.99-5.51-.97-4.15.18-6.73,10.97,2.1,9.98,4.82-.54,4.23-8.18,3.41-9.01ZM52.88,43c.59-.69.39-6.61-.81-7.45-1.61-1.13-5.94-.15-8.07-.44.42,4.31-2.05,8.68,3.57,8.92.88.04,5.09-.78,5.32-1.04ZM56.14,35.25c-1.4.86-.54,7.47.81,8.43,5.07,3.61,11.1-2.59,7.62-7.62-.85-1.23-7.44-1.41-8.42-.81ZM43.99,55.12c12.89,2.8,12.8-11.84,0-9.01v9.01ZM63.86,46.26c-1.27-.79-5.94.24-7.86-.15v9.01c2.08-.26,7.33.83,8.57-.94.95-1.36.3-7.3-.7-7.93ZM76,55.12c3.48-15.05-14.38-9.34-8.56-.94,1.23,1.77,6.49.68,8.56.94ZM52.86,58.27c-.92-1.45-7.95-.95-8.74-.04-.68.79.22,6.2-.12,7.89h9.01c-.38-1.92.65-6.6-.15-7.85ZM64.94,66.06c.45-.46.36-6.65-.87-7.51-.93-.64-7.12-.81-7.93-.31-1.41.87-.51,7.48.8,8.46.95.71,7.72-.35,8-.64ZM76,58.11c-4.26.46-8.67-2.09-8.82,3.47-.18,6.59,3.72,4.27,8.82,4.54v-8.01ZM63.95,69.17c-.52-.51-6.39.23-7.95-.06.07,5.51-1.72,9.88,5.53,9.08,5.14-.57,3.31-8.15,2.43-9.02ZM65,81.11h-9.01c.3,5.27-2.11,8.84,4.54,9.05,6.44.2,4.18-4.16,4.47-9.05Z" fill="#f2b929"/>
      <path d="M36,29.12c-.18.74,0,2.08,0,3v3c-4.46,1.04-2.23,6.79-2,9,.05.5.12,1.73,0,2-1.94,4.39-1.3,3.08-2,8-.18,1.26.18,2.73,0,4-.13.95-1.88,3.54-2,5-.33-.2-5.71-2.44-7-3V18.12c1.06-1.22,12.4,9.09,13,10.99Z" fill="#98b457"/>
      <path d="M75,12.12c.64.92.74,1.6,1,2,1.12,8.14-2.27,7.29-9,7v-9.01s8,0,8,0Z" fill="#f7ca34"/>
      <path d="M65,2.12c-2.59,7.73,2.05,8.87-8.43,8.02l-.57-8.02c.61-.31.42-1.92,3.47-2.1,3.55-.21,3.64,1.18,5.53,2.1Z" fill="#f7ca34"/>
      <path d="M45,12.12h8c.53,7.81.58,10.01-8.01,9.01l-1-8.01c.24-.38.75-.65,1-1Z" fill="#f7ca34"/>
      <path d="M39,24.12c3.77-1.46,3.82,3.46,2.86,6.36-.75,2.26-3.91,1.65-5.86,1.64,0-.92-.18-2.26,0-3,.32-1.36,2.59-3.94,3-5Z" fill="#f7ca34"/>
      <path d="M81,23.12c.65,1.48,2.63,3.98,3,5,.33.92-.32,2.99,0,4h-5.01c.62-3.11-1.75-9.87,2.01-9Z" fill="#f7ca34"/>
      <path d="M53,4.12c.66,5.3-.76,6.65-6,6,2.96-3.37,1.6-2.78,6-6Z" fill="#f7ca34"/>
      <path d="M72,9.12h-5.01s0-6,0-6c3.62,2.61,3.21,3.91,5,6Z" fill="#f7ca34"/>
      <path d="M32,58.12h9.01s0,8.01,0,8.01h-7.01c-.38-.32-3.77-2.87-4-3.01.12-1.46,1.87-4.05,2-5Z" fill="#f7ca34"/>
      <path d="M46,78.12c-.64-.75-2.05-1.99-3-3,1.79-1.13.33-4.44,1.93-5.57,2.55-1.8,7.67-1.14,8.14,3.04.67,5.99-1.87,5.88-7.07,5.52Z" fill="#f7ca34"/>
      <path d="M65,92.12c-1.8,3.34-2.36,7.25-5,10-.9-2.29-3.19-8.48-4-10h9Z" fill="#f7ca34"/>
      <path d="M89,57.12c.07,2.1,1.37,4.35.86,6.28s-3.51,3.45-4.86,4.72c-5.52-.98-7.82-3.38-5.86-9.36.95-2.88,7.26-1.27,9.86-1.64Z" fill="#f7ca34"/>
      <path d="M87,46.12c.4,2.37,1.54,4.63,2,9h-10.01s0-9.01,0-9.01h8.01Z" fill="#f7ca34"/>
      <path d="M74,78.12c-11.39,1.68-9.36-12.25,2-9.01v7.01c-.67.73-1.6,1.51-2,2Z" fill="#f7ca34"/>
      <path d="M85,35.12c.7,2.75,1.3,4.65,2,8h-8.01s0-8.01,0-8.01h6.01Z" fill="#f7ca34"/>
      <path d="M75.94,35.18c.82.84,1.41,8.47-3.41,9.01-8.83.99-6.25-9.8-2.1-9.98.51-.02,5.31.77,5.51.97Z" fill="#f7ca34"/>
      <path d="M56.14,35.25c.98-.6,7.57-.42,8.42.81,3.48,5.03-2.55,11.23-7.62,7.62-1.34-.95-2.2-7.57-.81-8.43Z" fill="#f7ca34"/>
      <path d="M43.99,55.12v-9.01c12.8-2.84,12.89,11.81,0,9.01Z" fill="#f7ca34"/>
      <path d="M63.86,46.26c1,.63,1.66,6.56.7,7.93-1.24,1.77-6.49.67-8.57.94v-9.01c1.92.38,6.6-.65,7.86.15Z" fill="#f7ca34"/>
      <path d="M76,55.12c-2.08-.26-7.34.83-8.56-.94-5.82-8.4,12.05-14.11,8.56.94Z" fill="#f7ca34"/>
      <path d="M65,81.11c-.3,4.89,1.97,9.25-4.47,9.05-6.65-.21-4.24-3.78-4.54-9.05h9.01Z" fill="#f7ca34"/>
      <path d="M75.89,24.23c.67.79-.22,6.2.12,7.9h-9.01c.26-2.09-.82-7.32.94-8.58,1.24-.89,7.49.13,7.96.68Z" fill="#f7ca34"/>
      <path d="M55.99,32.12v-9.01c12.13-2.18,13.12,11.78,0,9.01Z" fill="#f7ca34"/>
      <path d="M34,46.12h7.01s0,9,0,9l-9-1c.7-4.92.06-3.61,2-8Z" fill="#f7ca34"/>
      <path d="M64.94,66.06c-.28.29-7.05,1.35-8,.64-1.32-.98-2.22-7.59-.8-8.46.81-.5,7-.33,7.93.31,1.23.85,1.32,7.05.87,7.51Z" fill="#f7ca34"/>
      <path d="M52.86,58.27c.79,1.25-.23,5.94.15,7.85h-9.01c.34-1.69-.56-7.11.12-7.89.79-.92,7.82-1.42,8.74.04Z" fill="#f7ca34"/>
      <path d="M52.88,43c-.22.26-4.43,1.07-5.32,1.04-5.62-.24-3.15-4.61-3.57-8.92,2.13.29,6.45-.68,8.07.44,1.2.84,1.4,6.76.81,7.45Z" fill="#f7ca34"/>
      <path d="M63.95,69.17c.89.87,2.72,8.44-2.43,9.02-7.24.81-5.45-3.56-5.53-9.08,1.57.29,7.43-.45,7.95.06Z" fill="#f7ca34"/>
      <path d="M53,24.11c2.61,11.5-11.66,11.4-9.01,0h9.01Z" fill="#f7ca34"/>
      <path d="M56,21.12v-9.01c11.4-2.65,11.5,11.62,0,9.01Z" fill="#f7ca34"/>
      <path d="M76,58.11v8.01c-5.1-.27-9,2.05-8.82-4.54.15-5.56,4.56-3.02,8.82-3.47Z" fill="#f7ca34"/>
      <path d="M36,35.12c1.37-.32,3.47.2,5.01,0,.29,6.81,1.1,10.11-7.01,9-.23-2.21-2.46-7.96,2-9Z" fill="#f7ca34"/>
    </g>
  </g>
</svg>