<?xml version="1.0" encoding="UTF-8"?>
<svg id="_レイヤー_2" data-name="レイヤー 2" xmlns="http://www.w3.org/2000/svg" viewBox="0 0 47.14 238.3">
  <g id="daikon">
    <g>
      <path d="M45.05,83.24c.22,5.72.07,11.43,0,17-3.27-.21-21.16-.29-22.01,2.51-.74,2.43,1.11,1.07,2.02,1.02,6.61-.41,13.54-1.46,19.99.47-.28,12.87-.89,23.46-2,36-5.08.45-12.39-1.67-16,2.99h16c-1.14,11.83-2.15,25.41-4,37.01-.04.23-.84,1.04-1,2-.3,1.82-1.74,3.97-2,7-.1,1.23-.08,2.76,0,4-2.67,2.46-2.11,7.41-3,10-.16.46-.7,1.17-1,2-1.18,3.24-3.96,7.28-4.77,10.73-1.64,6.98-.29,12.25-.19,18.73.02,1.47.8,4.04-1.53,3.53-2.96-3.46-1.05-9.14-1.53-13.48-1.1-9.91-3.59-20.57-7.99-29.51.88-2.37,2.07-4.68-1-4,.39-2.79.2-12.79-3-12,.73-2.58,2.74-6.68-1-6,.28-4.64-.81-8.5-1-13,3.82-.57,8.22.83,11.99-.5-2.08-1.07-11.47-3.62-12.99-3.5-.47-10.37-2.27-20.66-3-31,7-.1,12.98-1.55,20-.01-5.03-4.92-13.72-2.38-20-2.99-.78-12.39-1.3-24.53-1-37,6.03-.09,11.28.6,17-1,1.81-.51,2.82-1.73,5.47-2.02,6.01-.67,11.62,1.22,17.53,1.02Z" fill="#edebe1"/>
      <path d="M33.05,50.24c8.81,3.05,11.22,12.78,12,21-1.79-.2-14.02-.07-14.01,1.5l14.01.5c.31,3.16-.13,6.74,0,10-5.91.2-11.52-1.7-17.53-1.02-2.65.3-3.66,1.52-5.47,2.02-5.67-1.29-11.27-3.21-17-1,.34-11.37-.38-28.03,13-33,.28-.1.68.09,1,0,3.89-1.08,10.2-1.32,14,0Z" fill="#e4e8c3"/>
      <path d="M28.05,18.24c-1.14,8.85.19,16.09,0,25l7.32-16c-.31-2.01.29-3.28.67-5,3.8-.27,3.79-5.66,7.54-6.04,3.28-.33,3.66,1.72,3.53,4.52-.32,6.8-11.99,22.1-14.07,29.52-3.8-1.32-10.11-1.08-14,0,1.97-5.31,1-13.82-1-19l-3.04-24.55c-.72-5.6,4.81-9.3,8.53-4.44s.79,11.88,4.51,15.99Z" fill="#8fb049"/>
      <path d="M18.05,31.24c2,5.18,2.97,13.69,1,19-.32.09-.72-.1-1,0-2.18-5.98-15.1-24.66-15.08-29.52.02-3.49,2.82-5.49,6.06-3.99,1.53.71,8.21,12.41,9.02,14.51Z" fill="#769531"/>
      <path d="M36.05,22.24c-.38,1.73-.98,2.99-.67,5l-7.32,16c.18-8.91-1.15-16.15,0-25,.45-3.54.28-10.65,4.72-11.85,8.61-2.33,4.19,11.67,3.28,15.85Z" fill="#66812f"/>
      <path d="M15.05,191.24c3.07-.68,1.88,1.63,1,4-1.12,3.01-3.23,4.78-3.07,8.48.16,3.75,3.81,7.58,4.63,11.46,1.07,5.09.97,12.68-3.55,16.06.07-4.95,2.71-8.23,1.94-13.43-.69-4.58-6.11-9.86-5.89-14.98.19-4.46,4.38-7.58,4.94-11.59Z" fill="#d9d7c8"/>
      <path d="M9.05,156.24c1.53-.12,10.91,2.44,12.99,3.5-3.78,1.33-8.18-.07-11.99.5-5.67.84-3.38,10.12-4.22,14.28-.34,1.69-2.58,5.59-3.52,7.53-.66,1.35.64,2.75-2.25,2.19-.55-4.39,3.07-7.61,3.76-11.73.55-3.31-.19-15.85,5.24-16.26Z" fill="#d9d7c8"/>
      <path d="M11.05,173.24c3.74-.68,1.73,3.42,1,6-1.06,3.74-4.34,8.04-4.83,10.75-.75,4.13.91,6.11-1.18,11.78-.64,1.73-.37,4.1-2.99,3.46,2.52-5.55,1.07-12.21,2.2-17.29,1.05-4.7,5.32-6.87,5.79-14.71Z" fill="#d9d7c8"/>
      <path d="M36.05,189.24l6.56,16.94,1.46,13.54c-4.2,1.85-2.71-7.89-3.25-10.75-1.01-5.4-4.33-9.2-4.77-15.73-.08-1.24-.1-2.77,0-4Z" fill="#d9d7c8"/>
      <path d="M45.05,100.24c-.02,1.33.03,2.67,0,4-6.45-1.94-13.38-.88-19.99-.47-.91.06-2.75,1.41-2.02-1.02.85-2.8,18.73-2.72,22.01-2.51Z" fill="#d9d7c8"/>
      <path d="M33.05,203.24c6.66,6.2-.59,17.57,2.99,26-8.39-7.25,1.14-16.55-3.99-24,.3-.83.84-1.54,1-2Z" fill="#d9d7c8"/>
      <path d="M39.05,180.24c6.28,3.76,6.43,12.56,7.99,18.99-2.21.36-2.39-.91-2.94-2.55-1.53-4.55-1.51-11.25-6.05-14.45.16-.96.96-1.77,1-2Z" fill="#d9d7c8"/>
      <path d="M6.05,122.24c6.28.61,14.97-1.93,20,2.99-7.02-1.54-13-.09-20,.01-.07-.99.06-2.01,0-3Z" fill="#d9d7c8"/>
      <path d="M43.05,140.24c-.09.99.09,2.02,0,3h-16c3.61-4.67,10.92-2.55,16-3Z" fill="#d9d7c8"/>
      <path d="M22.05,84.24c-5.72,1.6-10.97.91-17,1,.02-.67-.02-1.33,0-2,5.73-2.21,11.33-.29,17,1Z" fill="#d9d7c8"/>
      <path d="M45.05,71.24c.06.66-.06,1.34,0,2l-14.01-.5c0-1.57,12.22-1.7,14.01-1.5Z" fill="#d9d7c8"/>
    </g>
  </g>
</svg>