<?xml version="1.0" encoding="UTF-8"?>
<svg id="_レイヤー_2" data-name="レイヤー 2" xmlns="http://www.w3.org/2000/svg" viewBox="0 0 191.22 204.17">
  <g id="ginger">
    <g>
      <path d="M146.16,5.01c-2.17,5.46.1,11.31,1.98,16.52,5.85,16.24,19.44,28.7,36.02,33.48-4.79,6.77-9.67,11.65-17.96,14.05-.75,2.8,1.89,3.89,2.96,5.95-7.31.74-12.49,4.12-15,11-1.46-1.05-4.2-1.77-5.64-3.86-1.8,1.05-4.89,1.25-6.36,1.86-8.3-6.2-15.23-15.71-17.55-25.95-.84-3.69,1.1-9.94-3.45-10.04-.14,13.75,6.65,30.08,18.99,36.99-.16.06-.63,1.39-1.68,1.78-7.2,2.63-14.78,3.16-22.36,3.68-1.19.79-5.77,16.75-4.96,17.54,2.33-.01,4.67.05,7,0-5.69,10.95-11.29,21.16-8,34-2-.71-8.11-2.86-9.63-2.98-6.33-.48-14.02,13.96-19.36,17.49l8.99,4.49c-10.65,1.92-17.94,13.57-18,24-3.05-1.21-6.54-6.36-8.95-5.54-8.68,2.94-2.71,7.34-2.05,12.54-6.99-.26-14.87,2.32-18,9-1.94-1.16-3.52-3.81-5.53-4.02-2.31-.24-7.86,2.53-11.08,2.91-24.68,2.92-31.95-18.02-16.39-34.89.36,4.53,3.94,15.17,6.18,19.32,1.03,1.92,8.32,12.9,10.82,10.67.7-.63-5.9-8.25-6.8-9.69-5.6-9.05-4.77-13.61-7.19-22.62-.32-1.18-1.94-.57-2.01-.68-4.04-5.92-6.44-7.86-9-15,9.92,3.39,22.78-1.69,25.99-11.99-3.3.66-4.23,4.33-7.06,6.43-6.3,4.68-12.52,3.58-19.93,3.57-.79-3.5-1.48-6.03-1-10,8.45,3.72,22.97-2.55,24.96-11.55,1.66-7.5-4.51,2.53-4.96,3.05-5.74,6.64-10.39,7.15-19,6.5.95-4.02,2.13-8.14,5.49-11.01,6.67-5.7,17.06-5.91,21.72,2.3,2.89,5.09,1.72,9.95,4.29,14.69,6.32-6.92,9.91-11.53,11.5-20.98.74-4.4.26-11.4,1-14,.12-.41,2.01-.71,2.1-2.5.67-13.51-6.84-6.25-13.61-6.41-3.82-.09-3.91-1.55-5.49-2.09,6.94-7.55,12.86-15.63,12.04-26.55-.08-1.09-.08-4.41-1.54-4.43-2-.04-1.53,16.28-4.31,18.67-2.04,4.4-5.91,7.82-9.19,11.31-5.85-2.93-9.01-5.79-13-11,13.26-7.24,17.45-23.93,15-38,6.86.75,10.11,4.4,15.99,6.99-.72-3.48.45-6.15,1.01-8.99,12.63,5.4,22.9-.43,34.76-2.74,3.48-.68,8.01-.83,11.7-1.31,1.31-.17,4.25.99,3.54-1.44-.48-1.64-16.69.27-19.26.74-4.08.75-9.34,3.32-13.22,3.78-5.61.68-11.96-.39-17.53-1.03,1.15-4.22,3.39-7.97,7.07-10.43,5.86-3.92,8.52-1.65,14.21-2.79,3.86-.78,8.1-4.2,13.34-4.68,3.87-.36,9.19,1.62,11.71.76,1.69-.58,2.87-4.85,5.93-6.09,10.53-4.29,19.27,5.63,19.35,15.57.05,5.85-3.22,11.91-2.12,17.67,8.45-5.56,12.52-12,16.51-20.99,3.16-.6,1.64,1.58,2.1,3.35,3.82,14.88,13.2,30.76,27.57,37.48,4.38,2.05,6.5,1.23,2.01-2-17.66-12.7-21.74-17.39-28.21-38.84-.5-1.64.21-3.55-2.47-2.98,4.85-10.55,3.79-13.56,15-20ZM96.15,65c.24-3.64-6.87-3.83-9.46-4.03-4.35-.34-32.81.2-34.54,2.04-.2.21.12,2.18.01,2.99,14.51-3.3,29.38-3.98,43.99-1ZM53.16,90.01h16.5c2.36,0,10.43,1.99,13.28,2.72,6.48,1.66,12.63,4.59,18.71,7.29,2.56-2.89-4.52-5.3-6.8-6.21-10.16-4.07-28.74-8.49-39.26-5.83-1.68.43-2.91-1.01-2.43,2.02ZM87.15,129c1.02-1.11-.43-2.92-1.64-3.85-7.12-5.47-19.39-10.09-28.35-11.14-.45,2.54.39,1.8,2,2.45,4,1.6,8.47,2.5,12.67,4.37,2.15.96,14.73,8.81,15.32,8.17ZM63.18,160c.88.67,3.33-.93,2.98-2.48-.67-2.96-25.08-23.12-27.99-20.51-1.31,1.17,1.62,2.67,2.32,3.17,8.65,6.22,14.04,9.31,21.7,17.35.78.82.89,2.39.99,2.47ZM44.16,180c-4.59-5.09-9.24-9.84-12.54-15.95-.38-.7-3.48-11.36-5.46-9.03-2.68,3.15,10.99,26.21,17.99,24.99Z" fill="#d2a673"/>
      <path d="M164.16,0c-4.86,15.49,12.18,30.26,27,29,.27,11.94-.13,14.17-6,24-2.84-2.65-7.35-3.07-10.68-4.82-15.14-8-27.83-26.63-26.32-44.18C154.89.83,156.42.32,164.16,0Z" fill="#d2a673"/>
      <path d="M133.16,104.01c-5.6,14.17-3.3,28.04,4,41-5.25,2.25-2.36,5.31-5.45,8.05-3.26,2.9-9.29,2.58-12.03-1.08-1.55-2.06-2.23-7.32-2.74-7.78-.15-.13-2.77-.82-3.78-1.19-4.11-13.21,2.88-23.66,8-35,4.4-.54,7.32-2.94,12-4Z" fill="#d2a673"/>
      <path d="M147.16,106.01c-4.69,7.4.14,22.97,9,25-4.01,9.11-7.45,9.94-16,13-8.48-13.4-9.54-24.88-5-40,4.22-.53,5.43-1.61,10.28.26,1.21.47,1.61,1.69,1.72,1.74Z" fill="#d2a673"/>
      <path d="M25.16,43.01c.7,11.68-.77,25.25-10.46,33.04-1.49,1.19-2.25,2.35-4.54,1.96-7.94-14.38-4.47-35.28,15-35Z" fill="#d2a673"/>
      <path d="M191.16,27.01c-14.88-.71-27.38-11.21-26-27,20.76-.18,24.94,7.17,26,27Z" fill="#d2a673"/>
      <path d="M94.16,166.01c-4.04,4.72-5.14,11.06-6,17-6.17,3.51-7.12,3.63-14,2,1.04-10.18,7.86-17.49,16-23,3.36,0,3.01,2.22,4,4Z" fill="#d2a673"/>
      <path d="M148.16,4.01c-1.5,17.54,11.18,36.17,26.32,44.18,3.33,1.76,7.84,2.17,10.68,4.82-.34.56-.46,1.24-1,2-16.59-4.78-30.17-17.24-36.02-33.48-1.88-5.22-4.15-11.06-1.98-16.52.7-.4,1.28-.66,2-1Z" fill="#ba8d59"/>
      <path d="M149.16,107.01c1.26.65,3.11.29,5.24,1.98,5.63,4.49,5.16,11.06,3.5,17.29-.3,1.14-1.7,1.61-1.74,1.73-6.78-4.39-9.74-13.38-7-21Z" fill="#d2a673"/>
      <path d="M131.16,25.01c2.68-.57,1.97,1.34,2.47,2.98,6.47,21.45,10.55,26.14,28.21,38.84,4.5,3.23,2.38,4.05-2.01,2-14.37-6.71-23.75-22.6-27.57-37.48-.46-1.77,1.06-3.95-2.1-3.35.37-.85.52-1.95,1-3Z" fill="#ba8d59"/>
      <path d="M44.16,39.01c5.57.64,11.93,1.71,17.53,1.03,3.88-.47,9.14-3.03,13.22-3.78,2.57-.47,18.78-2.38,19.26-.74.71,2.43-2.23,1.27-3.54,1.44-3.69.48-8.22.63-11.7,1.31-11.86,2.31-22.13,8.14-34.76,2.74.12-.62-.15-1.45,0-2Z" fill="#ba8d59"/>
      <path d="M142.16,84.01c-.56.23-1.15.67-2,1-12.35-6.92-19.13-23.25-18.99-36.99,4.55.1,2.61,6.35,3.45,10.04,2.32,10.25,9.25,19.76,17.55,25.95Z" fill="#ba8d59"/>
      <path d="M27.16,43.01c2.45,14.07-1.74,30.76-15,38-1.09-1.42-1.07-1.31-2-3,2.29.39,3.05-.77,4.54-1.96,9.7-7.79,11.17-21.36,10.46-33.04.66,0,1.35-.07,2,0Z" fill="#ba8d59"/>
      <path d="M135.16,104.01c-4.54,15.12-3.48,26.6,5,40-.97.35-2.18.65-3,1-7.3-12.96-9.6-26.83-4-41,.57-.13,1.35.08,2,0Z" fill="#ba8d59"/>
      <path d="M121.16,108.01c-5.12,11.34-12.11,21.79-8,35-.91-.34-2.01-.65-3-1-3.29-12.84,2.31-23.05,8-34,.98-.02,2.06.12,3,0Z" fill="#ba8d59"/>
      <path d="M191.16,27.01c.04.66-.01,1.34,0,2-14.82,1.26-31.86-13.51-27-29,.33-.01.67,0,1,0-1.38,15.79,11.12,26.29,26,27Z" fill="#ba8d59"/>
      <path d="M61.16,194.01c-.25,7.45-4.82,11.09-12.47,9.96-2.3-.34-2.5-1.46-3.53-1.96,4.67-5.9,8.65-7.13,16-8Z" fill="#d2a673"/>
      <path d="M11.16,162.01c.07.1,1.69-.5,2.01.68,2.42,9.02,1.59,13.58,7.19,22.62.89,1.44,7.5,9.07,6.8,9.69-2.5,2.23-9.79-8.76-10.82-10.67-2.24-4.16-5.82-14.79-6.18-19.32-.08-.96.53-2.15,1-3Z" fill="#ba8d59"/>
      <path d="M170.16,77.01c.73,5.27-1.97,11-7.61,12-2.67.48-3.2-.77-4.39-1-.81-6.88,6.15-10.12,12-11Z" fill="#d2a673"/>
      <path d="M28.16,93.01c-1.1-.37-1.6-.3-3-1,3.28-3.49,7.15-6.91,9.19-11.31,2.78-2.39,2.31-18.71,4.31-18.67,1.47.03,1.46,3.35,1.54,4.43.82,10.92-5.1,19-12.04,26.55Z" fill="#ba8d59"/>
      <path d="M1.16,133.01c8.61.65,13.26.14,19-6.5.45-.52,6.62-10.55,4.96-3.05-1.99,9-16.51,15.27-24.96,11.55.12-1,.91-1.63,1-2Z" fill="#ba8d59"/>
      <path d="M149.16,107.01c-2.74,7.62.22,16.61,7,21-.26.75.28,2.37,0,3-8.86-2.03-13.69-17.6-9-25,.86.34,1.29.63,2,1Z" fill="#ba8d59"/>
      <path d="M90.16,161.01v1c-8.14,5.51-14.96,12.82-16,23-.6-.14-1.54.18-2,0,.06-10.43,7.35-22.08,18-24Z" fill="#ba8d59"/>
      <path d="M1.16,145.01c7.41.01,13.63,1.11,19.93-3.57,2.83-2.1,3.76-5.77,7.06-6.43-3.21,10.31-16.07,15.39-25.99,11.99-.19-.54-.78-1.05-1-2Z" fill="#ba8d59"/>
      <path d="M88.16,183.01c.86-5.94,1.96-12.28,6-17,2.42,4.36,2.28,6.64.06,11.56-1.7,3.79-3.1,3.75-6.06,5.44Z" fill="#ba8d59"/>
      <path d="M169.16,75.01c.33.64.82.72,1,2-5.85.88-12.81,4.12-12,11-1.04-.2-2.92.51-3.8-.21-.49-.41-.09-1.7-.2-1.79,2.51-6.88,7.69-10.26,15-11Z" fill="#ba8d59"/>
      <path d="M61.16,192.01c.08.62.02,1.36,0,2-7.35.87-11.33,2.1-16,8-.72-.35-1.27-.57-2-1,3.13-6.68,11.01-9.26,18-9Z" fill="#ba8d59"/>
      <path d="M44.16,104.01c-1.93,3.94-.68,8.72-1,13-5.2-3.87-6.71-12.5,1-13Z" fill="#d2a673"/>
      <path d="M44.16,118.01c-.37-.28-.64-.73-1-1,.32-4.28-.93-9.06,1-13h1c-.74,2.6-.26,9.6-1,14Z" fill="#ba8d59"/>
      <path d="M53.16,90.01c-.48-3.03.75-1.6,2.43-2.02,10.52-2.66,29.1,1.76,39.26,5.83,2.27.91,9.36,3.31,6.8,6.21-6.08-2.7-12.22-5.63-18.71-7.29-2.85-.73-10.92-2.72-13.28-2.72h-16.5Z" fill="#ba8d59"/>
      <path d="M96.15,65c-14.6-2.97-29.48-2.29-43.99,1,.11-.81-.21-2.78-.01-2.99,1.73-1.85,30.2-2.38,34.54-2.04,2.59.2,9.7.39,9.46,4.03Z" fill="#ba8d59"/>
      <path d="M63.18,160c-.11-.08-.21-1.65-.99-2.47-7.66-8.04-13.05-11.13-21.7-17.35-.69-.5-3.62-2-2.32-3.17,2.91-2.61,27.32,17.55,27.99,20.51.35,1.55-2.1,3.15-2.98,2.48Z" fill="#ba8d59"/>
      <path d="M87.15,129c-.59.64-13.17-7.21-15.32-8.17-4.21-1.87-8.67-2.78-12.67-4.37-1.61-.64-2.44.1-2-2.45,8.96,1.05,21.23,5.67,28.35,11.14,1.21.93,2.67,2.74,1.64,3.85Z" fill="#ba8d59"/>
      <path d="M44.16,180c-7,1.22-20.67-21.83-17.99-24.99,1.98-2.33,5.08,8.33,5.46,9.03,3.3,6.11,7.95,10.86,12.54,15.95Z" fill="#ba8d59"/>
    </g>
  </g>
</svg>