<?xml version="1.0" encoding="UTF-8"?>
<svg id="_レイヤー_2" data-name="レイヤー 2" xmlns="http://www.w3.org/2000/svg" viewBox="0 0 137.97 159.81">
  <g id="goya">
    <g>
      <path d="M128.02,17.79c.14.09.27,1.85,1.44,3.06.75.77,2.46.8,2.56.94.16.21.51,3.83,1,5-1.62,5.85-1.78,11.88-3.82,17.68-3.58,10.15-13.12,16.02-15.43,21.57-3.27,7.85-1.02,12.43-9.27,19.73-2.97,2.63-9.08,4.75-11.06,6.94-2.3,2.55-3.33,9.25-5.98,13.02-4.36,6.19-11.81,7.24-14.47,10.53-2.28,2.81-3.31,8.76-6.44,12.56-5.74,6.96-12.25,5.9-18.45,9.55-3.55,2.09-7.33,7.16-12.04,9.96-8.01,4.75-16.11,6.4-25.03,8.47-4.59-2.31-4.57-2.62-7-7l4.24-21.26c.57-7.3,9.19-12.57,11.54-17.46,2.42-5.06.89-9.86,5.23-15.77,4.22-5.74,12.51-7.83,15.04-10.96,2.79-3.46,2.66-9.78,7.42-14.58,4.32-4.36,11.69-5.41,14.57-8.43,4.12-4.35,3.79-11.17,10.5-16.5,5.33-4.23,11.39-4.11,15.83-7.17,2.45-1.69,4.54-5.52,7.12-7.88,5.77-5.28,12.76-8.1,19.79-11.26,1.49-.67,3.27-.14,2.73-2.72,1.44.25,9.57,1.73,10,2ZM116.02,27.8c-8.79.6-17.6,3.24-22.43,11.06-1.19,1.94-2.29,6.72-3.55,7.45-2.73,1.58-6.2.02-11.04,3.96-5.76,4.69-6.47,13.88-7.1,14.4-.37.3-6.53.94-9.25,2.25-3.5,1.69-8.55,6.84-9.41,10.58-.45,1.98-.87,10.22,2.81,7.82.84-.55,4.65-6.89,6.97-9.04,3.44-3.19,8.99-5.09,11.54-7.46,3.18-2.96,5.5-9.11,9.95-13.05,7.15-6.33,13.83-12.55,20.99-19.01,3.41-3.07,7.93-5,10.53-8.96ZM122.52,33.79v1c.65-.33.65-.67,0-1ZM89.14,82.9c.4-.48,8.83-2.81,11.39-5.1,5.26-4.69,4.02-11.71,5.97-15.03.46-.77,5.81-3.28,7.43-4.57,6.27-4.99,8.15-11.02,8.1-18.91,0-.8.62-4.48-1.02-3.01-3.15,4.25-5.29,9.27-8.58,13.43-8.53,10.79-20.31,22.12-28.42,32.58-2.26,2.92-3.74,7.08-6,10-4.28,5.53-10.36,8.19-14.54,12.46-3.63,3.72-5.43,8.87-9.94,13.06-3.21,2.98-7.84,4.89-10.57,7.43-2.28,2.11-3.63,5.6-5.93,8.07-4.46,4.79-9.38,8.06-14.02,12.47,9.5.51,18.32-2.98,22.8-11.69,1.12-2.18,2.75-8.6,3.13-8.87,1.72-1.21,7.36-.21,12.09-3.91,8.44-6.6,4.28-13.47,6.11-16.39.51-.81,12.23-1.44,17.3-7.2,4.37-4.96,4.18-14.21,4.68-14.82ZM49.02,91.8c-1.7-2.6-9.44-.19-11.92,1.56-8.18,5.75-4.29,13.11-6.52,16.48-.3.46-7.33,3.34-9.57,5.43-6.27,5.87-6.1,12.57-6.98,20.51,2.55.57,1.75-.68,2.59-1.87,5.82-8.27,11.35-13.84,16.85-21.18,2.65-3.54,4.34-8.77,7.58-12.42,2.11-2.38,9.68-5.9,7.97-8.51Z" fill="#acc46c"/>
      <path d="M133.02,26.79c4.64,11.2,4.08,20.7-1.82,31.68-2.06,3.84-6.96,8.3-8.26,11.74-2.35,6.28.9,10.9-3.5,17.5s-13.46,8.57-16.89,14.11c-3.24,5.23-2.09,11.07-7.5,16.5-4.34,4.35-11.16,5.21-15.09,8.91-7.55,7.11-4.45,17.19-19.69,20.31-13.15,2.7-9.46,3.11-19.89,8.11-9.46,4.54-19.75,5.97-29.38,1.12,8.92-2.06,17.02-3.72,25.03-8.47,4.71-2.79,8.5-7.87,12.04-9.96,6.19-3.66,12.71-2.59,18.45-9.55,3.13-3.8,4.16-9.75,6.44-12.56,2.67-3.29,10.12-4.33,14.47-10.53,2.65-3.77,3.68-10.47,5.98-13.02,1.98-2.19,8.09-4.31,11.06-6.94,8.25-7.3,6-11.87,9.27-19.73,2.31-5.55,11.85-11.42,15.43-21.57,2.04-5.8,2.2-11.83,3.82-17.68Z" fill="#98b457"/>
      <path d="M118.02,15.79c.54,2.58-1.25,2.05-2.73,2.72-7.03,3.16-14.02,5.98-19.79,11.26-2.58,2.36-4.67,6.19-7.12,7.88-4.44,3.07-10.5,2.94-15.83,7.17-6.71,5.33-6.38,12.15-10.5,16.5-2.87,3.03-10.25,4.08-14.57,8.43-4.76,4.8-4.63,11.12-7.42,14.58-2.53,3.13-10.82,5.22-15.04,10.96-4.34,5.91-2.81,10.71-5.23,15.77-2.34,4.9-10.97,10.16-11.54,17.46l-4.24,21.26c-5.78-10.42-4.92-20.85-.01-31.51,1.46-3.17,5.28-7.27,5.83-10.24.91-4.92-2.07-7.9.99-14.93,3.92-9,13.13-9.24,17.74-15.26,2.73-3.57,3.25-9.28,6.45-13.55,5.68-7.58,13.04-7.37,18.54-12.46,5.38-4.97,6.23-13.28,12.52-17.48,5.7-3.79,10.33-1.61,15.83-4.17,3.26-1.51,6.31-5.77,9.19-7.81,8.32-5.94,17.06-8.33,26.91-6.59Z" fill="#98b457"/>
      <path d="M132.02,21.79c-.1-.13-1.81-.16-2.56-.94-1.17-1.22-1.3-2.97-1.44-3.06,4.54-4.91-2.16-17.16,4.66-17.77,8.28-.73,5.88,19.13-.66,21.77Z" fill="#98b457"/>
      <path d="M89.14,82.9c-.5.61-.31,9.86-4.68,14.82-5.08,5.76-16.8,6.39-17.3,7.2-1.83,2.92,2.33,9.79-6.11,16.39-4.73,3.7-10.37,2.7-12.09,3.91-.38.27-2.01,6.69-3.13,8.87-4.48,8.71-13.3,12.2-22.8,11.69,4.65-4.41,9.56-7.68,14.02-12.47,2.3-2.47,3.65-5.96,5.93-8.07,2.74-2.54,7.37-4.45,10.57-7.43,4.51-4.19,6.31-9.34,9.94-13.06,4.17-4.28,10.25-6.94,14.54-12.46,2.26-2.92,3.74-7.08,6-10,8.1-10.47,19.88-21.8,28.42-32.58,3.29-4.15,5.42-9.18,8.58-13.43,1.64-1.47,1.01,2.22,1.02,3.01.05,7.89-1.83,13.91-8.1,18.91-1.62,1.29-6.97,3.8-7.43,4.57-1.95,3.32-.72,10.34-5.97,15.03-2.57,2.29-11,4.62-11.39,5.1Z" fill="#98b457"/>
      <path d="M116.02,27.8c-2.59,3.96-7.11,5.89-10.53,8.96-7.17,6.46-13.84,12.68-20.99,19.01-4.45,3.94-6.77,10.09-9.95,13.05-2.55,2.37-8.1,4.28-11.54,7.46-2.32,2.15-6.13,8.49-6.97,9.04-3.68,2.4-3.26-5.84-2.81-7.82.86-3.74,5.91-8.89,9.41-10.58,2.72-1.31,8.88-1.95,9.25-2.25.63-.52,1.35-9.71,7.1-14.4,4.84-3.94,8.31-2.38,11.04-3.96,1.26-.73,2.36-5.51,3.55-7.45,4.83-7.82,13.63-10.46,22.43-11.06Z" fill="#98b457"/>
      <path d="M49.02,91.8c1.71,2.61-5.86,6.13-7.97,8.51-3.24,3.64-4.93,8.87-7.58,12.42-5.5,7.34-11.02,12.91-16.85,21.18-.84,1.19-.03,2.45-2.59,1.87.87-7.94.71-14.64,6.98-20.51,2.23-2.09,9.26-4.98,9.57-5.43,2.23-3.37-1.66-10.73,6.52-16.48,2.49-1.74,10.22-4.15,11.92-1.56Z" fill="#98b457"/>
      <path d="M122.52,33.79c.65.33.65.67,0,1v-1Z" fill="#98b457"/>
    </g>
  </g>
</svg>