<?xml version="1.0" encoding="UTF-8"?>
<svg id="_レイヤー_2" data-name="レイヤー 2" xmlns="http://www.w3.org/2000/svg" viewBox="0 0 146.5 221.47">
  <g id="hakusai">
    <g>
      <path d="M54.09,70.01c2.62,8.6,6.91,19.66,10.55,27.95.54,1.23.96,4.01,2.43,4.05,1.03-7.24,2.91-15.06,1.93-22.41-1.22-9.1-9.41-19.42-7.91-29.58l8.5,19.98,1.47,1.01c.06-3.32-.05-6.68,0-10h3c.02.19.84.79.92,1.59.28,2.79-.44,5.84.57,8.41l9.49-18.99c.7,9.38-6.77,19.09-7.91,27.58-1.01,7.58,1.08,14.97,1.93,22.41l3.46-6.03,12.52-32.96c.13,3.69-.92,7.25-1.67,10.81-2.35,11.12-10.95,33.93-10.04,43.41.46,4.85,2.57,10.04,3.73,14.77l12.51-21.97c2.21-4.16,4.04-8.55,5.48-13.02h1c-.97,4.07-1.35,8.83-2.7,12.8-5.67,16.73-14.54,24.85-7.78,44.19.34.96.12,2.3,1.46,2,2.93-7.6,8.1-14.41,11.01-21.99h1c-2,8.35-8.94,24.82-8.99,31.49-.05,5.73,3.47,13.11,2,19.5,2.31.26,3.61-2.12,4.83-3.66l6.16-13.33c-.38,7.16-3.03,14.54-5.99,21-.42.93-4.06,4.13-4.39,6.11l-5.61,12.88c6.84.25,14.47-9.63,13-15.99,3.27-2.17,9.06-6.21,10.77-9.73,2.5-5.15.36-11.23,1.46-16.54.89-4.34,5.37-7.27,5.8-13.25.83-11.5-8.79-12.78-3.81-27.76,3.69-11.07,9.83-17.46,4.65-30.09-1.75-4.26-5.13-6.96-6.87-10.63-1.47-3.12-3.51-10.51-3.5-14l8.49,15.99c.77-8.38-1.53-16.46-2.87-24.63-.35-2.14.21-4.55-.12-6.37h1c5.35,21.29,9.42,40.86,12.98,62.57.31,1.88-1.12,4,2.02,3.43-.62,13.98,2,28.2.99,42.49-2.18,30.66-20,57.66-53.99,53.51-11.5-1.41-14.81-1.88-27-1-14.88,1.07-22.83,1.59-35.01-8.49C1.56,188.06,3.65,148.54,7.09,121.01c2.66-21.29,8.58-45.17,14-66h1c-1.84,9.42-2.64,20.9-3,30.5,1.47,1.67.8-.92,1-1.5l2,1c-4.52,11.3-7.49,15.09-4.53,28.03,1.31,5.72,6.31,13.49,6.58,18.5.44,8.14-6.7,13.09-4.98,23.9.61,3.83,4.06,6.47,4.71,10.3,1.03,6.09-2.48,9.21,1.02,15.96,2.29,4.39,9.33,8.29,11.2,11.3,1.55,2.49,1.34,7.47,3.98,10.52,1.04,1.21,9.18,6.32,10.02,5.47l-6.2-14.32c-1.83-1.52-2.77-2.48-3.79-4.67-3.35-7.15-6.68-14.96-6.99-23l5.18,11.3,5.8,6.69c.72-11.62,3.07-18.63-.27-30.22-.78-2.69-5.21-17.94-5.72-18.78h1c2.71,6.38,7.96,13.87,11.5,20,9.75-22.04-7.4-38.78-11.5-60h2c3.36,12.39,11.03,23.08,16.91,34.58.36.71.48,3.35,2.08,1.43.48-.57,2.75-13,2.88-14.62.94-11.9-8.3-34.42-10.88-47.38h2Z" fill="#e3ebc4"/>
      <path d="M140.09,121.01c-3.14.57-1.71-1.55-2.02-3.43-3.56-21.72-7.63-41.28-12.98-62.57-.74-2.95-1.25-6.03-2-9-.94-3.7-1.57-7.66-3.5-11.01-2.43.07,2.37,10.44,2.5,11.01.3,1.36-.14,3.45.23,5.27.33,1.67,1.68,3.24,1.77,3.73.33,1.82-.23,4.23.12,6.37,1.34,8.16,3.64,16.25,2.87,24.63l-8.49-15.99c0,3.48,2.03,10.88,3.5,14-15.43-8.82-3.21-23.85-5.09-37.41-.79-5.69-5.79-12.4-10.57-15.43-4.05-2.57-9.07-2.34-11.9-4.1-2.45-1.52-2.97-5.31-4.44-7.06,3.95-1.19,8.23-5.83,12-7,16.68-5.16,35.53,5.67,36.98,23.51.33,4.1-1.01,8.09-.59,11.51.55,4.55,4.72,8.21,6.39,12.7,4.83,13.01-2.48,22.1-3.65,34.91-.71,7.86-.77,17.28-1.13,25.37ZM118.08,69c.72-1.4-.63-2.67-.98-1.99-.72,1.4.63,2.67.98,1.99Z" fill="#759736"/>
      <path d="M44.09,13.01c4.44,1.28,7.72,5.59,12,6-1.72,2.04-2.38,6.28-5.45,8.05-3.18,1.83-7.77,1.51-11.89,4.11-7.98,5.04-10.34,13.41-9.69,22.38.42,5.9,3.85,11.1,2.98,16.89-.38,2.56-4.76,12.01-7.95,12.57,1.51-3.55,3.51-10.21,3.5-14-3.11,4.47-5.72,9.87-7.5,15-.2.58.46,3.16-1,1.5.37-9.6,1.17-21.08,3-30.5.17-.85,6.28-15.93,3.5-16.01-2.75,4.92-3.12,10.69-4.5,16.01-5.42,20.83-11.34,44.71-14,66-2.99-8.88-1.1-18.35-2.11-27.39-1.33-11.96-8-19.29-3.37-32.58,1.37-3.94,5.55-8.33,6.25-11.75,1.23-5.96-.68-12.64.91-19.09,3.5-14.14,22.21-20.96,35.31-17.19ZM27.08,38c.72-1.4-.63-2.67-.98-1.99-.72,1.4.63,2.67.98,1.99ZM28.59,67.01v1c.65-.33.65-.67,0-1Z" fill="#749435"/>
      <path d="M44.09,13.01c2.38-4.09,6.86-6.69,11.54-7.05,1.71-.13,3.63,1.04,4.85.83C62.56,6.41,65.81-.04,73.6,0c6.92.04,11.44,6.97,12.15,7.08,1.25.18,3.7-1.17,5.8-1.12,3.37.07,10.05,3.11,10.54,7.05-3.77,1.17-8.05,5.81-12,7-7.91-9.4-25.94-10.58-34-1-4.28-.41-7.56-4.72-12-6Z" fill="#627e30"/>
      <path d="M87.09,217.01c.15,2.23.04,3.53-2.5,4-3.63.68-19.01.51-23.05.04-1.48-.17-2.54-.15-3.44-1.56l1.99-3.48c12.19-.88,15.5-.41,27,1Z" fill="#c5d69a"/>
      <path d="M90.09,20.01c1.47,1.75,1.99,5.54,4.44,7.06,2.83,1.76,7.85,1.53,11.9,4.1,4.79,3.03,9.79,9.74,10.57,15.43,1.88,13.56-10.35,28.59,5.09,37.41,1.73,3.67,5.12,6.37,6.87,10.63,5.19,12.63-.96,19.02-4.65,30.09-4.99,14.98,4.63,16.26,3.81,27.76-.43,5.98-4.91,8.91-5.8,13.25-1.09,5.31,1.05,11.4-1.46,16.54-1.71,3.52-7.5,7.56-10.77,9.73-.28-1.22-2.17-2.06-3-3,2.95-6.46,5.61-13.84,5.99-21l-6.16,13.33c-1.22,1.54-2.52,3.92-4.83,3.66,1.47-6.39-2.04-13.77-2-19.5.05-6.68,6.99-23.14,8.99-31.49.39-1.64,4.08-5.56,1.5-9.01-.87,0-2.02,7.77-2.5,9.01-2.91,7.58-8.09,14.39-11.01,21.99-1.34.29-1.13-1.04-1.46-2-6.76-19.34,2.11-27.46,7.78-44.19,1.35-3.97,1.73-8.74,2.7-12.8.07-.3,1.56-1.43,1.96-3.52.19-1.01.4-6.49-.46-6.49-1.08,3.22-1.45,6.76-2.5,10.01-1.44,4.47-3.27,8.86-5.48,13.02l-12.51,21.97c-1.17-4.73-3.27-9.92-3.73-14.77-.91-9.48,7.69-32.28,10.04-43.41.75-3.56,1.81-7.12,1.67-10.81l-12.52,32.96-3.46,6.03c-.84-7.44-2.94-14.83-1.93-22.41,1.14-8.5,8.61-18.2,7.91-27.58l-9.49,18.99c-1.01-2.57-.29-5.62-.57-8.41-.08-.8-.91-1.39-.92-1.59-.06-.66.07-1.35,0-2-.2-1.95.14-4.03,0-6,1.08-4.43.12-3.83,0-7.52-.09-2.89.35-6.3,0-9-.19-1.46-.76-3.1-2-1.48.2,8.71-.86,17.29-1.01,25.99-.06,3.32.05,6.68,0,10l-1.47-1.01-8.5-19.98c-1.51,10.16,6.69,20.48,7.91,29.58.98,7.35-.9,15.16-1.93,22.41-1.48-.04-1.89-2.81-2.43-4.05-3.64-8.28-7.94-19.34-10.55-27.95-.83-2.73-.66-7.27-2.5-10.01-1.49,0,.22,8.6.5,10.01,2.58,12.96,11.82,35.48,10.88,47.38-.13,1.62-2.41,14.05-2.88,14.62-1.6,1.92-1.72-.72-2.08-1.43-5.88-11.49-13.55-22.19-16.91-34.58-.4-1.47-1.67-10.01-2.5-10.01-1.46,3.23-.12,6.82.5,10.01,4.1,21.22,21.25,37.95,11.5,60-3.55-6.12-8.79-13.62-11.5-20-1.21-2.85-1.22-8.18-3.5-11.01-.5,2.43-.11,8.12.51,10.32.31,1.13,1.94.6,1.99.69.51.85,4.94,16.09,5.72,18.78,3.35,11.58.99,18.6.27,30.22l-5.8-6.69-5.18-11.3c.31,8.04,3.64,15.85,6.99,23-.76,1.73-2.03,2.93-4,3-1.87-3.02-8.91-6.91-11.2-11.3-3.51-6.75,0-9.87-1.02-15.96-.65-3.83-4.1-6.47-4.71-10.3-1.73-10.81,5.41-15.76,4.98-23.9-.27-5.01-5.27-12.78-6.58-18.5-2.96-12.94.02-16.74,4.53-28.03.06-.14,1.48-.77,2-2,3.19-.56,7.56-10.01,7.95-12.57.87-5.8-2.55-10.99-2.98-16.89-.64-8.97,1.72-17.34,9.69-22.38,4.11-2.6,8.7-2.29,11.89-4.11,3.08-1.77,3.74-6.01,5.45-8.05,8.06-9.58,26.09-8.4,34,1ZM86.08,51c.5-4.16-1.48-4.16-.98,0h.98Z" fill="#94ba52"/>
      <path d="M110.09,192.01c1.47,6.37-6.15,16.25-13,15.99l5.61-12.88c.33-1.98,3.96-5.19,4.39-6.11.83.94,2.72,1.78,3,3Z" fill="#a9c56e"/>
      <path d="M40.09,190.01c1.02,2.19,1.96,3.15,3.79,4.67l6.2,14.32c-.83.84-8.98-4.26-10.02-5.47-2.63-3.06-2.43-8.03-3.98-10.52,1.97-.07,3.24-1.27,4-3Z" fill="#a9c56e"/>
      <path d="M71.09,61.01c.14-8.71,1.21-17.28,1.01-25.99,1.23-1.63,1.81.02,2,1.48.35,2.71-.09,6.11,0,9,.11,3.69,1.07,3.09,0,7.52-.35,1.43-2.6,4.26,0,6,.07.65-.06,1.34,0,2h-3Z" fill="#c5d69a"/>
      <path d="M24.09,83.01c-.52,1.23-1.94,1.86-2,2l-2-1c1.78-5.13,4.4-10.52,7.5-15,0,3.79-2,10.44-3.5,14Z" fill="#c5d69a"/>
      <path d="M22.09,55.01h-1c1.38-5.32,1.75-11.09,4.5-16.01,2.78.08-3.33,15.16-3.5,16.01Z" fill="#b0ca7f"/>
      <path d="M39.09,136.01h-1c-.05-.09-1.68.44-1.99-.69-.61-2.2-1-7.9-.51-10.32,2.28,2.83,2.29,8.16,3.5,11.01Z" fill="#c5d69a"/>
      <path d="M54.09,70.01h-2c-.28-1.41-1.99-10-.5-10.01,1.84,2.74,1.67,7.28,2.5,10.01Z" fill="#c5d69a"/>
      <path d="M41.09,96.01h-2c-.62-3.19-1.96-6.78-.5-10.01.83,0,2.1,8.54,2.5,10.01Z" fill="#c5d69a"/>
      <path d="M125.09,55.01h-1c-.09-.49-1.44-2.06-1.77-3.73-.36-1.82.07-3.91-.23-5.27h1c.75,2.97,1.26,6.05,2,9Z" fill="#c5d69a"/>
      <path d="M106.09,97.01h-1c1.05-3.25,1.42-6.79,2.5-10.01.86,0,.65,5.48.46,6.49-.4,2.09-1.88,3.22-1.96,3.52Z" fill="#c5d69a"/>
      <path d="M109.09,134.01h-1c.48-1.24,1.63-9.01,2.5-9.01,2.58,3.45-1.11,7.37-1.5,9.01Z" fill="#c5d69a"/>
      <path d="M123.09,46.01h-1c-.13-.57-4.93-10.94-2.5-11.01,1.93,3.35,2.56,7.31,3.5,11.01Z" fill="#a9c56e"/>
      <path d="M118.08,69c-.35.68-1.7-.59-.98-1.99.35-.68,1.7.59.98,1.99Z" fill="#e3ebc4"/>
      <path d="M27.08,38c-.35.68-1.7-.59-.98-1.99.35-.68,1.7.59.98,1.99Z" fill="#b0ca7f"/>
      <path d="M28.59,67.01c.65.33.65.67,0,1v-1Z" fill="#c5d69a"/>
      <path d="M74.09,59.01c-2.6-1.74-.35-4.57,0-6,.14,1.97-.2,4.05,0,6Z" fill="#e3ebc4"/>
      <path d="M86.08,51h-.98c-.5-4.16,1.48-4.16.98,0Z" fill="#e3ebc4"/>
    </g>
  </g>
</svg>