<?xml version="1.0" encoding="UTF-8"?>
<svg id="_レイヤー_2" data-name="レイヤー 2" xmlns="http://www.w3.org/2000/svg" viewBox="0 0 193.88 217.83">
  <g id="hourensou">
    <g>
      <path d="M125.02,39.89c2.69,8.64,2.33,19.29,5,28-1.52,3.75-5.21,9.19-3,13-1,1.9-1.13,1.7-2,3-1.69,2.51-4.41,4.91-6,8-7.15,2.03-12.5,3.21-20,2-.2-17.34-.82-34.65-1-52-.06-5.39.65-12.45,0-17.52-.19-1.46-.76-3.1-2-1.48-.04,7.32.04,14.68,0,21.99-.07,11.49.3,23.05.04,34.54-.11,4.81-1.86,9.11-.04,14.46-.32-.02-.68-.02-1,0-7.69.39-12.25,2.07-20-2-3.04-7.08-6.81-14.64-10-22,1.6-6.6,1.09-13.48,2.27-20.23.57-3.27,1.78-6.59,2.73-9.77,4.46-15.08,13.7-31.44,27.35-39.89,8.7,6.53,16.12,16.18,21.17,25.86,1.66,3.19,5.53,10.98,6.48,14.02ZM97.52,19.89v1c.65-.33.65-.67,0-1Z" fill="#556d2e"/>
      <path d="M37.02,63.89c6.78,3.14,12.83,7.31,18.92,11.58l13.08,12.42c1.59,4.14,4.29,8.38,6,13-2.31,3-.35,8.33-1,12-.76,4.29-6.28,9.84-10,12-.12-.16-2.33-.37-3.54-1.93-9.48-12.29-18.99-22.73-29.46-34.07-3.77-4.09-6.26-9.31-11.51-11.98,1.47,5.04,7.23,9.07,10.51,12.98,7.82,9.33,23.41,26.92,28.73,36.81.54,1,.07,2.86.27,3.19-7.03,6.75-13.64,8.26-23,5.5C11.38,128.12-6.33,80.46,2.15,57.02c12.41-1.25,23.73,1.72,34.87,6.87ZM16.51,72.91l-.47.47,2.49,2.49.47-.47-2.49-2.49Z" fill="#5e7830"/>
      <path d="M135.02,128.89c.15-.2-.03-2.09.97-3.48,9.21-12.69,20.42-24.24,28.54-37.5-11.52,10.09-21.49,22.88-30.97,35.05-1.21,1.56-3.42,1.77-3.54,1.93-4.84-1.61-7.95-7.33-9-12-4.94-21.97,18.47-40.71,36-49,6.34-3,13.76-5.92,20.78-6.72,4.6-.52,13.84-2.16,15.01,3.44,4.84,23.17-7.06,54.32-25.26,69.31-10.35,8.52-23.72,10.7-32.52-1.02ZM174.53,75.91l-1.49,1.49c-.02,1.05,2.5-.59,1.49-1.49ZM172.53,78.91c-2.22,2.11-5.95,3.31-6.02,6.96,2.68-1.57,5.34-3.71,6.02-6.96Z" fill="#5e7830"/>
      <path d="M157.02,63.89c-17.53,8.29-40.94,27.03-36,49l-6-1c3.21-9.41,7.21-18.46,10-28,.87-1.3,1-1.1,2-3,5.19-9.85,8.64-22.13,13.01-32.49-1.05-1.6-1.18.75-1.53,1.46-2.96,5.94-5.99,11.88-8.49,18.03-2.67-8.71-2.31-19.36-5-28,4.04-1.86,19.57-10.74,23-8.56,4.74,3,9.02,26.57,9,32.56Z" fill="#495c2b"/>
      <path d="M70.02,39.89c-.94,3.18-2.15,6.5-2.73,9.77-1.18,6.74-.68,13.63-2.27,20.23-1.38-3.18-3.71-6.23-5-9s-1.68-8.89-4.99-11c.56,3.77,2.66,7.47,3.99,11,3.38,8.96,6.57,18.06,10,27l-13.08-12.42c-6.08-4.27-12.13-8.45-18.92-11.58.25-6.16,3.99-29.43,8.99-32.52,4.5-2.79,19.26,6.5,24.01,8.52ZM54.52,47.89v1c.65-.33.65-.67,0-1Z" fill="#495c2b"/>
      <path d="M99.02,94.89c.02,2-.02,4,0,6,.16,14.82-.17,29.68-.02,44.51.02,1.69-.64,4.45,1.02,5.49-.88,6.9-2.23,14.45,1,21-.44,4.37-.75,9.16-1.05,13.56-.06.83-.04,2.43,1.05,2.44-.78,3.83-2.45,7.33,3,7-1.23,7.31-1.79,14.75-2.58,22.11-1.75,1.15-8.44,1.15-9.28-.25-.79-1.31-.74-12.3-1.14-14.86,6.05-3.36,1.98-10.99,1-16,1.57-.83,1.01-3.4,1-5,3.02.56,1.94-1.53,2-3.45.27-8.2.01-16.43-1-24.55,1.66-1.04,1-3.79,1.02-5.49.2-15.95-.58-31.89-1.02-47.51-.05-1.63,1.48-4.01,1-6,.32-.02.68-.02,1,0,.67.05,1.99,1.1,3,1Z" fill="#b0ca7f"/>
      <path d="M64.02,124.89c10.9,15.01,24.39,42.62,28,61,.98,5.01,5.05,12.64-1,16-3.81-24.71-13.89-50.57-28.99-70.55-.98-1.3-2.92-1.31-3.01-1.45-.2-.33.27-2.18-.27-3.19-5.32-9.89-20.91-27.48-28.73-36.81l1-1c10.46,11.34,19.98,21.78,29.46,34.07,1.21,1.57,3.42,1.77,3.54,1.93Z" fill="#a9c56e"/>
      <path d="M135.02,128.89c-16.24,22.17-26.51,39.27-31,66-5.45.33-3.78-3.17-3-7,3.86-19.01,17.42-47.8,29-63,.12-.16,2.33-.38,3.54-1.93,9.48-12.16,19.45-24.96,30.97-35.05-8.11,13.26-19.33,24.81-28.54,37.5-1.01,1.39-.82,3.28-.97,3.48Z" fill="#a9c56e"/>
      <path d="M65.02,69.89c3.19,7.36,6.96,14.92,10,22,2.67,6.21,5.35,11.75,8,17,3.42,6.77,9.94,35.54,11,44,1.01,8.11,1.27,16.35,1,24.55-.06,1.92,1.02,4.01-2,3.45-.14-24.33-7.26-46.67-15-69-1.13-3.25-1.73-7.55-3-11-1.71-4.62-4.41-8.86-6-13-3.43-8.94-6.62-18.04-10-27h1c1.29,2.77,3.62,5.82,5,9Z" fill="#94ba52"/>
      <path d="M115.02,111.89c-6.67,19.56-11.92,39.31-14,60-3.23-6.55-1.88-14.1-1-21,1.7-13.36,6.16-29.59,11-42,1.33-3.41,6.05-13.22,8-17,1.59-3.09,4.31-5.49,6-8-2.79,9.54-6.79,18.59-10,28Z" fill="#94ba52"/>
      <path d="M119.02,91.89c-1.95,3.78-6.67,13.59-8,17-5.6.25-7.83-5.51-12-8-.02-2,.02-4,0-6,0-.33,0-.67,0-1,7.5,1.21,12.85.03,20-2Z" fill="#495c2b"/>
      <path d="M95.02,93.89c.48,1.99-1.05,4.37-1,6-2.55,3.99-6.04,7.95-11,9-2.65-5.25-5.33-10.79-8-17,7.75,4.07,12.31,2.39,20,2Z" fill="#495c2b"/>
      <path d="M99.02,93.89c0,.33,0,.67,0,1-1.01.1-2.33-.95-3-1-1.82-5.35-.07-9.65.04-14.46.26-11.49-.11-23.05-.04-34.54l2-3c.18,17.35.8,34.66,1,52Z" fill="#a9c56e"/>
      <path d="M127.02,80.89c-2.21-3.81,1.48-9.25,3-13,2.49-6.15,5.52-12.09,8.49-18.03.35-.7.48-3.05,1.53-1.46-4.38,10.36-7.83,22.64-13.01,32.49Z" fill="#89ac47"/>
      <path d="M96.02,44.89c.05-7.32-.04-14.68,0-21.99,1.23-1.62,1.81.02,2,1.48.65,5.07-.06,12.13,0,17.52l-2,3Z" fill="#89ac47"/>
      <path d="M97.52,19.89c.65.33.65.67,0,1v-1Z" fill="#89ac47"/>
      <path d="M78.02,111.89l-4,1c.65-3.67-1.31-9,1-12,1.27,3.45,1.87,7.75,3,11Z" fill="#495c2b"/>
      <path d="M31.02,88.89l-1,1c-3.28-3.91-9.04-7.94-10.51-12.98,5.25,2.67,7.74,7.89,11.51,11.98Z" fill="#89ac47"/>
      <rect x="17.18" y="72.62" width=".66" height="3.52" transform="translate(-47.47 34.17) rotate(-45)" fill="#89ac47"/>
      <path d="M172.53,78.91c-.68,3.25-3.34,5.39-6.02,6.96.07-3.65,3.8-4.85,6.02-6.96Z" fill="#a9c56e"/>
      <path d="M174.53,75.91c1.01.9-1.51,2.54-1.49,1.49l1.49-1.49Z" fill="#a9c56e"/>
      <path d="M60.02,60.89h-1c-1.33-3.53-3.43-7.23-3.99-11,3.31,2.11,3.69,8.19,4.99,11Z" fill="#749435"/>
      <path d="M54.52,47.89c.65.33.65.67,0,1v-1Z" fill="#749435"/>
      <path d="M125.02,39.89c2.69,8.64,2.33,19.29,5,28-1.52,3.75-5.21,9.19-3,13-1,1.9-1.13,1.7-2,3-1.69,2.51-4.41,4.91-6,8-7.15,2.03-12.5,3.21-20,2-.2-17.34-.82-34.65-1-52-.06-5.39.65-12.45,0-17.52-.19-1.46-.76-3.1-2-1.48-.04,7.32.04,14.68,0,21.99-.07,11.49.3,23.05.04,34.54-.11,4.81-1.86,9.11-.04,14.46-.32-.02-.68-.02-1,0-7.69.39-12.25,2.07-20-2-3.04-7.08-6.81-14.64-10-22,1.6-6.6,1.09-13.48,2.27-20.23.57-3.27,1.78-6.59,2.73-9.77,4.46-15.08,13.7-31.44,27.35-39.89,8.7,6.53,16.12,16.18,21.17,25.86,1.66,3.19,5.53,10.98,6.48,14.02ZM97.52,19.89v1c.65-.33.65-.67,0-1Z" fill="#556d2e"/>
      <path d="M37.02,63.89c6.78,3.14,12.83,7.31,18.92,11.58l13.08,12.42c1.59,4.14,4.29,8.38,6,13-2.31,3-.35,8.33-1,12-.76,4.29-6.28,9.84-10,12-.12-.16-2.33-.37-3.54-1.93-9.48-12.29-18.99-22.73-29.46-34.07-3.77-4.09-6.26-9.31-11.51-11.98,1.47,5.04,7.23,9.07,10.51,12.98,7.82,9.33,23.41,26.92,28.73,36.81.54,1,.07,2.86.27,3.19-7.03,6.75-13.64,8.26-23,5.5C11.38,128.12-6.33,80.46,2.15,57.02c12.41-1.25,23.73,1.72,34.87,6.87ZM16.51,72.91l-.47.47,2.49,2.49.47-.47-2.49-2.49Z" fill="#5e7830"/>
      <path d="M135.02,128.89c.15-.2-.03-2.09.97-3.48,9.21-12.69,20.42-24.24,28.54-37.5-11.52,10.09-21.49,22.88-30.97,35.05-1.21,1.56-3.42,1.77-3.54,1.93-4.84-1.61-7.95-7.33-9-12-4.94-21.97,18.47-40.71,36-49,6.34-3,13.76-5.92,20.78-6.72,4.6-.52,13.84-2.16,15.01,3.44,4.84,23.17-7.06,54.32-25.26,69.31-10.35,8.52-23.72,10.7-32.52-1.02ZM174.53,75.91l-1.49,1.49c-.02,1.05,2.5-.59,1.49-1.49ZM172.53,78.91c-2.22,2.11-5.95,3.31-6.02,6.96,2.68-1.57,5.34-3.71,6.02-6.96Z" fill="#5e7830"/>
      <path d="M157.02,63.89c-17.53,8.29-40.94,27.03-36,49l-6-1c3.21-9.41,7.21-18.46,10-28,.87-1.3,1-1.1,2-3,5.19-9.85,8.64-22.13,13.01-32.49-1.05-1.6-1.18.75-1.53,1.46-2.96,5.94-5.99,11.88-8.49,18.03-2.67-8.71-2.31-19.36-5-28,4.04-1.86,19.57-10.74,23-8.56,4.74,3,9.02,26.57,9,32.56Z" fill="#495c2b"/>
      <path d="M70.02,39.89c-.94,3.18-2.15,6.5-2.73,9.77-1.18,6.74-.68,13.63-2.27,20.23-1.38-3.18-3.71-6.23-5-9s-1.68-8.89-4.99-11c.56,3.77,2.66,7.47,3.99,11,3.38,8.96,6.57,18.06,10,27l-13.08-12.42c-6.08-4.27-12.13-8.45-18.92-11.58.25-6.16,3.99-29.43,8.99-32.52,4.5-2.79,19.26,6.5,24.01,8.52ZM54.52,47.89v1c.65-.33.65-.67,0-1Z" fill="#495c2b"/>
      <path d="M99.02,94.89c.02,2-.02,4,0,6,.16,14.82-.17,29.68-.02,44.51.02,1.69-.64,4.45,1.02,5.49-.88,6.9-2.23,14.45,1,21-.44,4.37-.75,9.16-1.05,13.56-.06.83-.04,2.43,1.05,2.44-.78,3.83-2.45,7.33,3,7-1.23,7.31-1.79,14.75-2.58,22.11-1.75,1.15-8.44,1.15-9.28-.25-.79-1.31-.74-12.3-1.14-14.86,6.05-3.36,1.98-10.99,1-16,1.57-.83,1.01-3.4,1-5,3.02.56,1.94-1.53,2-3.45.27-8.2.01-16.43-1-24.55,1.66-1.04,1-3.79,1.02-5.49.2-15.95-.58-31.89-1.02-47.51-.05-1.63,1.48-4.01,1-6,.32-.02.68-.02,1,0,.67.05,1.99,1.1,3,1Z" fill="#b0ca7f"/>
      <path d="M64.02,124.89c10.9,15.01,24.39,42.62,28,61,.98,5.01,5.05,12.64-1,16-3.81-24.71-13.89-50.57-28.99-70.55-.98-1.3-2.92-1.31-3.01-1.45-.2-.33.27-2.18-.27-3.19-5.32-9.89-20.91-27.48-28.73-36.81l1-1c10.46,11.34,19.98,21.78,29.46,34.07,1.21,1.57,3.42,1.77,3.54,1.93Z" fill="#a9c56e"/>
      <path d="M135.02,128.89c-16.24,22.17-26.51,39.27-31,66-5.45.33-3.78-3.17-3-7,3.86-19.01,17.42-47.8,29-63,.12-.16,2.33-.38,3.54-1.93,9.48-12.16,19.45-24.96,30.97-35.05-8.11,13.26-19.33,24.81-28.54,37.5-1.01,1.39-.82,3.28-.97,3.48Z" fill="#a9c56e"/>
      <path d="M65.02,69.89c3.19,7.36,6.96,14.92,10,22,2.67,6.21,5.35,11.75,8,17,3.42,6.77,9.94,35.54,11,44,1.01,8.11,1.27,16.35,1,24.55-.06,1.92,1.02,4.01-2,3.45-.14-24.33-7.26-46.67-15-69-1.13-3.25-1.73-7.55-3-11-1.71-4.62-4.41-8.86-6-13-3.43-8.94-6.62-18.04-10-27h1c1.29,2.77,3.62,5.82,5,9Z" fill="#94ba52"/>
      <path d="M115.02,111.89c-6.67,19.56-11.92,39.31-14,60-3.23-6.55-1.88-14.1-1-21,1.7-13.36,6.16-29.59,11-42,1.33-3.41,6.05-13.22,8-17,1.59-3.09,4.31-5.49,6-8-2.79,9.54-6.79,18.59-10,28Z" fill="#94ba52"/>
      <path d="M119.02,91.89c-1.95,3.78-6.67,13.59-8,17-5.6.25-7.83-5.51-12-8-.02-2,.02-4,0-6,0-.33,0-.67,0-1,7.5,1.21,12.85.03,20-2Z" fill="#495c2b"/>
      <path d="M95.02,93.89c.48,1.99-1.05,4.37-1,6-2.55,3.99-6.04,7.95-11,9-2.65-5.25-5.33-10.79-8-17,7.75,4.07,12.31,2.39,20,2Z" fill="#495c2b"/>
      <path d="M99.02,93.89c0,.33,0,.67,0,1-1.01.1-2.33-.95-3-1-1.82-5.35-.07-9.65.04-14.46.26-11.49-.11-23.05-.04-34.54l2-3c.18,17.35.8,34.66,1,52Z" fill="#a9c56e"/>
      <path d="M127.02,80.89c-2.21-3.81,1.48-9.25,3-13,2.49-6.15,5.52-12.09,8.49-18.03.35-.7.48-3.05,1.53-1.46-4.38,10.36-7.83,22.64-13.01,32.49Z" fill="#89ac47"/>
      <path d="M96.02,44.89c.05-7.32-.04-14.68,0-21.99,1.23-1.62,1.81.02,2,1.48.65,5.07-.06,12.13,0,17.52l-2,3Z" fill="#89ac47"/>
      <path d="M78.02,111.89l-4,1c.65-3.67-1.31-9,1-12,1.27,3.45,1.87,7.75,3,11Z" fill="#495c2b"/>
      <path d="M31.02,88.89l-1,1c-3.28-3.91-9.04-7.94-10.51-12.98,5.25,2.67,7.74,7.89,11.51,11.98Z" fill="#89ac47"/>
      <rect x="17.18" y="72.62" width=".66" height="3.52" transform="translate(-47.47 34.17) rotate(-45)" fill="#89ac47"/>
      <path d="M60.02,60.89h-1c-1.33-3.53-3.43-7.23-3.99-11,3.31,2.11,3.69,8.19,4.99,11Z" fill="#749435"/>
      <path d="M54.52,47.89c.65.33.65.67,0,1v-1Z" fill="#749435"/>
    </g>
  </g>
</svg>