<?xml version="1.0" encoding="UTF-8"?>
<svg id="_レイヤー_2" data-name="レイヤー 2" xmlns="http://www.w3.org/2000/svg" viewBox="0 0 196.68 207.91">
  <g id="leaf_lettuce" data-name="leaf lettuce">
    <g>
      <path d="M96.23,46.94c-7.4,1.2-14.52,9.46-15.76,16.73-.76,4.43,1.33,11.64.66,13.62-.93,2.74-13.2,2.19-12.9,11.65-8.49.15-8.95-13.73-19-12,.85,5.75-3.23,8.58-3.08,14.51.29,11.16,12.34,15.73,14.62,23.46,2.88,9.73-3.52,18.38,1.91,30.09,3.2,6.89,5.74,5.87,7.55,14.95-2.14.47-2.17-1.15-3-2.45-12.91-20.3-22.98-40.55-37-60.55-2.1-3-3.3-6.71-6.51-8.98-.18,4.04,3.87,7.23,5.51,9.98,14.45,24.29,26.71,59.51,43,80,.77.97,1.27,3.29,2,4-2.38-.76-5.84,2.89-6,5-8.07-2.86-16.98-6.95-19.53-15.97-.91-3.21-.06-6.99-2.02-9.98-1.65-2.5-6.98-4-9.48-6.52-7.15-7.2-1.22-12.07-4.08-16.92-3.6-6.12-19.46-1.9-18.96-13.1.18-4.04,4.16-6.17,2.42-10.25-1.37-3.22-11.56-4.95-12.92-11.27-1.05-4.88,3.76-6.85,3.58-10.41-.16-3.25-5.58-7.18-6.59-11.52-3.03-13.04,4.52-24.56,18.57-21.07,11.12,2.76,10.92,11.95,14,13.56,2.48,1.3,8.59-2.94,12-1.57-.58-4.79-3.28-9.25-1.79-14.29,1.14-3.87,8.22-5.47,9.29-7.7,2.45-5.06-2.39-18.14,9.06-19.95,10.79-1.71,10.38,6.69,14.15,7.8,2.3.68,5.93-.93,8.78-.94,6.09-.04,11.07,3.85,11.51,10.09Z" fill="#749435"/>
      <path d="M19.23,59.94c-.69-4.98-2.91-7.7-1.53-13.03,1.86-7.15,9.51-6.83,11.03-9.96,2.33-4.82-2.24-13.45,5.53-18.47,11.36-7.33,14.33,8.31,24.35,5.52.54-.15,1.98-6.76,6.24-8.93,6.7-3.43,11.63,1.48,13.76.82,1.48-.46,2.61-5.48,3.78-7.29,9.51-14.85,31.5-9.24,34.85,7.34.68.51,9.88-4.93,16.35.13,3.9,3.05,2.35,10.68,9.92,8.72,4.45-1.15,9.4-13.83,19.68-5.31,7.12,5.9,1.63,13.79,3.51,17.47,1.51,2.96,9.73,2.29,11.86,9.15,1.5,4.83-.26,8.22-1.33,12.84-1.96.47-9.15,6.05-10.54,7.96s-2.42,6.48-4.11,6.97c-1.38.4-7.65-3.03-12.35-1.92,1.68-5.08,4.38-8.27,2.55-14.06-1.56-4.92-8.64-5.02-10.05-7.94-2.45-5.07,2.9-15.71-5.75-19.24-10.65-4.35-12.94,5.78-17.47,7.08-2.55.73-5.16-.92-7.78-.93-5.98-.03-10.24,4.48-11.49,10.09-.98-.14-3.04-.15-4,0-.44-6.24-5.42-10.12-11.51-10.09-2.85.02-6.49,1.62-8.78.94-3.77-1.12-3.35-9.51-14.15-7.8-11.45,1.81-6.6,14.89-9.06,19.95-1.08,2.23-8.15,3.82-9.29,7.7-1.49,5.04,1.21,9.5,1.79,14.29-3.41-1.37-9.52,2.86-12,1.57-3.08-1.61-2.88-10.8-14-13.56Z" fill="#495c2b"/>
      <path d="M177.23,58.94c14.9-3.6,23.25,12.38,17.74,25.24-1.26,2.95-5.47,6.18-5.78,8.31-.63,4.29,5.47,5.84,2.37,13.21-1.19,2.84-11.25,5.89-12.17,8.94-1.24,4.09,2.36,5.51,2.83,8.87,1.5,10.83-14.59,8.11-18.46,13.44-3.86,5.33,2.44,11.04-5.51,18.5-2.18,2.04-6.6,3.73-8.06,5.94-1.79,2.71-1.58,7.05-2.75,10.25-4.68,12.83-24.68,19.2-37.21,18.29,2.26-1.94,4.72-2.58,7.02-4.48,3.15-2.58,4.08-5.28,5.98-7.52,15.44-18.3,27.89-51.4,40-74,1.76-3.28,3.99-5.59,6-10l4.98-7.51c-3.46.42-3.96,4.2-4.98,6.51-3.95,1.86-5.19,7.31-7,10-12.39,18.42-24,37.73-35,57-2.6-10.77,8.76-13.79,9.92-23.6.86-7.31-3.88-14.3-1.47-22.45,1.8-6.09,12.71-10.84,14.31-18.68,1.76-8.58-4.3-11.55-3.77-19.27.89-.59,1.95-3.52,4-4,4.7-1.1,10.96,2.32,12.35,1.92,1.7-.48,2.71-5.05,4.11-6.97s8.59-7.48,10.54-7.96Z" fill="#5a373c"/>
      <path d="M75.23,174.94c.34.51,8.24,5.61,10,7,1.47,1.16,6.04,5.82,6.51,5.99,2.09.74,1.36-1.9,1.49-1.99.36-.27,8.28-.22,9,0,.68.2.81,2.27,1.49,2,.85-.34,4.64-4.67,6.51-6,2.7-1.93,6.28-2.98,9-6l4,2c-1.89,2.24-2.83,4.95-5.98,7.52-2.31,1.89-4.76,2.53-7.02,4.48-3.88,3.34.06,4.76.02,9.53-.09,11.02-25.19,12.13-24.09-2.02.2-2.57,2.15-4.59,2.14-5.96-.01-.96-1.96-.42-2.07-.55-.12-.14.18-1.3-.71-2.01-2.62-2.08-9.42-5.17-11.29-6.99-.73-.71-1.23-3.03-2-4,3.24.29,3.29.24,3-3Z" fill="#b0ca7f"/>
      <path d="M74.23,181.94c1.87,1.83,8.67,4.91,11.29,6.99.89.71.59,1.86.71,2.01-6.76-.85-11.69-1.77-18-4,.16-2.11,3.62-5.76,6-5Z" fill="#89ac47"/>
      <path d="M100.23,46.94c8.25,1.18,15.27,10.51,16,18.5.31,3.4-1.47,9.58-.54,11.49,1.31,2.71,9.56,3.68,11.54,7.01,4.72,7.94-9.04,18.81-9.05,25.5-.01,4.98,6.52,7.75,7.04,13.1.66,6.73-7.76,13.77-7.88,18.88-.06,2.83,2.62,5.97,3.38,8.53,3.86,12.98-4.65,21.49-10.49,32-1.86,1.33-5.65,5.66-6.51,6-.68.27-.82-1.8-1.49-2,.56-1.79,1.05-3.4.93-5.34-1.64-26.38-4.48-54.36-4.93-80.66-.08-4.39,1.23-10.88,1-16.51-.05-1.35.83-4.16-1.49-3.5-1,.29-.41,17.39-.51,20.01-1.05,28.71-2.42,57.3-4,86-.13.1.6,2.73-1.49,1.99-.48-.17-5.05-4.83-6.51-5.99-5.24-9.54-11.85-16.58-9.94-28.44.47-2.95,2.95-5.53,3.51-8.51,1.72-8.99-7.89-14.16-6.64-23.6.59-4.44,6.07-7.04,6.13-10.9.13-7.62-9.86-15.01-10.07-21.54-.3-9.45,11.97-8.9,12.9-11.65.67-1.97-1.42-9.19-.66-13.62,1.24-7.28,8.36-15.54,15.76-16.73.96-.15,3.02-.14,4,0Z" fill="#5a373c"/>
      <path d="M70.23,159.94c-1.81-9.09-4.35-8.06-7.55-14.95-5.43-11.71.97-20.36-1.91-30.09-2.29-7.72-14.34-12.29-14.62-23.46-.15-5.93,3.93-8.76,3.08-14.51,10.04-1.72,10.51,12.16,19,12,.2,6.53,10.2,13.93,10.07,21.54-.06,3.87-5.54,6.46-6.13,10.9-1.25,9.43,8.35,14.61,6.64,23.6-.57,2.98-3.04,5.57-3.51,8.51-1.91,11.87,4.7,18.91,9.94,28.44-1.76-1.39-9.66-6.49-10-7-2.46-3.73-4.12-10.58-5-15Z" fill="#89ac47"/>
      <path d="M30.23,96.94c14.02,20,24.09,40.25,37,60.55.83,1.3.85,2.92,3,2.45.88,4.42,2.54,11.27,5,15,.29,3.24.24,3.29-3,3-16.29-20.49-28.55-55.71-43-80l1-1Z" fill="#a9c56e"/>
      <path d="M30.23,96.94l-1,1c-1.64-2.75-5.69-5.94-5.51-9.98,3.21,2.27,4.41,5.98,6.51,8.98Z" fill="#94ba52"/>
      <path d="M150.23,71.94c-2.05.48-3.11,3.41-4,4-1.28.85-7.13,4.66-8.28,5.22-2.77,1.35-7.58,2.07-10.72,2.78-1.98-3.33-10.23-4.3-11.54-7.01-.93-1.91.86-8.09.54-11.49-.73-7.98-7.75-17.32-16-18.5,1.25-5.61,5.52-10.12,11.49-10.09,2.62.01,5.23,1.67,7.78.93,4.54-1.3,6.82-11.43,17.47-7.08,8.65,3.53,3.3,14.17,5.75,19.24,1.41,2.92,8.5,3.02,10.05,7.94,1.83,5.79-.87,8.98-2.55,14.06Z" fill="#749435"/>
      <path d="M146.23,75.94c-.53,7.72,5.52,10.69,3.77,19.27-1.6,7.84-12.51,12.6-14.31,18.68-2.42,8.15,2.33,15.14,1.47,22.45-1.16,9.81-12.52,12.83-9.92,23.6-2.71,4.74-3.44,10.93-8,16-2.72,3.02-6.3,4.07-9,6,5.84-10.5,14.35-19.02,10.49-32-.76-2.55-3.45-5.69-3.38-8.53.12-5.11,8.54-12.16,7.88-18.88-.52-5.34-7.05-8.12-7.04-13.1.02-6.69,13.78-17.56,9.05-25.5,3.14-.71,7.95-1.43,10.72-2.78,1.15-.56,7-4.37,8.28-5.22Z" fill="#759736"/>
      <path d="M163.23,103.94c-12.11,22.6-24.56,55.7-40,74l-4-2c4.56-5.07,5.29-11.26,8-16,11-19.27,22.61-38.58,35-57l1,1Z" fill="#a9c56e"/>
      <path d="M169.23,93.94c-2.01,4.41-4.24,6.72-6,10l-1-1c1.81-2.69,3.05-8.14,7-10-.12.28.13.72,0,1Z" fill="#89ac47"/>
      <path d="M169.23,93.94c.13-.28-.12-.72,0-1,1.02-2.31,1.52-6.09,4.98-6.51l-4.98,7.51Z" fill="#749435"/>
      <path d="M102.23,185.94c-.72-.22-8.64-.27-9,0,1.58-28.7,2.95-57.29,4-86h1c.45,26.3,3.29,54.28,4.93,80.66.12,1.94-.37,3.55-.93,5.34Z" fill="#a9c56e"/>
      <path d="M97.23,99.94c.1-2.62-.49-19.72.51-20.01,2.32-.67,1.44,2.15,1.49,3.5.23,5.63-1.08,12.11-1,16.51h-1Z" fill="#89ac47"/>
    </g>
  </g>
</svg>