<?xml version="1.0" encoding="UTF-8"?>
<svg id="_レイヤー_2" data-name="レイヤー 2" xmlns="http://www.w3.org/2000/svg" viewBox="0 0 153.32 162.42">
  <g id="nasu">
    <g>
      <path d="M99.25,34.31c4.19,1.11,14.84.08,18.99-2,.15,3.4-.33,6.87.25,10.26.21,1.21,3.32,8.34,3.78,8.73,1.82,1.53,2.98-3.35,3.97-4.5,1.99-2.3,4.42-4.31,6.57-6.45,2.13-.47,2.59,2.95,3.43,3.96-.59,6.98-4.1,14.98-7.14,21.36-19.03,39.99-69.44,97.79-118.18,70.46l-9.68-9.82c-.06-.99-.02-2.01,0-3,0-.09.9.11.97-1.48.13-2.82.81-7.3-.97-9.52,5.86-34.23,36.65-29.34,61.04-41.46,15.03-7.46,28.69-22.12,36.96-36.54Z" fill="#663d6f"/>
      <path d="M141.25,49.31c.96.82,4.36,3.73,5,4-3.38,20.68-14.22,40.37-26.19,57.31-19.29,27.33-55.36,62.96-92.07,48.45-11.77-4.65-25.96-19.7-26.74-32.76l9.68,9.82c48.74,27.32,99.15-30.48,118.18-70.46,3.04-6.38,6.55-14.37,7.14-21.36,1.48,1.78,3.22,3.49,5,5Z" fill="#583661"/>
      <path d="M139.25,21.31c.63,2.19,1.77,4.16,2.03,6.47.75,6.71-.6,14.66-.03,21.53-1.78-1.51-3.52-3.22-5-5-.84-1.01-1.3-4.43-3.43-3.96-2.16,2.15-4.58,4.16-6.57,6.45-.99,1.14-2.16,6.03-3.97,4.5-.46-.39-3.57-7.53-3.78-8.73-.58-3.39-.1-6.86-.25-10.26-4.15,2.08-14.8,3.11-18.99,2-.95-.25-7.83-5.25-6-7,9.9,1.64,13.72-8.81,21.98-11.52s13.58,3.39,15.79-7.22c1.07-5.12-1.67-10.62,7.28-7.81s.88,13.67.09,18.35c-.28,1.65.75,1.83.86,2.19Z" fill="#7ba646"/>
      <path d="M139.25,21.31c4.76,1.33,8.43,7.38,9.72,11.78,1.39,4.76.63,9.28,1.5,13.5.54,2.59,3.33,4.67,2.78,7.71-.26.24-6.15-.64-6.99-.99-.64-.27-4.04-3.18-5-4-.57-6.87.78-14.81.03-21.53-.26-2.31-1.4-4.28-2.03-6.47Z" fill="#6d9442"/>
      <path d="M1.25,123.31c-2.51-3.46-.56-7.75,0-11,1.78,2.22,1.09,6.69.97,9.52-.07,1.59-.97,1.39-.97,1.48Z" fill="#583661"/>
    </g>
  </g>
</svg>