<?xml version="1.0" encoding="UTF-8"?>
<svg id="_レイヤー_2" data-name="レイヤー 2" xmlns="http://www.w3.org/2000/svg" viewBox="0 0 166.27 204.11">
  <g id="onion">
    <g>
      <path d="M84.41,38.07c4.38.77,7.53,7.9,12,6,.5,11.85,7.93,19.07,18,24-1.69-.91-2.87,1.08-2,1.99.26.27,2.49.23,3.28.94.85.76,3.21,5.56,4.71,4.07.94-.94-5.59-6.78-5.99-6.99,9.64,4.71,16.82,6.19,26.33,13.17,51.63,37.85,18.06,104.66-39.33,110.83-2.32.25-4.48-1.09-6-1l-.51-.99c-1.85-.35-1.59.29-1.49,1.99-2.98.13-6.01-.03-9,0l-1.5-149.01-.5,149.01c-2.99,0-6.02.1-9,0,.55-3.13-2.61-2.97-2,0-2.59-.11-5.52.29-8,0-1.59-.19-3.83-1.76-5-2l2-.5c-1.07-1.54-2.18-1.75-3.99-1.49l1,1.99c-63.73-14.42-80.64-84.86-18.68-117.18,14.39-7.51,29.71-8.91,29.68-29.82l3,2.52c3.86-3.73,6.79-8.61,13-7.52ZM72.42,57.07c3.25-2.35,3.56-8.28,3.98-12-2.87,2.43-2.95,8.45-3.98,12ZM101.41,73.06c-1.77-5.31-5.43-9.79-7.48-15.01-1.39-3.56-1.83-6.71-2.82-10.19-.3-1.03-.24-3.02-1.68-2.79.21,8.67,3.89,16.98,8.22,24.29.94,1.58,1.45,4.29,3.77,3.7ZM63.62,181.78c.09.11,2.36,1.33,2.77.8-18.39-25.64-21.44-58.56-11-88.03,4.52-12.75,12.75-23.64,17.01-36.48l-13.51,22.98c-15.86,27.66-16.21,76.18,4.73,100.73ZM51.92,69.09l-1.49,1.49c-.02,1.05,2.5-.59,1.49-1.49ZM46.1,75.76c.48-.43,2.2-2.87,1.82-3.67l-4.49,4.49c.38.58,2.46-.63,2.67-.82ZM103.39,74.07c-1.42-.09-2.41-.48-1.9,1.39,1.35,4.92,6.81,12.42,8.93,18.08,7.45,19.86,8.11,41.93,2.24,62.29-1.76,6.12-5.73,12.64-7.18,17.83-.51,1.82,1.28,1.94,1.9,1.4.53-.46,5.22-11.08,5.8-12.71,10.86-30.69,6.38-60.55-9.79-88.28ZM123.9,77.09l-.47.47,3.49,3.49.47-.47-3.49-3.49ZM37.4,83.07c-1.08-1.1-6.09,3.88-4.99,4.99s6.09-3.88,4.99-4.99ZM134.42,167.06c2.07.45,2.28-1.07,3.22-2.27,16.3-20.8,14.11-51.91-.41-73.04-.82-1.2-6.27-9.18-7.81-7.68-.89.87,7.38,9.77,7.8,11.69,11.69,18.93,11.93,41.25,2.68,61.29-.75,1.63-6.16,9.31-5.48,10.01ZM32.41,89.07c-2.4.05-4.68,3.88-5.82,5.67-15.21,24.04-10.75,57.79,8.31,78.33,1.41,1.52,3.23,4.04,5.51,3.98,1.21-1.24-7.74-10.13-8.82-11.67-11.65-16.52-14.78-37.21-8.89-56.54l9.71-19.78ZM134.4,168.07l-3.5,1.99-16.49,14.99c4.06-.74,7.88-3.88,11.01-6.48,1.2-1,10.07-9.42,8.98-10.51ZM105.41,176.08l-5.96,6.74-2.54,5.23c3.34-3.33,7.07-7.54,8.51-11.97ZM49.4,184.06c1.3-1.25-6.24-6.73-6.99-5.99-1.46,1.46,6.11,6.84,6.99,5.99ZM55.4,188.07c.84-2.22-4.17-4.65-4.98-3.99-2.03,1.64,4.52,3.56,4.98,3.99ZM66.9,184.09l-.47.47,4.49,4.49.47-.47-4.49-4.49Z" fill="#d29f6b"/>
      <path d="M90.41,24.07c-3.29,3.63-6.47,8.95-6,14-6.21-1.09-9.14,3.79-13,7.52l-3-2.52c-.01-7.95-5.32-13.56-5.99-20.99l5.37,1.12,7.62,6.86c-.45-8.36,2.12-18.71,6.81-25.69,10.29-15.32,6.11,14.05,8.19,19.69Z" fill="#759732"/>
      <path d="M101.41,192.07c5.96,5.96,8.19,11.53-1.99,5l-.02,6c-3.38.73-4.45-2.75-6.99-4,.24,1.58-.08,5.51-2.49,4.99-1.85-.39-2.71-4.49-4.51-4.99-2.36,8.09-3.41,4.88-7,0-1.25,6.96-5.8,6.54-5.02-1-4.65,3.18-7.79,10-7-1l-7.99,2.99,5-7.99c2.48.29,5.41-.11,8,0,.66.03,1.33-.02,2,0,2.98.1,6.01,0,9,0,.67,0,1.33,0,2,0,2.99-.03,6.02.13,9,0,.9-.04,1.8-.99,2-1,1.52-.09,3.68,1.25,6,1Z" fill="#465a28"/>
      <path d="M90.41,24.07c2.99-3.31,8.23-7.42,13-6.99-2.15,9.65-7.44,16.56-7,26.99-4.47,1.9-7.62-5.23-12-6-.47-5.05,2.71-10.37,6-14Z" fill="#88ab3e"/>
      <path d="M57.41,190.07l-1-1.99c1.82-.25,2.92-.04,3.99,1.49l-2,.5c-.32-.07-.68.07-1,0Z" fill="#ba8d59"/>
      <path d="M84.41,192.07c-.67,0-1.33,0-2,0l.5-149.01,1.5,149.01Z" fill="#ba8d59"/>
      <path d="M63.62,181.78c-20.93-24.55-20.58-73.08-4.73-100.73l13.51-22.98c-4.26,12.84-12.49,23.73-17.01,36.48-10.44,29.47-7.39,62.39,11,88.03-.41.53-2.68-.69-2.77-.8Z" fill="#ba8d59"/>
      <path d="M103.39,74.07c16.18,27.73,20.66,57.59,9.79,88.28-.58,1.63-5.27,12.25-5.8,12.71-.62.54-2.41.43-1.9-1.4,1.45-5.19,5.42-11.71,7.18-17.83,5.87-20.35,5.21-42.42-2.24-62.29-2.12-5.66-7.58-13.17-8.93-18.08-.51-1.87.48-1.48,1.9-1.39Z" fill="#ba8d59"/>
      <path d="M32.41,89.07l-9.71,19.78c-5.89,19.33-2.76,40.02,8.89,56.54,1.08,1.53,10.04,10.43,8.82,11.67-2.28.06-4.1-2.46-5.51-3.98-19.06-20.54-23.52-54.29-8.31-78.33,1.13-1.79,3.41-5.62,5.82-5.67Z" fill="#ba8d59"/>
      <path d="M134.42,167.06c-.68-.7,4.73-8.38,5.48-10.01,9.25-20.04,9.01-42.36-2.68-61.29-.42-1.92-8.69-10.82-7.8-11.69,1.53-1.5,6.98,6.48,7.81,7.68,14.52,21.13,16.71,52.24.41,73.04-.94,1.2-1.15,2.72-3.22,2.27Z" fill="#ba8d59"/>
      <path d="M101.41,73.06c-2.31.59-2.83-2.12-3.77-3.7-4.33-7.31-8.01-15.62-8.22-24.29,1.45-.23,1.39,1.76,1.68,2.79,1,3.48,1.43,6.62,2.82,10.19,2.04,5.22,5.71,9.7,7.48,15.01Z" fill="#ba8d59"/>
      <path d="M134.4,168.07c1.08,1.08-7.78,9.51-8.98,10.51-3.13,2.6-6.95,5.74-11.01,6.48l16.49-14.99,3.5-1.99Z" fill="#ba8d59"/>
      <path d="M72.42,57.07c1.03-3.55,1.11-9.57,3.98-12-.42,3.72-.73,9.65-3.98,12Z" fill="#ba8d59"/>
      <path d="M49.4,184.06c-.88.85-8.45-4.53-6.99-5.99.75-.75,8.29,4.74,6.99,5.99Z" fill="#ba8d59"/>
      <path d="M37.4,83.07c1.1,1.11-3.91,6.09-4.99,4.99s3.91-6.09,4.99-4.99Z" fill="#ba8d59"/>
      <path d="M55.4,188.07c-.46-.44-7.02-2.36-4.98-3.99.81-.66,5.83,1.77,4.98,3.99Z" fill="#ba8d59"/>
      <path d="M114.41,68.07c.41.22,6.94,6.05,5.99,6.99-1.5,1.5-3.86-3.3-4.71-4.07-.79-.71-3.03-.67-3.28-.94-.87-.9.31-2.9,2-1.99Z" fill="#ba8d59"/>
      <path d="M105.41,176.08c-1.44,4.43-5.16,8.65-8.51,11.97l2.54-5.23,5.96-6.74Z" fill="#ba8d59"/>
      <path d="M71.41,192.07c-.61-2.97,2.55-3.13,2,0-.67-.02-1.34.03-2,0Z" fill="#ba8d59"/>
      <path d="M95.41,191.07c-.2.01-1.1.96-2,1-.1-1.7-.36-2.34,1.49-1.99l.51.99Z" fill="#ba8d59"/>
      <path d="M46.1,75.76c-.21.19-2.29,1.4-2.67.82l4.49-4.49c.38.8-1.34,3.24-1.82,3.67Z" fill="#ba8d59"/>
      <rect x="125.08" y="76.6" width=".66" height="4.94" transform="translate(-19.18 111.84) rotate(-45)" fill="#ba8d59"/>
      <rect x="68.58" y="183.39" width=".66" height="6.35" transform="translate(-111.74 103.37) rotate(-45)" fill="#ba8d59"/>
      <path d="M51.92,69.09c1.01.9-1.51,2.54-1.49,1.49l1.49-1.49Z" fill="#ba8d59"/>
    </g>
  </g>
</svg>