<?xml version="1.0" encoding="UTF-8"?>
<svg id="_レイヤー_2" data-name="レイヤー 2" xmlns="http://www.w3.org/2000/svg" viewBox="0 0 191.87 195.09">
  <g id="peanut">
    <g>
      <path d="M159.34,10.61l-9.67,3.81c-2.07.24-5.76,3.85-7.01,4.05-1.45.23-6.04-4.62-6.33-6.36-.41-2.43,1.12-1.22,2.52-1.48,6.69-1.24,13.88-1.87,20.49-.02Z" fill="#c79c62"/>
      <path d="M17.35,179.6c7.7-1.94,13.52-8.41,19.95-12.61.25-1.45-12-13.81-13.93-12.38l-7.02,24c-4-3.93-5.9-3.46-9.52-9.98-18.98-34.23,4.1-70.54,38-82.03,13.56-4.6,28.61-3.38,35.29-18.71,8.07-18.52,3.76-31.82,20.2-49.8,41.61-45.51,114.39,2.73,84.54,58.54-14.86,27.77-31.68,25.93-56.19,36.81-19.38,8.6-15.59,29.08-23.15,45.85-15.29,33.88-57.54,48.36-87.23,22.85-.77-.66-.73-2.32-.94-2.52ZM159.34,10.61c-6.61-1.85-13.8-1.22-20.49.02-1.4.26-2.93-.96-2.52,1.48.29,1.74,4.88,6.59,6.33,6.36,1.25-.2,4.94-3.81,7.01-4.05l9.67-3.81ZM127.04,14.75c-1.24.11-13.5,7.6-13.69,8.38l9.5,10.45c1.47-2.78,11.07-8.55,11.43-10.62.15-.87-5.77-8.34-7.24-8.21ZM169.35,16.6c-1.63-1.62-18.99,4.44-21.01,6.51-1.09,1.11-1.01,1.07-.6,2.53.62,2.2,10.19,11.36,12.04,10.93,2.43-2.18,11.23-18.33,9.58-19.97ZM173.35,46.59l.99-20.99-7.97,16.52c.05,2.67,4.55,4.84,6.98,4.47ZM109.22,50.45c.63-.36,8.15-11.49,8.03-12.21-.15-.85-8.18-9.28-10.32-8.71-1.16,2.6-7.82,11.32-7.42,13.43.26,1.36,7.59,8.71,9.71,7.5ZM155.21,42.75c-.14-.24-2.06-.82-2.87-1.6-2.16-2.08-10.59-11.6-12.49-11.59-1.33,0-10.53,7.64-10.53,9.54,0,1.52,8.74,9.96,10.51,11.53,1.03.91,6.62,5.79,7.05,5.96,1.66.65,6.12-8.94,7.69-10.27.49-1,1.26-2.5.64-3.56ZM183.35,32.59c-2.64-3.51-1.9,7.61-2.01,8.49-.43,3.28-3.92,11.48,1.52,11.56,5.75.08-.21-16.41.49-20.05ZM121.95,44.66c-.7.17-7.7,10.86-7.43,12.29.22,1.18,17.01,15.78,18.2,15.57l9.56-10.29c-3.61-2.22-17.49-18.25-20.33-17.57ZM161.93,49.61c-.67.15-7.58,10.59-7.58,11.5-.01,2.27,7.85,7.79,9.41,7.42,1.36-.32,6.72-11.71,6.41-13.31-.26-1.32-7.52-5.77-8.24-5.61ZM93.35,71.6c3.42,8.36-17.69,16.22-17.99,17.51s3.1,4.63,4.35,4.4c1.61-.29,11.5-9.99,13.06-12,2.21-2.83,11.82-21.13,11.42-23.27-.29-1.59-8.59-7.86-9.84-6.65-.84,5.85-3.11,13.4-5.81,18.7-.33.64-8.28,10.26-3.71,8.29,1.24-.53,7.17-8.5,8.51-6.99ZM182.32,60.67c-.19-.25-5.73-2.29-5.96-2.08-.05,7.26-12.23,15.6-.02,18,.39-2.73,7.2-14.32,5.98-15.93ZM109.4,64.64c-.39.27-2.9,6.95-3.88,8.63-2.28,3.92-4.69,7.98-7.36,11.64s-11.19,11.45-12.33,13.67c-.7,1.36-.06,2.79,1.03,3.01.8.16,10.98-9.04,12.52-10.46,1.69-1.54,3.16-5.24,4.97-6.03,2.14-.94,4.66-.21,7.01-.99,1.99-.66,13.95-5.91,13.96-7.02-3.04-1.62-13.47-14.15-15.93-12.46ZM148.99,67.67c-.84.15-9.7,9.14-9.7,10.45,0,1.48,6.36,6.2,7.72,6.32s11.05-7.21,11.26-8.47c.27-1.62-8.47-8.43-9.29-8.29ZM154.49,88.73c-1.33,2.3,1.71,5.49,4.89,4.48,1.65-.53,11.34-8.5,10.97-10.08-1.19-1.38-3.47-2.88-5.3-2.4-.64.17-10.23,7.42-10.56,8ZM76.36,85.59c1.16,1.16,3.97-2.5,3.5-3.97-.78.82-4.96,2.52-3.5,3.97ZM139.34,87.61c-.33-.4-6.46-4.09-7.4-4.04-.77.04-13.01,5.06-14.31,5.79-1.13.63-1.7-.07-1.27,2.21,3.54.51,4.5,3.19,8.34,2.97,2-.11,12.61-3.78,14.04-4.89.84-.66.99-1.59.61-2.05ZM113.35,92.6c-8.12,2.83-4.74,2.31-9.98,6.53-2.66,2.14-9.53,5.15-9.09,8.93.11.95,1.97.43,2.06.55.86,1.12,1.3,4.49,3.98,5,.84-5.22,19.53-16.52,15.01-22-1.8-.56-1.81.93-1.99,1ZM51.36,98.61c-1.2,1.71,5.01,10.06,7.32,9.84,1.19-.11,14.37-8.21,14.63-9.47-4.56-10.84-14.02-1.38-21.95-.37ZM149.36,99.59c.46-1.92-1.07-5.03-3.32-4.83-18.24,6.46-30.88,9.06-41.49,26.52-1.66,2.73-11.04,20.97-10.13,22.23.16.23,4.19,2.24,4.93,2.59,3.79,1.78,4.16-9.15,5.05-11.96,1.96-6.14,4.61-13.34,8.53-18.47,8.59-11.24,23.62-12.65,36.42-16.09ZM42.04,102.76c-1.78.16-14.23,9.12-14.6,10.51-.94,3.55,7.55,7.6,9.54,10.26l14.37-10.47c.18-.72-7.65-10.45-9.31-10.3ZM79.03,104.74c-.93.09-15.67,9.42-15.66,10.36l11.48,11.48c1.37,0,9.4-13.47,9.51-15.57s-3.37-6.45-5.34-6.26ZM91.05,117.71c-1.49.38-9.13,11.07-9.53,12.64-.8,3.16,3.61,7.93,6.2,7.19.84-.24,7.52-14.19,7.65-15.52.23-2.41-1.88-4.94-4.32-4.31ZM20.89,119.6c-1.52.37-8.83,14.64-8.4,16.4.18.75,8.48,6.77,9.3,6.59.9-2.67,9.68-12.98,9.46-14.34-.13-.82-9.63-8.82-10.36-8.64ZM55.11,119.77c-1.57.4-12.98,9.12-12.73,10.26l17.33,15.5c1.57-.28,10.77-11.88,10.53-13.29-3.41-2.83-10.73-13.58-15.13-12.47ZM39.7,137.23c-.88-.75-1.05-3.07-2.84-2.63l-9.5,13.43c4.45,1.73,11.98,11.72,15,13.1,3.21,1.46,12.59-8.71,11.92-10.9-.29-.93-12.67-11.36-14.59-12.99ZM75.89,138.59c-1.24,2.54-9.56,10.65-9.57,12.5,0,1.59,6.73,7.25,7.68,7.42,1.77.32,10.08-11.16,10.21-12.59.2-2.18-6.28-6.29-8.32-7.33ZM12.34,164.59c.68-8.25,10.95-17-1.98-19.99-.94,6.16-1.21,11.08.28,17.21.24,1,.29,3.01,1.7,2.77ZM89.52,150.77c-.67.39-6.58,11.52-8.15,13.25,2.73,1.91,5.3,5.81,8.97,4.08,1.93-.91,8.07-11.01,8.03-13.06-.04-2.21-7.12-5.29-8.85-4.27ZM60.05,157.7c-.69.18-10.51,8.83-10.63,9.54-.21,1.28,3.47,4.84,4.65,5.19,3.25.96,13.53-5.05,14.18-7.51.7-2.65-6.31-7.71-8.2-7.22ZM75.03,169.75c-.71.11-10.61,6.95-12.03,8-3.82,2.84,3.68,6.77,4.66,6.69,2.16-.18,15.28-7.8,14.69-10.33-.13-.54-6.6-4.47-7.32-4.36ZM56.35,186.6c-1.7-7.73-8.1-3.72-13.52-3.02-2.71.35-5.72-.2-8.48.02-1.2,2.12,4.15,2.99,4.49,2.99h17.5Z" fill="#d8b07a"/>
      <path d="M17.35,179.6c-.35-.33-.66-.67-1-1l7.02-24c1.94-1.42,14.19,10.94,13.93,12.38-6.43,4.2-12.26,10.68-19.95,12.61Z" fill="#c79c62"/>
      <path d="M55.11,119.77c4.4-1.11,11.73,9.63,15.13,12.47.24,1.4-8.96,13.01-10.53,13.29l-17.33-15.5c-.25-1.14,11.16-9.86,12.73-10.26Z" fill="#c79c62"/>
      <path d="M121.95,44.66c2.83-.68,16.72,15.36,20.33,17.57l-9.56,10.29c-1.18.2-17.97-14.39-18.2-15.57-.27-1.44,6.73-12.12,7.43-12.29Z" fill="#c79c62"/>
      <path d="M39.7,137.23c1.93,1.63,14.31,12.06,14.59,12.99.67,2.19-8.71,12.37-11.92,10.9-3.03-1.38-10.55-11.37-15-13.1l9.5-13.43c1.78-.44,1.96,1.89,2.84,2.63Z" fill="#c79c62"/>
      <path d="M155.21,42.75c.62,1.06-.14,2.56-.64,3.56-1.58,1.33-6.03,10.92-7.69,10.27-.43-.17-6.02-5.04-7.05-5.96-1.77-1.56-10.51-10.01-10.51-11.53,0-1.89,9.21-9.54,10.53-9.54,1.9,0,10.33,9.51,12.49,11.59.81.78,2.73,1.36,2.87,1.6Z" fill="#c79c62"/>
      <path d="M109.4,64.64c2.46-1.69,12.89,10.84,15.93,12.46-.01,1.11-11.97,6.36-13.96,7.02-2.35.78-4.87.05-7.01.99-1.81.8-3.28,4.49-4.97,6.03-1.55,1.41-11.73,10.62-12.52,10.46-1.09-.22-1.73-1.65-1.03-3.01,1.14-2.22,9.57-9.88,12.33-13.67s5.08-7.73,7.36-11.64c.98-1.68,3.49-8.36,3.88-8.63Z" fill="#c79c62"/>
      <path d="M149.36,99.59c-12.8,3.44-27.83,4.85-36.42,16.09-3.92,5.13-6.57,12.33-8.53,18.47-.9,2.81-1.27,13.74-5.05,11.96-.74-.35-4.77-2.37-4.93-2.59-.91-1.26,8.47-19.5,10.13-22.23,10.61-17.46,23.25-20.06,41.49-26.52,2.25-.21,3.78,2.9,3.32,4.83Z" fill="#c79c62"/>
      <path d="M93.35,71.6c-1.34-1.51-7.27,6.45-8.51,6.99-4.57,1.96,3.38-7.65,3.71-8.29,2.7-5.3,4.97-12.85,5.81-18.7,1.24-1.21,9.54,5.06,9.84,6.65.39,2.14-9.22,20.44-11.42,23.27-1.56,2.01-11.45,11.71-13.06,12-1.25.22-4.67-3.08-4.35-4.4s21.41-9.16,17.99-17.51Z" fill="#c79c62"/>
      <path d="M42.04,102.76c1.66-.15,9.49,9.58,9.31,10.3l-14.37,10.47c-1.99-2.66-10.48-6.7-9.54-10.26.37-1.39,12.82-10.36,14.6-10.51Z" fill="#c79c62"/>
      <path d="M169.35,16.6c1.65,1.64-7.15,17.8-9.58,19.97-1.85.42-11.42-8.74-12.04-10.93-.41-1.46-.49-1.42.6-2.53,2.03-2.07,19.38-8.13,21.01-6.51Z" fill="#c79c62"/>
      <path d="M79.03,104.74c1.97-.19,5.46,4.08,5.34,6.26s-8.15,15.58-9.51,15.57l-11.48-11.48c0-.94,14.72-10.27,15.66-10.36Z" fill="#c79c62"/>
      <path d="M20.89,119.6c.72-.18,10.22,7.83,10.36,8.64.22,1.36-8.56,11.67-9.46,14.34-.82.18-9.12-5.84-9.3-6.59-.43-1.76,6.89-16.03,8.4-16.4Z" fill="#c79c62"/>
      <path d="M109.22,50.45c-2.11,1.21-9.45-6.14-9.71-7.5-.4-2.11,6.26-10.83,7.42-13.43,2.14-.57,10.17,7.87,10.32,8.71.12.72-7.39,11.85-8.03,12.21Z" fill="#c79c62"/>
      <path d="M127.04,14.75c1.47-.13,7.39,7.33,7.24,8.21-.36,2.07-9.96,7.84-11.43,10.62l-9.5-10.45c.19-.78,12.45-8.27,13.69-8.38Z" fill="#c79c62"/>
      <path d="M75.89,138.59c2.05,1.04,8.52,5.15,8.32,7.33-.13,1.43-8.44,12.9-10.21,12.59-.95-.17-7.69-5.82-7.68-7.42,0-1.85,8.33-9.96,9.57-12.5Z" fill="#c79c62"/>
      <path d="M51.36,98.61c7.93-1,17.38-10.46,21.95.37-.26,1.26-13.44,9.36-14.63,9.47-2.31.22-8.52-8.13-7.32-9.84Z" fill="#c79c62"/>
      <path d="M148.99,67.67c.82-.14,9.56,6.67,9.29,8.29-.21,1.26-9.91,8.59-11.26,8.47s-7.72-4.84-7.72-6.32c0-1.3,8.86-10.3,9.7-10.45Z" fill="#c79c62"/>
      <path d="M161.93,49.61c.72-.16,7.98,4.29,8.24,5.61.31,1.6-5.05,12.99-6.41,13.31-1.56.37-9.42-5.16-9.41-7.42,0-.91,6.91-11.34,7.58-11.5Z" fill="#c79c62"/>
      <path d="M89.52,150.77c1.73-1.01,8.81,2.06,8.85,4.27.04,2.05-6.1,12.16-8.03,13.06-3.67,1.72-6.23-2.17-8.97-4.08,1.57-1.73,7.48-12.86,8.15-13.25Z" fill="#c79c62"/>
      <path d="M60.05,157.7c1.89-.49,8.91,4.57,8.2,7.22-.65,2.46-10.93,8.46-14.18,7.51-1.18-.35-4.86-3.91-4.65-5.19.12-.7,9.94-9.36,10.63-9.54Z" fill="#c79c62"/>
      <path d="M75.03,169.75c.72-.11,7.19,3.82,7.32,4.36.59,2.52-12.53,10.14-14.69,10.33-.98.08-8.48-3.84-4.66-6.69,1.42-1.05,11.31-7.89,12.03-8Z" fill="#c79c62"/>
      <path d="M91.05,117.71c2.44-.63,4.55,1.9,4.32,4.31-.13,1.33-6.81,15.28-7.65,15.52-2.59.74-7-4.03-6.2-7.19.4-1.58,8.04-12.26,9.53-12.64Z" fill="#c79c62"/>
      <path d="M139.34,87.61c.38.46.24,1.39-.61,2.05-1.43,1.11-12.04,4.78-14.04,4.89-3.84.22-4.8-2.47-8.34-2.97-.43-2.28.14-1.59,1.27-2.21,1.31-.72,13.54-5.74,14.31-5.79.94-.05,7.07,3.64,7.4,4.04Z" fill="#c79c62"/>
      <path d="M182.32,60.67c1.21,1.61-5.59,13.2-5.98,15.93-12.21-2.4-.03-10.74.02-18,.23-.22,5.77,1.82,5.96,2.08Z" fill="#c79c62"/>
      <path d="M113.35,92.6c.19-.07.2-1.55,1.99-1,4.51,5.48-14.17,16.77-15.01,22-2.68-.51-3.12-3.88-3.98-5,5.71-4.47,13.5-9.75,17-16Z" fill="#c79c62"/>
      <path d="M154.49,88.73c.33-.57,9.92-7.83,10.56-8,1.82-.48,4.1,1.01,5.3,2.4.36,1.58-9.32,9.55-10.97,10.08-3.17,1.02-6.21-2.18-4.89-4.48Z" fill="#c79c62"/>
      <path d="M12.34,164.59c-1.41.24-1.45-1.77-1.7-2.77-1.49-6.13-1.22-11.06-.28-17.21,12.93,2.98,2.66,11.74,1.98,19.99Z" fill="#c79c62"/>
      <path d="M173.35,46.59c-2.42.37-6.93-1.79-6.98-4.47l7.97-16.52-.99,20.99Z" fill="#c79c62"/>
      <path d="M113.35,92.6c-3.5,6.25-11.29,11.53-17,16-.09-.11-1.95.4-2.06-.55-.44-3.77,6.42-6.78,9.09-8.93,5.23-4.21,1.85-3.7,9.98-6.53Z" fill="#9f7a64"/>
      <path d="M183.35,32.59c-.7,3.64,5.26,20.13-.49,20.05-5.44-.08-1.95-8.27-1.52-11.56.12-.88-.63-12,2.01-8.49Z" fill="#c79c62"/>
      <path d="M56.35,186.6h-17.5c-.34,0-5.69-.88-4.49-2.99,2.75-.22,5.77.33,8.48-.02,5.41-.7,11.82-4.71,13.52,3.02Z" fill="#c79c62"/>
      <path d="M76.36,85.59c-1.45-1.45,2.72-3.16,3.5-3.97.46,1.47-2.34,5.14-3.5,3.97Z" fill="#c79c62"/>
    </g>
  </g>
</svg>