<?xml version="1.0" encoding="UTF-8"?>
<svg id="_レイヤー_2" data-name="レイヤー 2" xmlns="http://www.w3.org/2000/svg" viewBox="0 0 157.55 153.81">
  <g id="satoimo">
    <g>
      <path d="M65.41,144.8C1.12,136.7-21.98,62.46,24.4,19.29c5.03-4.68,8.68-3.24,7.02-12.49,6.2,7.13,10.13,1.03,17.01-1.48C75.21-4.47,103.33-.35,127.32,14.39c7.16,4.4,6.06,8.08,15.08,1.41,1.28,3.41-2.34,4.95-2.85,6.71-1.04,3.57,2.86,5.25,4.69,7.96,19.18,28.35,16.82,60.54-1.83,88.33-23.36,1.63-48.48,9.53-69.35,20.15-2.34,1.19-7.43,2.98-7.65,5.85ZM66.4,14.8c.85.9,15.35,2.12,16.98-1.49-2.26-2.2-6.21-3.63-9.34-3.44-2.11.13-10.35,2.07-7.64,4.94ZM48.07,25.95c-2.89.96-3.79,6.52.05,7.67,7.73,2.32,7.34-10.13-.05-7.67ZM99.15,33.98c-5.83,1.2-6.44,10.01-1.03,11.61,11.75,3.47,12.27-13.93,1.03-11.61ZM121.66,64.55c4.36,4.4,10.95-4.1,5.76-7.26-4.8-2.92-9.54,3.45-5.76,7.26ZM20.15,70.96c-6.82,1.26-8.27,11.32-1.48,14.09,12.69,5.16,12.83-16.18,1.48-14.09ZM124.11,102.99c-5.01,1.5-2.85,10.01,2.59,8.68,3.87-.94,4.79-10.9-2.59-8.68ZM51.12,121.94c-4.06,1.12-4.41,9.78,2.58,7.68,4.82-1.45,2.83-9.18-2.58-7.68Z" fill="#815c47"/>
      <path d="M142.41,118.8c-5.02,7.48-10.13,14.15-18,19,.94-10.61-23.28.22-19,7-10.23,2.33-29.19,1.36-40,0,.21-2.87,5.3-4.66,7.65-5.85,20.88-10.61,46-18.52,69.35-20.15Z" fill="#9f7a64"/>
      <path d="M124.41,137.8c-1.62,1-4.25,2.82-6,3-.12.01-.79-1.03-2.19-.84-3.12.44-6.08,2.15-7.81,4.84-.94.13-2.15-.19-3,0-4.28-6.78,19.94-17.61,19-7Z" fill="#815c47"/>
      <path d="M118.41,140.8c-2.37,6.02-5.97,11.3-12.7,12.81-5.64,1.27.73-4.11,1.58-5.48.72-1.16.76-2.77,1.12-3.34,1.72-2.68,4.68-4.4,7.81-4.84,1.41-.2,2.08.85,2.19.84Z" fill="#9f7a64"/>
      <path d="M20.15,70.96c11.35-2.09,11.21,19.25-1.48,14.09-6.8-2.76-5.34-12.83,1.48-14.09Z" fill="#9f7a64"/>
      <path d="M99.15,33.98c11.24-2.32,10.72,15.08-1.03,11.61-5.42-1.6-4.8-10.41,1.03-11.61Z" fill="#9f7a64"/>
      <path d="M66.4,14.8c-2.7-2.87,5.53-4.81,7.64-4.94,3.13-.19,7.08,1.25,9.34,3.44-1.64,3.61-16.13,2.4-16.98,1.49Z" fill="#9f7a64"/>
      <path d="M121.66,64.55c-3.78-3.81.96-10.19,5.76-7.26,5.19,3.16-1.4,11.66-5.76,7.26Z" fill="#9f7a64"/>
      <path d="M124.11,102.99c7.38-2.21,6.46,7.74,2.59,8.68-5.44,1.32-7.6-7.18-2.59-8.68Z" fill="#9f7a64"/>
      <path d="M48.07,25.95c7.39-2.46,7.77,9.99.05,7.67-3.84-1.15-2.94-6.71-.05-7.67Z" fill="#9f7a64"/>
      <path d="M51.12,121.94c5.41-1.5,7.4,6.23,2.58,7.68-7,2.11-6.64-6.55-2.58-7.68Z" fill="#9f7a64"/>
    </g>
  </g>
</svg>