<?xml version="1.0" encoding="UTF-8"?>
<svg id="_レイヤー_2" data-name="レイヤー 2" xmlns="http://www.w3.org/2000/svg" viewBox="0 0 161.92 243.23">
  <g id="shishito">
    <g>
      <path d="M96.69,59.22c-1.57,10.61,14.82,3.65,16.89,5.11,1.23.86.92,9.56,4.81,10.73,5.56,1.67,9.11-5.88,11.8-5.88,2.04,0,12.87,12.35,14.5,4.04.07.11,1.65.18,2.48.97,11.69,11.12,12.56,26.67,4.34,40.35-3.77,6.26-12.22,12.58-15.01,18.99-4.46,10.27.07,21.48-7.81,32.19-6.26,8.5-18.1,11.5-25.02,18.98-8.11,8.76-7.87,21.73-19.67,28.33-9.14,5.12-15.91,3.88-25.32,11.68-13.01,10.78-12.39,14.55-31.61,17.39-5.63.83-28.6,3.95-26.98-5.92.29-1.75,13.12-21.24,15.19-23.87,2.71-3.43,6.89-6.2,9.25-9.75,4.56-6.85,4.14-15.88,9.73-22.27,3.55-4.06,9.48-6.05,13.45-9.55,11.49-10.12,4.3-23.04,8.52-35.48,3.23-9.5,13.22-14.45,15.02-24.98,2.15-12.53-2.89-21.57,2.6-34.4,5.17-12.1,12.48-12.59,22.85-16.65ZM92.39,73.44c-7.84,1.82-13.14,17.25-4.16,18.79,9.55,1.63,22.5-23.04,4.16-18.79Z" fill="#77982c"/>
      <path d="M144.69,73.22c-1.63,8.31-12.46-4.04-14.5-4.04-2.68,0-6.23,7.56-11.8,5.88-3.89-1.17-3.59-9.87-4.81-10.73-2.07-1.46-18.46,5.5-16.89-5.11,3.65-1.43,6.26-4.34,10.32-6.18s11.06-2.6,13.7-6.3c3.07-4.28,5.16-17.9,7.79-24.21,4.6-11.01,14.47-25.24,28.47-22.1,6.18,1.39,6.63,9.86,1,10.59-2.28.3-3.61-1.14-7.09-.16-11.17,3.14-19.25,26.61-18.99,36.86.17,6.79,6.92,10.38,10.01,15.78,1.66,2.91,2.48,9.22,2.79,9.71Z" fill="#56762a"/>
      <path d="M92.39,73.44c18.34-4.25,5.4,20.42-4.16,18.79-8.98-1.54-3.68-16.97,4.16-18.79Z" fill="#91b240"/>
    </g>
  </g>
</svg>