<?xml version="1.0" encoding="UTF-8"?>
<svg id="_レイヤー_2" data-name="レイヤー 2" xmlns="http://www.w3.org/2000/svg" viewBox="0 0 186.71 229.73">
  <g id="soramame">
    <g>
      <path d="M151.08,8.06c.93,5.3,18.97,15.96,23.97,21.53,7.94,8.86,11.82,20.95,11.65,32.8-.23,16.16-17.39,64.26-26.81,77.99-8.68,12.65-27.93,40.18-38.8,49.2-4.55,3.77-10.29,6.45-14.9,10.1-21.21,16.8-38.4,37.08-68.89,27.67-12.31-3.8-16.85-12.1-26.3-17.7-4.72-2.79-12.54-2.77-10.73-8.87.85-2.86,9.74-6.68,12.82-9.2,7.13-5.81,11.55-15.61,19.05-20.95,9.5-6.76,22.05-5.82,31.43-14.57,4.76-4.44,7.94-11.64,12.49-16.51,6.32-6.78,16.1-10.87,21.46-18.54,4.33-6.2,4.46-14.44,7.69-21.31,3.89-8.29,12.72-15.21,14.42-24.58,2.94-16.16-3.38-22.84,6.65-39.35,7.16-11.8,10-13.94,14.81-27.69h10ZM143.8,33.28c-16.13,3.3-21.92,25.37-11.26,37.81,12.7,14.81,40.3,9.8,42.54-10.53,2.1-19.11-12.85-31.05-31.28-27.28ZM127.82,90.3c-8.32,1.4-16.95,10.83-17.74,19.26-3.12,33.01,46.63,35.82,48.05,5.03.81-17.63-13.82-27.06-30.31-24.29ZM92.82,137.3c-5.8.99-12.52,6.82-14.91,12.09-10.32,22.75,17.05,44.15,36.67,29.67,21.69-16.01,4.41-46.24-21.76-41.76ZM46.82,172.3c-14.05,2.13-21.9,15.5-18.44,28.96,7.13,27.8,52.69,22.71,46.47-11.47-1.98-10.88-17.64-19.07-28.03-17.49Z" fill="#769531"/>
      <path d="M151.08,8.06h-10c1.08-3.09.55-8.65,6.46-8.01,4.69.51,3.05,5.26,3.54,8.01Z" fill="#31302f"/>
      <path d="M143.8,33.28c18.42-3.77,33.38,8.17,31.28,27.28-2.24,20.33-29.84,25.34-42.54,10.53-10.66-12.44-4.88-34.51,11.26-37.81Z" fill="#93b543"/>
      <path d="M46.82,172.3c10.39-1.58,26.05,6.62,28.03,17.49,6.22,34.19-39.34,39.28-46.47,11.47-3.45-13.46,4.4-26.83,18.44-28.96Z" fill="#93b543"/>
      <path d="M92.82,137.3c26.17-4.48,43.45,25.75,21.76,41.76-19.62,14.48-46.99-6.93-36.67-29.67,2.39-5.27,9.11-11.09,14.91-12.09Z" fill="#93b543"/>
      <path d="M127.82,90.3c16.49-2.77,31.12,6.65,30.31,24.29-1.42,30.8-51.17,27.99-48.05-5.03.8-8.43,9.42-17.86,17.74-19.26Z" fill="#93b543"/>
    </g>
  </g>
</svg>