<?xml version="1.0" encoding="UTF-8"?>
<svg id="_レイヤー_2" data-name="レイヤー 2" xmlns="http://www.w3.org/2000/svg" viewBox="0 0 180.83 166.36">
  <g id="sweet_potato" data-name="sweet potato">
    <g>
      <path d="M172.74.09c12.88-1.32,6.64,11.49,6.19,18.25-.37,5.59,1.25,10.43,1.02,16.03-1.32,31.59-36.49,80.68-59.97,101.03-30.92,26.8-69.72,36.38-110.07,28.05-16.2-3.35-8.24-13.66-5.66-22.78,5.55-19.63,7.31-32.37,21.21-48.79,13.15-15.54,29.84-22.05,44.52-34.48,19.93-16.87,30.05-40.03,56.73-50.27,13.36-5.13,20-3.19,32.71-4.2,4.34-.35,9.39-2.42,13.34-2.83ZM119.5,19.89c-.82.21-2.3,2.06-1.07,3.01l14.01,12.98c1.46-1.18,1.61-1.25,1.1-3.06-.89-3.19-10.4-13.86-14.04-12.92ZM77.96,58.89c-1.78,1.71,7.68,9.84,8.98,10.51s2.8.04,3.02-1.04c.64-3.18-9.98-11.41-12-9.47ZM126.96,62.89c-1.97,1.89,7.09,9.39,8.51,10.98,1.9,2.14,5.74,9.84,8.97,9.01,1.26-.32,1.62-1.65,1.03-2.99-1.51-3.4-15.04-20.33-18.51-17ZM33.48,96.88c-1.53.28-1.75,2.45-1.03,4,.58,1.24,12.04,12.2,12.99,12,4.54-.95-4.61-10.8-5.96-12.02-1.07-.97-4.88-4.18-6-3.98ZM80.47,100.89c-1.35.34-1.48,1.72-1.11,3.07.54,1.94,17.75,19.19,19.08,18.93,1.69-1.29,1.95-2,1.02-3.99-1.98-4.26-13.35-10.97-15.48-16.52-.78-1.14-2.16-1.82-3.5-1.48ZM120.69,103.06c-5.92.85-5.13,10.8,1.7,9.85,5.51-.76,5.02-10.82-1.7-9.85ZM71.67,136.03c-5.34,1.5-2.34,10.53,4.28,7.36,4.09-1.97.09-8.58-4.28-7.36ZM47.95,157.88c1.82-1.8-7.12-13.84-10.48-12.99-1.3,1.15-1.81,1.2-1.03,3,.96,2.21,8.97,12.51,11.51,9.99Z" fill="#a8594f"/>
      <path d="M80.47,100.89c1.35-.34,2.72.34,3.5,1.48,2.13,5.55,13.5,12.26,15.48,16.52.93,1.99.67,2.7-1.02,3.99-1.32.26-18.54-16.99-19.08-18.93-.38-1.35-.24-2.72,1.11-3.07Z" fill="#815c47"/>
      <path d="M126.96,62.89c3.47-3.33,17,13.6,18.51,17,.59,1.34.23,2.67-1.03,2.99-3.23.83-7.07-6.87-8.97-9.01-1.42-1.59-10.47-9.09-8.51-10.98Z" fill="#815c47"/>
      <path d="M33.48,96.88c1.12-.2,4.93,3,6,3.98,1.35,1.22,10.49,11.07,5.96,12.02-.95.2-12.41-10.76-12.99-12-.72-1.55-.5-3.73,1.03-4Z" fill="#815c47"/>
      <path d="M119.5,19.89c3.64-.94,13.14,9.74,14.04,12.92.51,1.81.36,1.88-1.1,3.06l-14.01-12.98c-1.23-.95.25-2.8,1.07-3.01Z" fill="#815c47"/>
      <path d="M120.69,103.06c6.72-.96,7.21,9.09,1.7,9.85-6.84.95-7.62-9.01-1.7-9.85Z" fill="#815c47"/>
      <path d="M47.95,157.88c-2.54,2.52-10.55-7.78-11.51-9.99-.78-1.8-.27-1.85,1.03-3,3.36-.85,12.29,11.2,10.48,12.99Z" fill="#815c47"/>
      <path d="M77.96,58.89c2.02-1.94,12.64,6.29,12,9.47-.22,1.08-1.66,1.75-3.02,1.04s-10.76-8.81-8.98-10.51Z" fill="#815c47"/>
      <path d="M71.67,136.03c4.37-1.23,8.37,5.39,4.28,7.36-6.62,3.18-9.61-5.86-4.28-7.36Z" fill="#815c47"/>
    </g>
  </g>
</svg>