<?xml version="1.0" encoding="UTF-8"?>
<svg id="_レイヤー_2" data-name="レイヤー 2" xmlns="http://www.w3.org/2000/svg" viewBox="0 0 146.1 162.11">
  <g id="tomato">
    <g>
      <path d="M48.15,39.75c3.49,3.02,7.74,3.19,10.41,4.94s-2.52,2.81-3.46,4.51l-7.95,10.55c6.96.33,12.18.42,18.32-3.17,1.82-1.06,6.38-5.99,7.14-5.88,2.26.32,5.52,5.02,8.48,6.61s8.35,3.15,11.55,3.25c10.35.32,3.18-4,.53-7.33-2.14-2.69-4.14-5.6-6.03-8.46,3.48-.8,8.43-2.53,11-5.01,9.62,1.12,16.09,3.86,24,9,.74,4.58,3.21,8.44,4.49,13.01,16.48,58.53-40.37,102.36-94.97,85.96-1.32-.4-3.64-1.89-4.52.03-.4-.28-1.56-.26-2.49-.97C-15.43,115.97-5.97,45.87,48.15,39.75Z" fill="#d84c39"/>
      <path d="M27.15,147.75c.89-1.93,3.2-.43,4.52-.03,54.6,16.4,111.45-27.43,94.97-85.96-1.29-4.57-3.75-8.42-4.49-13.01,27.18,17.65,30.6,56.73,13.41,82.91-22.97,34.99-75.66,39.06-108.41,16.09Z" fill="#c94533"/>
      <path d="M48.15,39.75c-3.87-3.35-6.29-8.96-7-13.99l28.99,10.99c-.89-8.62-4.83-16.47-11.52-21.97-4.8-3.94-10.59-3.21-6.98-11.02,2.56-5.53,4.68-4.15,9-1,9.55,6.97,15.61,22.31,14.51,33.99l28.99-10.99c1.32,1.37-4.22,12.28-5.99,14-2.56,2.48-7.52,4.21-11,5.01,1.89,2.86,3.89,5.77,6.03,8.46,2.65,3.33,9.82,7.65-.53,7.33-3.2-.1-8.68-1.7-11.55-3.25s-6.22-6.29-8.48-6.61c-.76-.11-5.33,4.82-7.14,5.88-6.14,3.6-11.36,3.5-18.32,3.17l7.95-10.55c.94-1.7,6.17-2.75,3.46-4.51s-6.92-1.92-10.41-4.94Z" fill="#84a64b"/>
    </g>
  </g>
</svg>