<?xml version="1.0" encoding="UTF-8"?>
<svg id="_レイヤー_2" data-name="レイヤー 2" xmlns="http://www.w3.org/2000/svg" viewBox="0 0 187.86 213.24">
  <g id="chingensai">
    <g>
      <path d="M133.28,34.99c10.84,31.28,1.15,49.74-10,77-2.67,6.53-3.06,6.21-3,14,.17,22.12,12.29,37.4,3.49,60.99-1.4,3.76-4.19,10.2-8.49,11.01,1.45-1.93,3.58-7.16,3.91-9.59,3.98-28.92-19.9-51.93-15.91-81.41.74-5.45,5.15-12.95,4.99-19-2.69,2.99-4.81,8.64-6.04,12.45-.84,2.63-.5,4.62-.95,6.55-.43,1.8-.78,5.94-3,5-1.17-7.65-1.51-15.29-2-23-1.12-17.34-.04-34.92-2.5-52.01-1.31,17.29-1.46,34.69-2.5,52.01-.48,8.01-.53,16.04-2.01,23.99-1.23-.06-1.69-3.76-1.99-4.99-1.52-6.3-2.49-9.88-5-16-1.39-3.38-2.56-6.89-4.5-10.01-2.16.08,2.21,9,2.5,10.01,1.44,4.98,3.19,10.94,4,16,3.67,22.95-7.1,34.34-12.71,54.79-3.11,11.35-6.19,27.56,2.71,37.21-.33,1.57-3.8-2.61-3.94-2.8-22.17-29.34,4.91-54.79-5.06-84.2-2.69-7.94-7-13.32-9.78-20.72-6.47-17.27-6.42-39.93-.22-57.28C62.01,16.17,80.99-6.04,103.25,1.52c11.41,3.87,26.19,22.38,30.03,33.47Z" fill="#5e7830"/>
      <path d="M139.28,155.99c-.74-5.05-3.13-11.14-3.87-16.63-3.54-26.37,4.25-44.99,14.87-68.37,1.32-2.91,4.7-6.15,4.51-9.98-2.95,2.27-3.84,6.04-5.51,8.98-9.81,17.22-18.05,35.84-26,54v-12c11.15-27.26,20.84-45.72,10-77,44.07-31.7,65.85,12.37,48.73,52.23-5.7,13.26-16.21,21.32-23.15,32.85-7.16,11.9-7.04,27.37-19.58,35.92ZM157.78,54.99v1c.65-.33.65-.67,0-1ZM156.78,56.99v1c.65-.33.65-.67,0-1ZM155.78,58.99v1c.65-.33.65-.67,0-1Z" fill="#495c2b"/>
      <path d="M55.28,34.99c-6.2,17.34-6.25,40.01.22,57.28,2.77,7.4,7.08,12.78,9.78,20.72v10c-.29.38-1.1-.56-1.48-1.02-4.55-5.47-15.64-34.59-20.52-43.98-3.9-7.5-7.45-15.18-12.5-22.01-1.3.59.29,2.54.64,3.37,2.66,6.32,7.2,12.65,9.86,18.64,7.99,17.97,13.64,36.56,11.98,56.48-.54,6.49-3.04,13.97-3.98,20.52-12.69-5.79-12.61-21.54-18.17-32.33-6.25-12.12-18.31-21.28-24.68-35.32C-12.01,46.7,10.75,3.54,55.28,34.99Z" fill="#495c2b"/>
      <path d="M150.28,70.99c-10.62,23.37-18.4,42-14.87,68.37.74,5.5,3.12,11.58,3.87,16.63,2.83,19.21,2.6,46.75-20.56,52.94-4.8,1.28-9.49.21-12.74,1.03-1.1.28-.68,2.58-3.16,3.05s-18.36.22-19.95-.93c-1.12-.81-.38-2.88-.59-3.09-.26-.26-5.39,1.02-7.33.92-9.3-.45-17.88-6.88-22.29-14.8-7.48-13.4-5.45-25.75-3.37-40.13.95-6.54,3.44-14.03,3.98-20.52,1.66-19.92-4-38.51-11.98-56.48h2c4.88,9.4,15.97,38.51,20.52,43.98.38.46,1.19,1.4,1.47,1.02v-10c9.98,29.41-17.1,54.86,5.07,84.2.15.19,3.61,4.37,3.94,2.8,10.49,11.37,31.81,10.25,41-2,4.3-.82,7.09-7.26,8.49-11.01,8.8-23.59-3.32-38.87-3.49-60.99,4.15.61,2.45-.74,3-2,7.95-18.16,16.19-36.78,26-54l1,1Z" fill="#c5d69a"/>
      <path d="M96.28,88.99c.5,7.72.84,15.36,2,23,2.22.94,2.57-3.2,3-5h2c-3.99,29.48,19.89,52.49,15.91,81.41-.33,2.42-2.47,7.66-3.91,9.59-9.19,12.25-30.51,13.37-41,2-8.9-9.65-5.83-25.87-2.71-37.21,5.61-20.45,16.38-31.83,12.71-54.79h3c.3,1.23.76,4.93,1.99,4.99,1.48-7.95,1.53-15.99,2.01-23.99h5Z" fill="#e3ebc4"/>
      <path d="M96.28,88.99h-5c1.04-17.32,1.19-34.72,2.5-52.01,2.46,17.09,1.38,34.67,2.5,52.01Z" fill="#b0ca7f"/>
      <path d="M103.28,106.99h-2c.46-1.93.11-3.92.95-6.55,1.22-3.81,3.34-9.47,6.04-12.45.16,6.05-4.25,13.55-4.99,19Z" fill="#b0ca7f"/>
      <path d="M82.28,91.99c2.51,6.12,3.48,9.7,5,16h-3c-.81-5.06-2.56-11.02-4-16h2Z" fill="#b0ca7f"/>
      <path d="M123.28,123.99c-.55,1.26,1.15,2.61-3,2-.06-7.79.33-7.47,3-14v12Z" fill="#a9c56e"/>
      <path d="M82.28,91.99h-2c-.29-1.01-4.66-9.93-2.5-10.01,1.94,3.12,3.11,6.63,4.5,10.01Z" fill="#a9c56e"/>
      <path d="M150.28,70.99l-1-1c1.67-2.94,2.56-6.71,5.51-8.98.19,3.83-3.19,7.07-4.51,9.98Z" fill="#a9c56e"/>
      <path d="M156.78,56.99c.65.33.65.67,0,1v-1Z" fill="#a9c56e"/>
      <path d="M155.78,58.99c.65.33.65.67,0,1v-1Z" fill="#a9c56e"/>
      <path d="M157.78,54.99c.65.33.65.67,0,1v-1Z" fill="#a9c56e"/>
      <path d="M43.28,77.99h-2c-2.66-5.98-7.2-12.32-9.86-18.64-.35-.83-1.94-2.79-.64-3.37,5.05,6.83,8.6,14.51,12.5,22.01Z" fill="#a9c56e"/>
    </g>
  </g>
</svg>