<?xml version="1.0" encoding="UTF-8"?>
<svg id="_レイヤー_2" data-name="レイヤー 2" xmlns="http://www.w3.org/2000/svg" viewBox="0 0 147.54 169.15">
  <g id="garlic">
    <g>
      <path d="M52.04,160.01c-5.93.05-15.68.24-21.22-.28-28.4-2.66-38.03-34.65-25.29-57.74,15.48-28.07,50.42-26.33,56.42-63.58.46-2.87,1.05-8.92,1.14-11.86.33-11.27-4.47-21.12,9.45-26.55,1.8,4.34-1.73,8.71.52,13.01,3.81-2.01,7.36-5.07,11.98-4.99-.28,10.86-1.76,20.48.13,31.38,6.23,36.04,42.38,35.49,57.41,63.59,9.96,18.62,5.01,44.81-15.55,53.52-9.44,4-22.74,3.8-32.99,3.51-3.26-.09-5.24-.24-8.44-1.06-3.43-.88-9.88-4.99-12.04-5.02-2.8-.04-8.06,3.56-11.52,4.58-3.68,1.08-6.15,1.46-10,1.5ZM74.04,83.01l-2,1.48c-.55,20.87-2.52,42.25-.04,63.06.18,1.5.2,3.08,2.03,3.46,3.38-22.52,2.2-45.42,0-68ZM39.54,89.01v1c.65-.33.65-.67,0-1ZM108.48,90.5c-.49-.52-1.12-3.39-1.29-.16,10.28,18.38,16.16,40.92,5.05,60.36-.35.61-5.69,7-1.71,5.29.65-.28,5.74-5.52,6.49-6.52,13.05-17.25,5.24-44.37-8.53-58.98ZM39.04,91.02c-1.49-1.77-2.2,1.37-2.58,1.89-14.18,19.25-20.77,48.99,2.09,64.09-2.55-5.31-6.48-10.11-8.05-15.94-2.82-10.47-1.62-21.53,1.28-31.81.9-3.18,7.89-17.48,7.26-18.23ZM107.54,156.01v1c.65-.33.65-.67,0-1Z" fill="#eeecdf"/>
      <path d="M94.04,160.01c2.06,8.32-6.95,9.76-13.41,8.91-2.48-.33-5.76-2.54-7.09-2.54-1.44,0-3.4,2.02-5.22,2.4-5.86,1.22-18.26-.37-16.28-8.78,3.85-.03,6.33-.42,10-1.5,3.46-1.02,8.72-4.62,11.52-4.58,2.16.03,8.61,4.14,12.04,5.02,3.2.82,5.18.97,8.44,1.06Z" fill="#d2a673"/>
      <path d="M108.48,90.5c13.78,14.61,21.58,41.73,8.53,58.98-.75.99-5.84,6.24-6.49,6.52-3.98,1.7,1.36-4.69,1.71-5.29,11.11-19.44,5.22-41.98-5.05-60.36.17-3.23.8-.37,1.29.16Z" fill="#dad4be"/>
      <path d="M39.04,91.02c.63.75-6.36,15.05-7.26,18.23-2.9,10.28-4.1,21.34-1.28,31.81,1.57,5.83,5.5,10.63,8.05,15.94-22.86-15.1-16.27-44.84-2.09-64.09.38-.51,1.08-3.66,2.58-1.89Z" fill="#dad4be"/>
      <path d="M74.04,83.01c2.2,22.58,3.38,45.48,0,68-1.83-.38-1.85-1.96-2.03-3.46-2.48-20.81-.51-42.19.04-63.06l2-1.48Z" fill="#dad4be"/>
      <path d="M39.54,89.01c.65.33.65.67,0,1v-1Z" fill="#dad4be"/>
      <path d="M107.54,156.01c.65.33.65.67,0,1v-1Z" fill="#dad4be"/>
    </g>
  </g>
</svg>