<?xml version="1.0" encoding="UTF-8"?>
<svg id="_レイヤー_2" data-name="レイヤー 2" xmlns="http://www.w3.org/2000/svg" viewBox="0 0 158.64 165.15">
  <g id="kabocha">
    <g>
      <path d="M93.38,39.08c12.95-1.34,13.88,3.71,21.55,4.95,8.82,1.42,11.78-1.51,21.14,3.86,32.93,18.9,29.85,100.6-9.46,109.91-4.57,1.08-8.52-.09-11.49.42-2.7.47-6.89,4.83-11.47,5.62-6.18,1.05-10.43-1.76-13.61-1.5-3.03.25-5.64,2.93-11.17,2.81-4.07-.09-6.88-2.02-10.02-2.12-4.42-.14-8.17,1.76-13.73.81-4.84-.82-8.36-5.07-10.46-5.62-2.95-.77-8.62.96-14.82-1.09-38.94-12.86-40.26-98.73-1-112.1,7.52-2.56,10.78-.28,15.97-.94,4.89-.62,11.59-8.12,20.57-5.01.15.05.6,1.9,2.5,2.04,3.82.3,7.93-4.17,15.77-2.8,2.27.4,5.02,2.46,6.42,2.57,1.54.12,2.66-1.75,3.31-1.81ZM95.88,46.08v1c.65-.33.65-.67,0-1ZM98.37,48.09c-.61-.54-2.4-.44-1.89,1.39.89,3.25,4.49,8.2,5.93,12.08,8.19,21.96,8.94,49.39,2.9,71.94-2.05,7.64-5.39,14.37-8.43,21.56,3.28-1.77,5.01-4.97,6.93-8.06,15.85-25.4,15.34-61.96,1.1-87.94-.83-1.51-6.06-10.55-6.54-10.97ZM60.88,50.08v1c.65-.33.65-.67,0-1ZM60.38,52.08c-2.1-.38-2.76,1.36-3.82,2.67-18.11,22.38-17.38,72.87.22,95.44.87,1.12,1.27,3.07,3.1,2.9l-4.75-13.25c-8.85-29.07-7.75-60.13,5.26-87.76ZM122.88,53.08v1c.65-.33.65-.67,0-1ZM35.38,148.07c-2.17-5.13-5.8-9.42-7.77-14.72-6.49-17.47-7.32-43.11-1.26-60.81,2.25-6.58,6.62-12.24,9.55-18.44-25.08,20.24-25.88,64.93-6.34,89.31.74.92,4.58,5.92,5.82,4.67ZM127.19,57.35c-.09-.11-2.36-1.29-2.79-.78,17.69,27.37,15.3,65.36-1.53,92.49,9.46-6.7,15.43-19.98,17.85-31.14,4.79-22.1.21-43.6-13.53-60.57ZM36.88,149.08v1c.65-.33.65-.67,0-1ZM60.88,154.08v1c.65-.33.65-.67,0-1ZM95.88,156.08v1c.65-.33.65-.67,0-1Z" fill="#ee8734"/>
      <path d="M88.38,21.08c-1.63,4.51-3.58,6.91-1,12,1.47,2.9,4.65,3.15,6,6-.65.07-1.77,1.93-3.31,1.81-1.4-.11-4.15-2.17-6.42-2.57-7.83-1.37-11.95,3.1-15.77,2.8-1.9-.15-2.35-1.99-2.5-2.04,8.74-4.92,6.42-12.04,8.28-20.22,1.1-4.84,5.78-16.94,11.36-17.53,2.7-.29,9.58,3.84,10.26,6.46.23.9-5.78,10.21-6.9,13.3Z" fill="#c94533"/>
      <path d="M88.38,21.08c4.84-3.92,10.27-4.81,15.55-6.95,3.15-1.28,5.74-3.85,9.4-4.6,6.22-1.28,15.42,1.43,19.78-1.23,3.82-2.34,3.03-7.82,4.79-8.21,5.28-1.18,3.66,10.29-3.51,13.5-7.78,3.48-14.11-1.21-22.01,1.5.17,2.94,3.64,3.33,5.45,6.04,11.93,17.9-23.28,23.4-16.45-.04-2.59-1.95-14.63,7.95-14,11.99-2.58-5.09-.63-7.49,1-12ZM114.13,30.83c2.86-2.82.15-6.75-2.41-8.59-11.76-8.47-5.72,16.62,2.41,8.59Z" fill="#84a64b"/>
      <path d="M60.38,52.08c-13.01,27.63-14.11,58.69-5.26,87.76l4.75,13.25c-1.83.17-2.22-1.78-3.1-2.9-17.6-22.57-18.33-73.06-.22-95.44,1.06-1.31,1.72-3.05,3.82-2.67Z" fill="#d5712a"/>
      <path d="M35.38,148.07c-1.25,1.25-5.09-3.75-5.82-4.67-19.54-24.38-18.74-69.06,6.34-89.31-2.93,6.2-7.3,11.87-9.55,18.44-6.06,17.7-5.23,43.34,1.26,60.81,1.97,5.3,5.6,9.59,7.77,14.72Z" fill="#d5712a"/>
      <path d="M127.19,57.35c13.75,16.97,18.33,38.47,13.53,60.57-2.42,11.16-8.39,24.44-17.85,31.14,16.83-27.13,19.23-65.12,1.53-92.49.42-.51,2.7.67,2.79.78Z" fill="#d5712a"/>
      <path d="M95.88,46.08c.65.33.65.67,0,1v-1Z" fill="#d5712a"/>
      <path d="M122.88,53.08c.65.33.65.67,0,1v-1Z" fill="#d5712a"/>
      <path d="M60.88,154.08c.65.33.65.67,0,1v-1Z" fill="#d5712a"/>
      <path d="M36.88,149.08c.65.33.65.67,0,1v-1Z" fill="#d5712a"/>
      <path d="M60.88,50.08c.65.33.65.67,0,1v-1Z" fill="#d5712a"/>
      <path d="M95.88,156.08c.65.33.65.67,0,1v-1Z" fill="#d5712a"/>
      <path d="M98.37,48.09c.48.42,5.71,9.46,6.54,10.97,14.25,25.98,14.75,62.54-1.1,87.94-1.92,3.08-3.66,6.29-6.93,8.06,3.04-7.19,6.38-13.92,8.43-21.56,6.04-22.55,5.29-49.98-2.9-71.94-1.45-3.88-5.04-8.83-5.93-12.08-.5-1.83,1.28-1.93,1.89-1.39Z" fill="#d5712a"/>
    </g>
  </g>
</svg>