<?xml version="1.0" encoding="UTF-8"?>
<svg id="_レイヤー_2" data-name="レイヤー 2" xmlns="http://www.w3.org/2000/svg" viewBox="0 0 173.52 207.19">
  <g id="komatsuna">
    <g>
      <path d="M108.12,21.06l7.01,26.99,3.98-8.99c.2,5.16-2.65,10.61-2.99,15.51-.24,3.46,1.03,6.29.9,8.87-.25,4.89-1.62,10.62-1.89,15.61,7.46-9.93,15.26-19.39,25.99-26,3.12-1.92,12.71-6.89,15.94-7.56,2.19-.45,10.44-1.05,11.85-.23s3.85,9.32,4.1,11.39c4.45,38.06-21.04,80.1-59.89,87.39,2.59-6.29,4.24-11.54,7.48-18.02,8.11-16.24,18.56-31.58,26.03-47.96-7.31,9.77-14.12,20.17-20.31,30.68-4.4,7.47-15.97,26.18-18.2,33.3-1.15-2.32-2.61-6.55-3-9-.85-5.29-.38-12.26-.92-17.56-.25-2.39-1.17-1.09-2.08-1.44-.13-.05-.15-1.22-.98-1-.4,2.22-1.29,4.49-3.02,6-1.81,1.59-6.94,2.93-7,7-.3-.2-1.42.13-2,0-.4-24.92-.83-49.97-1-75-.05-6.98.04-14.01,0-20.99-1.23-1.62-1.81.02-2,1.48-.66,5.19.17,12.02,0,17.52-.77,25.04-1.5,50.23-.95,75.41-.18,1.19-1.8.38-2.05.59-.41.33-4.84,6.6-5,7-2.91-4.48-2.56-10.06-4.5-15-.57-1.45-2.28-5.42-4.5-5-1.42-6.96-5.33-10.77-7.48-17.02-1.47-4.29-1.5-9.15-2.81-13.19-3.06-9.49-18.29-23.4-26.72-28.78,1.33-11.58,2.24-24.79,8.59-34.91,8.17-13.05,16.35-1.86,25.85,2.9C71.09,14.1,78.62-1.21,88.54.08c7.26.94,14.8,16,19.59,20.98ZM147.62,76.06v1c.65-.33.65-.67,0-1Z" fill="#627e30"/>
      <path d="M32.12,53.06c8.43,5.38,23.65,19.3,26.72,28.78,1.3,4.04,1.34,8.9,2.81,13.19,2.14,6.26,6.05,10.07,7.48,17.02.65,3.19.53,6.6,1.07,9.43.65,3.38,4.76,7.5,1.93,11.57-.19-.13-1.89-.99-2-1l-.5-.98-.5.98c-1.51.39-3.73,7.2-4,9-6.18-9.26-10.6-19.71-16.19-29.31-4.42-7.59-10.06-16.77-15.23-23.8-.38-.52-1.07-3.64-2.57-1.89-1.7,1.98,23.67,39.81,24.52,45.97l4.48,12.02C27.1,138.03,3.04,104.8.25,72.43c-.64-7.44-.85-27.86,9.45-28.29,6.31-.27,17.03,5.47,22.42,8.92ZM21.62,70.06v1c.65-.33.65-.67,0-1ZM24.12,72.06c-4.59-1.18.58,6.5,2,4.99s-3.55-2.72-2-4.99ZM26.62,78.06v1c.65-.33.65-.67,0-1ZM31.12,85.05c1.06-1.13-2.61-4.05-3.5-4.97.47,1.64,1.89,6.69,3.5,4.97Z" fill="#495c2b"/>
      <path d="M141.12,53.06c-10.73,6.61-18.53,16.07-25.99,26,.27-4.99,1.64-10.72,1.89-15.61.13-2.58-1.14-5.41-.9-8.87.34-4.9,3.19-10.36,2.99-15.51l-3.98,8.99-7.01-26.99c4.48-3.76,12.21-10.02,18.45-9.01,9.58,1.55,15.47,32.58,14.55,41.01Z" fill="#495c2b"/>
      <path d="M89.12,127.06c.23,13.98-.17,28.02,0,42-.02.55,1.09,2.61,1.04,4.43-.29,11.18.13,22.4-.04,33.57-2,.22-4.94.14-7,0,2.14-6.54.09-12.41-.04-18.46-.12-5.49.37-11.08.04-16.54,1.84-2.64.98-7.54,1-11,.05-10.52,1-23.87,0-34h5Z" fill="#b0ca7f"/>
      <path d="M65.12,144.06c.12.4,1.68,1.89,2.19,3.28,4.1,11.26,7.41,21.6,9.52,33.51.47,2.62.87,13.64,1.29,14.22.16.22,1.84-.22,2,0,.3.4.27,9.58,0,10-.61.97-7.38,3.05-8.04.33-.87-3.59.41-11.45.08-15.87-1.15-15.57-4.92-29.84-10.04-44.46.16,0,1.51-1.74,3-1Z" fill="#b0ca7f"/>
      <path d="M108.12,145.06c-.53,2.7-2.35,6.94,1,6-4.17,11.76-7.46,27.01-8.04,39.46-.14,2.93,1.16,13.25.97,13.92-.67,2.36-5.02,1.56-6.93,1.63-.67-16.45,1.76-32.96,6.97-48.54,1.3-3.88,3.24-9.45,6.04-12.46Z" fill="#b0ca7f"/>
      <path d="M82.12,161.06c.32,3.69.78,7.29,1,11,.33,5.46-.16,11.06-.04,16.54.13,6.05,2.18,11.91.04,18.46-2.28-.15-3.47.89-3-2,.27-.42.3-9.6,0-10-1.94-18.17-1.59-36.92-5-55,2.31.84,2.2-2.28,3-5,2.51,8.36,3.26,17.33,4,26Z" fill="#94ba52"/>
      <path d="M97.12,148.06c-.73,6.42-.56,13.08-2.04,19.46l-.95,37.04c-.25,2.8-1.96,2.28-4,2.5.17-11.17-.25-22.39.04-33.57.05-1.82-1.06-3.88-1.04-4.43.18-4.36,2.25-13.01,3-18l1.38-.03c1.1.9.05,2.4,1.61,2.02.27-2.7-1.23-5.72,2.01-5Z" fill="#94ba52"/>
      <path d="M113.12,144.06c-.89,2.17-3.06,4.36-4,7-3.35.94-1.53-3.3-1-6,.18-.9-.23-2.25,0-3,2.23-7.12,13.8-25.83,18.2-33.3,6.19-10.51,13-20.91,20.31-30.68-7.47,16.38-17.92,31.72-26.03,47.96-3.24,6.48-4.89,11.73-7.48,18.02Z" fill="#a9c56e"/>
      <path d="M60.12,144.06l-4.48-12.02c-.85-6.16-26.21-43.99-24.52-45.97,1.51-1.76,2.19,1.36,2.57,1.89,5.17,7.03,10.8,16.21,15.23,23.8,5.6,9.6,10.02,20.05,16.19,29.31-.1.65-.15,2.5,0,3-1.49-.74-2.84.99-3,1-1.26.04-1.83-.97-2-1Z" fill="#94ba52"/>
      <path d="M102.12,114.06c1.37,5.98-2.46,11.33-2.98,16.7-.2,2.09,1,3.13.98,3.3-.63,4.44-2.51,9.67-3,14-3.24-.72-1.74,2.3-2.01,5-1.57.38-.52-1.12-1.61-2.02l-1.38.03c.25-1.64.71-3.33,1-5,2.67.84,2.91-2.28,1-4,.5-2.63.4-6.26,1-9,.86-3.96,4.09-9.03,3-14,1.73-1.52,2.62-3.79,3.02-6,.83-.22.85.96.98,1Z" fill="#89ac47"/>
      <path d="M102.12,114.06c.91.34,1.83-.95,2.08,1.44.55,5.3.08,12.28.92,17.56l-5,1c.02-.17-1.18-1.21-.98-3.3.51-5.37,4.35-10.72,2.98-16.7Z" fill="#495c2b"/>
      <path d="M88.12,51.06c.17,25.03.6,50.08,1,75,0,.33,0,.67,0,1h-5c-.05-.53-.81-1.37-1-2,.25-.2,1.87.6,2.05-.59-.55-25.18.18-50.38.95-75.41l2,2Z" fill="#94ba52"/>
      <path d="M69.12,112.06c2.22-.41,3.93,3.56,4.5,5,1.94,4.93,1.6,10.52,4.5,15-.27.66.24,2.2,0,3-.8,2.72-.69,5.84-3,5-.55-2.93-.64-5.41-3-7,2.83-4.07-1.28-8.18-1.93-11.57-.54-2.83-.42-6.24-1.07-9.43Z" fill="#89ac47"/>
      <path d="M98.12,119.06c1.09,4.97-2.14,10.04-3,14-1.91-1.01-2.96-6.31-4-7,.06-4.07,5.19-5.41,7-7Z" fill="#495c2b"/>
      <path d="M86.12,49.06c.17-5.49-.66-12.33,0-17.52.19-1.46.76-3.1,2-1.48.04,6.98-.04,14.01,0,20.99l-2-2Z" fill="#89ac47"/>
      <path d="M147.62,76.06c.65.33.65.67,0,1v-1Z" fill="#a9c56e"/>
      <path d="M24.12,72.06c-1.55,2.27,3.42,3.49,2,4.99s-6.59-6.17-2-4.99Z" fill="#749435"/>
      <path d="M31.12,85.05c-1.61,1.72-3.04-3.34-3.5-4.97.9.92,4.57,3.85,3.5,4.97Z" fill="#94ba52"/>
      <path d="M21.62,70.06c.65.33.65.67,0,1v-1Z" fill="#749435"/>
      <path d="M26.62,78.06c.65.33.65.67,0,1v-1Z" fill="#94ba52"/>
      <path d="M70.12,132.06c-.27-.03-.74-.07-1,0l.5-.98.5.98Z" fill="#89ac47"/>
      <path d="M94.12,142.06c1.91,1.72,1.67,4.84-1,4,.3-1.68.8-2.93,1-4Z" fill="#94ba52"/>
    </g>
  </g>
</svg>