<?xml version="1.0" encoding="UTF-8"?>
<svg id="_レイヤー_2" data-name="レイヤー 2" xmlns="http://www.w3.org/2000/svg" viewBox="0 0 180.73 241.61">
  <g id="kyuri">
    <g>
      <path d="M161.14,104.11c-.88.53-7.55,15.85-9,18.5-8.06,14.78-17.08,29.47-26.78,43.22-2.51,3.55-12.98,15.12-13.88,17.12-1.22,2.73.46,6.58-1.48,8.52-1.59,1.58-5.23,1.09-7.58,2.42-3.03,1.72-6.82,8.01-9.42,10.58-17.59,17.4-57.61,51.97-82.68,30.13-21.94-19.12-4.21-46.49,10.14-63.67,9.43-11.29,32.47-29.81,38.57-40.43,1.48-2.57.61-6.83,2.16-8.33,1.41-1.37,4.51-.45,7.24-3.27,12.98-13.38,31.75-49.48,41.06-66.94,10.1-18.93,22.02-58.76,50.92-50.96,25.88,6.98,21.54,42.59,16.48,62.36-1.13,4.42-5.49,14.31-5.78,17.34-.23,2.5,2.3,3.31,1.71,6.48-.86,4.7-6.52,4.89-6.85,6.3-.31,1.33,4.27,5.91.52,9.48-1.76,1.68-4.19.44-5.36,1.14ZM136.97,32.95c-2.89-.56-1.6.84-2.25,2.19-27.99,57.5-60.6,106.74-104.72,153.33l-11.02,14.47c1.03,1.01,4.21-2.63,5.02-3.47,14.29-14.8,29.12-29.89,42.49-45.51,30.58-35.72,54.69-76.62,70.48-121.01ZM160.97,50.95c-2.66-.51-1.74.56-2.44,2-16.18,33.09-30.97,72.25-55.56,100.53-.84.96-2.68,1.33-2.87,1.63-.71,1.17,1.64,5.83.88,7.83,1.86.44,1.94-.62,2.83-1.66,4.17-4.88,9.24-12.55,12.98-18.02,18.9-27.63,34.69-60.17,44.18-92.31ZM99.97,164.95c-2.27-.51-5.62,2.22-3.99,3.99.85.92,4.68-2.14,3.99-3.99ZM93.97,170.95c-1.43.25-3.17-1-4.38-.78-1.8.33-12.6,15.03-15.11,17.78-9.05,9.92-19.24,17.52-28.53,26.47-5.01,4.83-.99,3.54,2.89.89,6.06-4.13,13.65-10.01,19.14-14.86,5.94-5.26,21.13-19.89,25.03-25.96.79-1.23,1.25-1.99.95-3.54Z" fill="#497631"/>
      <path d="M136.97,32.95c-15.79,44.38-39.9,85.29-70.48,121.01-13.37,15.62-28.2,30.71-42.49,45.51-.81.84-3.99,4.48-5.02,3.47l11.02-14.47c44.12-46.59,76.72-95.82,104.72-153.33.66-1.35-.64-2.76,2.25-2.19Z" fill="#3e6627"/>
      <path d="M160.97,50.95c-9.49,32.14-25.28,64.69-44.18,92.31-3.74,5.47-8.81,13.14-12.98,18.02-.89,1.04-.97,2.1-2.83,1.66.76-2-1.59-6.66-.88-7.83.18-.3,2.03-.67,2.87-1.63,24.59-28.28,39.38-67.44,55.56-100.53.7-1.44-.22-2.51,2.44-2Z" fill="#3e6627"/>
      <path d="M93.97,170.95c.3,1.55-.16,2.31-.95,3.54-3.91,6.08-19.09,20.71-25.03,25.96-5.49,4.85-13.08,10.73-19.14,14.86-3.88,2.64-7.9,3.93-2.89-.89,9.29-8.95,19.48-16.55,28.53-26.47,2.51-2.75,13.31-17.45,15.11-17.78,1.21-.22,2.95,1.03,4.38.78Z" fill="#3e6627"/>
      <path d="M99.97,164.95c.69,1.85-3.14,4.91-3.99,3.99-1.63-1.77,1.72-4.5,3.99-3.99Z" fill="#3e6627"/>
    </g>
  </g>
</svg>