<?xml version="1.0" encoding="UTF-8"?>
<svg id="_レイヤー_2" data-name="レイヤー 2" xmlns="http://www.w3.org/2000/svg" viewBox="0 0 182.5 186.55">
  <g id="mini_tomato" data-name="mini tomato">
    <g>
      <path d="M40.93,19.41c.56,0,3.68.75,2.55,1.98-2.89,1.05-6.26,3.22-8.58,5.34-1.07.98-2.85,2.33-2.89,3.96h11.15c1.52,0,6.21-2.64,7.37-1.72,1.11,4.54,2.14,8.49,4.69,12.42.33.5.26,1.76,1.32,1.24,2.11-1.04,5.42-11.12,4.79-13.94,6.4,1.33,12.51,2.6,19.12,1.99,1.46-1.35-9.57-9.47-11.47-9.3.19-1,3.14-1.97,3.82-1.98,6.72-.13,20.99,11.01,25.51,16.24,35.31,40.79,1.28,103.65-50.61,95.84C4.08,124.93-15.66,69.56,14.46,35.33c5.05-5.74,18.96-15.93,26.46-15.92ZM26.75,37.46c-10.75,1.57-15.43,20.04-1.48,17.75,9.27-1.52,14.04-19.58,1.48-17.75Z" fill="#cd2d2c"/>
      <path d="M53.67,15.42c.07,2.13-.76,6.39,2.26,6.67,3.25.3,2.83-4.15,3.47-6.67,6.18-2.28,12.4-4.4,19.12-3.98.14,3.88-3.67,5.5-5.74,7.96-.68.01-3.63.98-3.82,1.98,1.9-.18,12.93,7.95,11.47,9.3-6.61.61-12.72-.66-19.12-1.99.63,2.82-2.68,12.9-4.79,13.94-1.06.52-.99-.74-1.32-1.24-2.55-3.93-3.59-7.88-4.69-12.42-1.16-.92-5.85,1.72-7.37,1.72h-11.15c.03-1.63,1.81-2.98,2.89-3.96,2.32-2.12,5.7-4.29,8.58-5.34,1.13-1.23-1.99-1.98-2.55-1.98-2.06-2.7-6.37-3.78-6.37-7.96,6.63-.24,13.05,1.44,19.12,3.98Z" fill="#5e8030"/>
      <path d="M59.41,15.42c-.64,2.52-.22,6.97-3.47,6.67-3.02-.28-2.2-4.53-2.26-6.67,0-.22,0-.44,0-.66l.63-.99-.63-.34c.39-5.19,2.11-15.29,9.11-13.14,5.29,1.63-.01,5.56-1.17,7.79s-1.57,4.87-2.2,7.33Z" fill="#56762a"/>
      <path d="M53.67,14.76c0-.44-.03-.89,0-1.33l.63.34-.63.99Z" fill="#5e8030"/>
      <path d="M26.75,37.46c12.56-1.83,7.79,16.22-1.48,17.75-13.95,2.29-9.26-16.18,1.48-17.75Z" fill="#de5956"/>
      <path d="M110.63,73.8c.56,0,3.68.75,2.55,1.98-2.89,1.05-6.26,3.22-8.58,5.34-1.07.98-2.85,2.33-2.89,3.96h11.15c1.52,0,6.21-2.64,7.37-1.72,1.11,4.54,2.14,8.49,4.69,12.42.33.5.26,1.76,1.32,1.24,2.11-1.04,5.42-11.12,4.79-13.94,6.4,1.33,12.51,2.6,19.12,1.99,1.46-1.35-9.57-9.47-11.47-9.3.19-1,3.14-1.97,3.82-1.98,6.72-.13,20.99,11.01,25.51,16.24,35.31,40.79,1.28,103.65-50.61,95.84-43.62-6.56-63.36-61.93-33.24-96.17,5.05-5.74,18.96-15.93,26.46-15.92ZM96.46,91.85c-10.75,1.57-15.43,20.04-1.48,17.75,9.27-1.52,14.04-19.58,1.48-17.75Z" fill="#cd2d2c"/>
      <path d="M123.38,69.82c.07,2.13-.76,6.39,2.26,6.67,3.25.3,2.83-4.15,3.47-6.67,6.18-2.28,12.4-4.4,19.12-3.98.14,3.88-3.67,5.5-5.74,7.96-.68.01-3.63.98-3.82,1.98,1.9-.18,12.93,7.95,11.47,9.3-6.61.61-12.72-.66-19.12-1.99.63,2.82-2.68,12.9-4.79,13.94-1.06.52-.99-.74-1.32-1.24-2.55-3.93-3.59-7.88-4.69-12.42-1.16-.92-5.85,1.72-7.37,1.72h-11.15c.03-1.63,1.81-2.98,2.89-3.96,2.32-2.12,5.7-4.29,8.58-5.34,1.13-1.23-1.99-1.98-2.55-1.98-2.06-2.7-6.37-3.78-6.37-7.96,6.63-.24,13.05,1.44,19.12,3.98Z" fill="#5e8030"/>
      <path d="M129.11,69.82c-.64,2.52-.22,6.97-3.47,6.67-3.02-.28-2.2-4.53-2.26-6.67,0-.22,0-.44,0-.66l.63-.99-.63-.34c.39-5.19,2.11-15.29,9.11-13.14,5.29,1.63-.01,5.56-1.17,7.79s-1.57,4.87-2.2,7.33Z" fill="#56762a"/>
      <path d="M123.38,69.16c0-.44-.03-.89,0-1.33l.63.34-.63.99Z" fill="#5e8030"/>
      <path d="M96.46,91.85c12.56-1.83,7.79,16.22-1.48,17.75-13.95,2.29-9.26-16.18,1.48-17.75Z" fill="#de5956"/>
    </g>
  </g>
</svg>