<?xml version="1.0" encoding="UTF-8"?>
<svg id="_レイヤー_2" data-name="レイヤー 2" xmlns="http://www.w3.org/2000/svg" viewBox="0 0 90.78 219.13">
  <g id="naganegi">
    <g>
      <path d="M62,108c.26,7.56,1.33,16.6,2,24.5,1.46,17.21,9.82,55.26,1.19,69.2-.67,1.08-6.71,8.05-7.19,8.31-1.75.92-10.13,2.06-12.5,2.06-3.05,0-9.87-.85-12.5-2.06-11.79-5.41-12.56-22.54-11.99-33.49,1.18-22.7,6.23-45.85,6.99-68.51,11.27-3.94,22.84-4.5,34,0Z" fill="#ecebdd"/>
      <path d="M81,41c-10.43,20.67-19.81,43.3-19,67-11.16-4.5-22.73-3.94-34,0,.12-3.56.18-7.45,0-11,2.82.59,1.89-1.39,2.3-3.15,3.23-14.01,8.52-27.9,14.7-40.85,3.48-7.29,9.02-18.02,13-25,.49-.87,3.46-3.1,4-4,6.68,5.35,13.62,10.26,19,17Z" fill="#88ab3e"/>
      <path d="M32,28c4.62,8.07,7.69,17.27,13,25-6.18,12.95-11.47,26.84-14.7,40.85-.41,1.76.52,3.74-2.3,3.15-.73-14.33-6.4-28.41-12.14-41.36C13.82,51.03-.03,26.2,0,24.45c.03-1.42.68-1.63,1.62-2.34,1.76-1.31,18.66-10.18,19.75-9.97,3.91,3.6,6.07,9.58,8.8,14.23.52.89,1.68,1.35,1.84,1.63Z" fill="#759732"/>
      <path d="M58,28c-3.98,6.98-9.52,17.71-13,25-5.31-7.73-8.38-16.93-13-25,.7-7.76-.94-16.99-.05-24.55.12-1.01.46-3.45,1.55-3.45h23c1.1,0,1.43,2.44,1.55,3.45.89,7.56-.75,16.79-.05,24.55Z" fill="#627f2c"/>
      <path d="M81,41c-5.38-6.74-12.32-11.65-19-17,1.25-2.09,4.07-11.32,6.6-11.92,3.38,2.02,20.65,8.84,21.98,10.9,1.72,2.67-8.05,14.98-9.58,18.02Z" fill="#7ea038"/>
      <path d="M58,210c-.34,1.7.57,7.09-.11,7.9-1.26,1.49-22.22,1.71-24.31.22-1.43-1.02-.21-6.2-.58-8.11,2.63,1.21,9.45,2.07,12.5,2.06,2.37,0,10.75-1.14,12.5-2.06Z" fill="#dad4be"/>
    </g>
  </g>
</svg>