<?xml version="1.0" encoding="UTF-8"?>
<svg id="_レイヤー_2" data-name="レイヤー 2" xmlns="http://www.w3.org/2000/svg" viewBox="0 0 145.48 157.58">
  <g id="okura">
    <g>
      <path d="M66.24,1.18c2.45,15.41,7.99,30.33,10.73,45.77,2.35,13.23,3.73,26.8,4.28,40.23l6.93-15.55c1.41-23.24-8.28-42.27-17.4-62.48-.37-.82-2.14-3.65-.54-3.96,14.59,13.76,24.33,30.06,28.01,50,10.23-11.7,22.25-22.42,36.99-28-14.26,16.5-27.85,29.69-37.17,50.33-2.73,6.05-9.75,28.52-13.34,31.66-3.29,2.87-3.86-1.05-6.19-1.79-2.04-.65-7.37.26-7.28,2.31.03.61,9.11,7.2,9.7,7.36,2.98.79,5.23-1.98,10.68.24,5.96,2.43,6.09,7.19,8.63,9.36,1.63,1.39,10.35,4.6,12.97,4.53-.59,6.1-8.08,3.47-12.49,4.01-3.09.38-10.19,1.06-12.46,2.54-4.17,2.72-4.23,13.03-9.32,12.3-8.86-1.26,1.55-11.93,1.06-17.12-.21-2.21-5.55-13.36-7.78-11.74-1.93,8.54-10.94,15-8.8,24.29.75,3.28,6,6.41,2.88,10.29-4.92,6.11-7.66-4.92-9.65-7.52-5.82-7.61-16.41-3.79-24.48-6.52-1.98-.67-2.83-1.45-2.96-3.54,2.61-.19,12.58-3.34,13.98-4.52,1.98-1.66.8-5.17,5.31-7.68,4.93-2.75,7.87-1.09,12.98-.96l9.71-7.33c-5.74-8.4-8.16,3.24-12.01-.99-5.46-6-10.7-26.51-14.81-35.19-6.31-13.32-18.52-29.7-29.7-39.3-.93-.8-6.78-5.72-7.47-5.02l20.17,32.32c4.61,9,9.86,17.75,14,27,1.26,2.83,8.83,20.9,8.81,22.2-.03,1.77-2.28,3.42-3.62,4.4-1.24.26-1.66-.75-2.36-1.42-3.78-3.6-13.34-21.29-16.18-26.82C18.12,75.42,11.16,54.47,3.24,34.18c2.96-2.94,2.63.44,3.76.92,1.07.45,2.61.2,3.95.85,13.48,6.64,28.63,18.95,37.29,31.22.39.55-.8,2.44.99,1.99.46-.78-.98-1.84-.99-1.99-2.15-24.44,4.26-45.52,15.01-66.99,1.74-.63,2.15.54,2.99.99ZM76.51,97.99c-2.55-1.81-8.53-34.26-9.14-39.44-1.97-16.84-.31-34.99-2.09-50.91-.17-1.5-.21-3.09-2.02-3.46-4.93,22.4-7.06,45.32-2.56,68.05.94,4.77,8.77,26.79,7.11,29.03-1.14,1.54-4.72-.69-3.56,4.4,1.42,6.23,14.58-3.23,14.89-4.09,1.62-4.53-1.58-2.84-2.63-3.58Z" fill="#6d9442"/>
      <path d="M143.24,28.18l-5.29,28.21c-2.74,11.39-7.2,21.92-12.91,32.09-4.37,7.79-17.12,23.09-19.34,29.66-1.76,5.23,2.22,7.71,6.54,6.04.1,2.35,1.23,4.6,1,7-2.62.06-11.34-3.15-12.97-4.53-2.54-2.17-2.67-6.94-8.63-9.36-5.45-2.22-7.7.55-10.68-.24-.59-.16-9.68-6.75-9.7-7.36-.09-2.05,5.23-2.96,7.28-2.31,2.32.74,2.9,4.66,6.19,1.79,3.6-3.14,10.61-25.6,13.34-31.66,9.32-20.64,22.92-33.83,37.17-50.33,1.87-2.16,3.48-3.33,6.46-3.99,2.17,1.17,1.18,3.37,1.54,4.99ZM140.24,28.18c-2.59-.6-1.74.76-2.58,1.89-14.96,20.29-37.33,56.14-43.93,80.11-1.3,4.73,2.13,6.48,4.99,4,2.65-2.29,12.35-19.14,14.69-23.33,10.9-19.51,20.21-41.32,26.82-62.66Z" fill="#84a64b"/>
      <path d="M3.24,34.18c7.92,20.29,14.88,41.25,24.82,60.68,2.83,5.53,12.39,23.22,16.18,26.82.7.67,1.12,1.69,2.36,1.42,1.34-.98,3.59-2.62,3.62-4.4.02-1.31-7.54-19.37-8.81-22.2-4.14-9.24-9.39-18-14-27L7.25,37.18c.69-.69,6.53,4.22,7.47,5.02,11.18,9.6,23.38,25.98,29.7,39.3,4.11,8.68,9.34,29.19,14.81,35.19,3.86,4.24,6.27-7.41,12.01.99l-9.71,7.33c-5.11-.13-8.05-1.79-12.98.96-4.52,2.52-3.33,6.02-5.31,7.68-1.4,1.18-11.37,4.32-13.98,4.52-.13-2.2,1.22-4.76,3-6,1.65-1.15,6.39-.78,5.62-5.02-1.43-7.93-16.03-24.94-20.44-33.66s-8.32-20.97-10.5-30.5c-1.97-8.61-2.41-17.34-4.67-25.83.31-1.21-.37-1.65,1-3Z" fill="#84a64b"/>
      <path d="M112.24,124.18c-4.31,1.67-8.3-.82-6.54-6.04,2.22-6.57,14.97-21.87,19.34-29.66,5.71-10.17,10.17-20.71,12.91-32.09l5.29-28.21c6.53,30.03-1.42,62.72-21.49,86.01-1.15,1.33-8.87,9.74-9.51,9.99Z" fill="#6d9442"/>
      <path d="M32.24,132.18c-13.66-13.14-24.38-29.68-29.28-48.22-3.5-13.25-4.09-33.5-.72-46.78,2.26,8.49,2.7,17.22,4.67,25.83,2.18,9.53,6.11,21.81,10.5,30.5s19.01,25.73,20.44,33.66c.76,4.24-3.98,3.87-5.62,5.02Z" fill="#6d9442"/>
      <path d="M70.24,5.18c-1.6.31.17,3.14.54,3.96,9.12,20.21,18.81,39.24,17.4,62.48l-6.93,15.55c-.55-13.42-1.93-27-4.28-40.23-2.74-15.44-8.28-30.36-10.73-45.77,2.31,1.26,2.6,2.68,4,4Z" fill="#84a64b"/>
      <path d="M76.51,97.99c1.04.74,4.25-.95,2.63,3.58-.31.85-13.47,10.32-14.89,4.09-1.16-5.09,2.42-2.86,3.56-4.4,1.66-2.24-6.17-24.26-7.11-29.03-4.49-22.73-2.36-45.65,2.56-68.05,1.82.38,1.86,1.97,2.02,3.46,1.78,15.92.12,34.07,2.09,50.91.61,5.18,6.59,37.63,9.14,39.44Z" fill="#84a64b"/>
      <path d="M48.24,67.18c.01.16,1.45,1.22.99,1.99-1.79.45-.6-1.44-.99-1.99Z" fill="#98b457"/>
      <path d="M140.24,28.18c-6.61,21.34-15.93,43.16-26.82,62.66-2.34,4.19-12.04,21.04-14.69,23.33-2.86,2.47-6.29.73-4.99-4,6.6-23.97,28.97-59.82,43.93-80.11.83-1.13-.01-2.49,2.58-1.89Z" fill="#6d9442"/>
    </g>
  </g>
</svg>