<?xml version="1.0" encoding="UTF-8"?>
<svg id="_レイヤー_2" data-name="レイヤー 2" xmlns="http://www.w3.org/2000/svg" viewBox="0 0 135.24 161.13">
  <g id="papurika">
    <g>
      <path d="M87.18,45.17c.86.5,7.01,8.29,7.83,9.67,12.2,20.72,5.68,69.61-4.97,90.68-.98,1.93-5.67,9.58-6.85,10.65-4.92,4.42-16.27,6.05-22.56,4.06-.79-.25-8.07-3.77-8.44-4.06-16.68-12.92-21.56-73.14-15.72-92.22,2.44-7.97,7.18-12.17,10.72-18.78,8.61-1.99,14.3-4.6,23.54-4.04,3.4.2,13.82,2.51,16.46,4.04Z" fill="#f7ca34"/>
      <path d="M83.18,156.17c1.18-1.06,5.88-8.72,6.85-10.65,10.66-21.07,17.17-69.96,4.97-90.68-.82-1.39-6.96-9.17-7.83-9.67,1.37-5.68-7.06-7.16-10-10,3.4.14,6.87-.35,10.26.24s6.53,3.41,9.33,3.75c3.91.46,7.99-1.89,11.8-1.87,41.35.17,24.12,63.18,16.87,86.65-6.18,20-15.71,48.8-42.27,32.23Z" fill="#f2b929"/>
      <path d="M57.18,35.17c-2.54,2.41-6.39,2.99-8.57,5.95-1.54,2.09-1.03,3.3-1.43,4.05-3.54,6.61-8.28,10.82-10.72,18.78-5.85,19.07-.96,79.29,15.72,92.22-23.9,15.01-33.74-7.1-40.26-26.24-7.54-22.11-25.2-81.25,5.54-90.99,9.39-2.98,14.19,1.03,21.13.22,4.88-.57,11.6-6.52,18.6-3.99Z" fill="#f2b929"/>
      <path d="M77.18,35.17c2.94,2.84,11.37,4.32,10,10-2.63-1.53-13.06-3.84-16.46-4.04-9.25-.56-14.94,2.05-23.54,4.04.4-.75-.11-1.96,1.43-4.05,2.18-2.96,6.03-3.54,8.57-5.95,3.24-3.08,4.04-13.67,6.5-19,3.27-7.07,13.72-19.21,22.48-15.48,2.68,1.14,6.28,7.75,5.83,10.75-.85,5.7-4.69,2.43-7.81,3.13-7.2,1.62-12.19,15.56-7,20.59Z" fill="#6d9442"/>
    </g>
  </g>
</svg>