<?xml version="1.0" encoding="UTF-8"?>
<svg id="_レイヤー_2" data-name="レイヤー 2" xmlns="http://www.w3.org/2000/svg" viewBox="0 0 135.69 161.46">
  <g id="piman">
    <g>
      <path d="M87.83,46.37c9.28,5.71,13.22,21.35,13.99,31.51,1.4,18.46-3.75,61.53-16.56,75.45-.89.96-2.53.77-3.17,1.33-.56.49-.16,1.63-.26,1.71-6.04,4.65-12.31,6.16-19.82,4.32-1-.25-9.63-3.91-10.18-4.32-9.87-7.2-17.32-48.18-18.04-60.46-1.13-19.28-.22-34.45,13.54-48.58.57-.59.39-1.9.5-1.96.64-.42,13.22-3.54,14.78-3.72,7.38-.84,18.85.8,25.22,4.72Z" fill="#7ba646"/>
      <path d="M81.83,156.37c.1-.08-.29-1.22.26-1.71.64-.56,2.28-.36,3.17-1.33,12.81-13.92,17.96-57,16.56-75.45-.77-10.16-4.71-25.81-13.99-31.51,1.4-6.51-7.32-5.89-6-12,6.71.35,12.5,5.25,15.67,5.76,1.61.26,3.91-1.54,5.92-1.68,44.38-3.22,32.33,46.73,25.34,74.34-5.82,22.98-14.92,61.95-46.92,43.58Z" fill="#6d9442"/>
      <path d="M55.83,35.37c-.11.13.19,1.27-.7,2.02-2.27,1.91-10.15,4-7.3,7.98-.11.07.07,1.38-.5,1.96-13.76,14.13-14.67,29.29-13.54,48.58.72,12.28,8.18,53.26,18.04,60.46-27.61,17.12-36.95-15.49-42.72-35.78C4.38,103.94-3.04,73.73,1.32,57.37c5.32-19.96,21.1-20.79,38.51-17.99,2.4.38,4.55,3.34,4-2,4.39-2.01,6.93-2.53,12-2Z" fill="#6d9442"/>
      <path d="M55.83,35.37c.2-.23,1.88.24,2.8-1.66,3.87-8.01,2.94-15.43,9.79-24.25,9.68-12.48,24.24-14.32,22.96,4.97-1.17,1.75-3.63.07-5.6.38-9.19,1.43-10.66,13.05-9.94,20.57,2.09-.34,3.78-1.11,5.99-1-1.32,6.11,7.4,5.49,6,12-6.37-3.92-17.84-5.56-25.22-4.72-1.56.18-14.14,3.3-14.78,3.72-2.85-3.98,5.03-6.08,7.3-7.98.89-.75.59-1.89.7-2.02Z" fill="#45673d"/>
      <path d="M43.83,37.37c.55,5.34-1.6,2.38-4,2,1.06-1.2,2.64-1.38,4-2Z" fill="#45673d"/>
    </g>
  </g>
</svg>