<?xml version="1.0" encoding="UTF-8"?>
<svg id="_レイヤー_2" data-name="レイヤー 2" xmlns="http://www.w3.org/2000/svg" viewBox="0 0 186.56 215.57">
  <g id="potato">
    <g>
      <path d="M119.1.09c32.3-1.71,64.02,22.44,67.06,55.34,3.13,33.85-13.08,45.83-23.05,73.7-9.71,27.16-10.47,46.21-34.3,66.7-55.59,47.81-146.59,3.21-125.79-73.79,7.33-27.14,25.47-40.59,41.66-61.34C65.63,33.85,78.74,2.22,119.1.09ZM153.29,33.79c3.74-3.5-19.11-17.68-24-13.99v2.99c6-.42,12.78,2.38,17.5,6,1.48,1.14,4.51,6.85,6.5,5ZM109.29,39.8c-.29-.33-3.23,1.04-4.48,1.01-3.73-.09-10.65-2.16-13.85-4.17-1.31-.82-6.77-7.63-7.66-3.32-.99,4.8,20.22,13.38,25.41,9.57.92-.68.78-2.85.58-3.08ZM160.54,61.04c-3.85,3.78,2.4,11.47,7.32,7.83,6.69-4.94-2.55-12.52-7.32-7.83ZM170.29,74.8c-4.16.28-8.05-.14-11.97-1.53-4.82-1.7-7.55-5.67-12.02-7.47.91,7.91,14.56,13.29,21.49,11.99,1.71-.32,2.81-1.06,2.5-2.99ZM119.29,100.79c2.35-2.63-8.88-10.51-10.96-11.53-5.25-2.59-11.19-3.89-17.04-3.46v2.99c5.08-.41,10.02.96,14.7,2.81l13.3,9.19ZM60.29,112.79c-2.7-11.63-18.45-15.96-29-14.99v2.99c4.92-.15,10.68.42,15.3,2.21,5.9,2.29,8.29,7.44,13.7,9.79ZM134.29,150.79c2.48-2.44-9.37-11.06-11.33-12.16-5.98-3.36-12.76-5.39-19.67-4.83v2.99c10.24-.4,17.83,3.87,25.5,10.01,2.28,1.82,1.95,4.84,5.5,3.99ZM25.02,151.95c-5.69,1.52-5.58,13.37,3.56,10.65,6.8-2.02,3.08-12.42-3.56-10.65ZM85.53,184.56c4.5,4.5,14.82-1.6,8.78-8.28-6.39-7.07-13.61,3.45-8.78,8.28ZM64.29,197.79c-.7-7.77-13.84-14.34-20.63-14.91-2.03-.17-3.94-.56-5.36,1.43l13.67,4.31,12.32,9.17Z" fill="#cfa36b"/>
      <path d="M85.53,184.56c-4.83-4.83,2.39-15.35,8.78-8.28,6.04,6.68-4.28,12.79-8.78,8.28Z" fill="#a97e49"/>
      <path d="M134.29,150.79c-3.55.85-3.22-2.17-5.5-3.99-7.68-6.14-15.26-10.41-25.51-10.01v-2.99c6.91-.56,13.7,1.47,19.67,4.83,1.96,1.1,13.81,9.72,11.33,12.16Z" fill="#b98c58"/>
      <path d="M60.29,112.79c-5.41-2.35-7.8-7.5-13.7-9.79-4.62-1.79-10.38-2.36-15.3-2.21v-2.99c10.55-.97,26.3,3.36,29,14.99Z" fill="#b98c58"/>
      <path d="M25.02,151.95c6.64-1.77,10.36,8.62,3.56,10.65-9.14,2.72-9.24-9.13-3.56-10.65Z" fill="#a97e49"/>
      <path d="M119.29,100.79l-13.3-9.19c-4.68-1.85-9.61-3.22-14.7-2.81v-2.99c5.85-.43,11.79.87,17.04,3.46,2.07,1.02,13.31,8.91,10.96,11.53Z" fill="#b98c58"/>
      <path d="M109.29,39.8c.2.23.34,2.41-.58,3.08-5.19,3.81-26.4-4.78-25.41-9.57.89-4.31,6.35,2.5,7.66,3.32,3.2,2.01,10.13,4.08,13.85,4.17,1.25.03,4.19-1.34,4.48-1.01Z" fill="#b98c58"/>
      <path d="M64.29,197.79l-12.32-9.17-13.67-4.31c1.41-1.99,3.32-1.6,5.36-1.43,6.79.57,19.93,7.14,20.63,14.91Z" fill="#b98c58"/>
      <path d="M160.54,61.04c4.77-4.69,14.01,2.89,7.32,7.83-4.92,3.63-11.17-4.05-7.32-7.83Z" fill="#a97e49"/>
      <path d="M170.29,74.8c.31,1.93-.79,2.66-2.5,2.99-6.93,1.31-20.58-4.08-21.49-11.99,4.47,1.8,7.2,5.77,12.02,7.47,3.93,1.39,7.82,1.8,11.97,1.53Z" fill="#b98c58"/>
      <path d="M153.29,33.79c-1.99,1.86-5.02-3.86-6.5-5-4.72-3.62-11.5-6.42-17.5-6v-2.99c4.9-3.69,27.75,10.49,24,13.99Z" fill="#b98c58"/>
    </g>
  </g>
</svg>