<?xml version="1.0" encoding="UTF-8"?>
<svg id="_レイヤー_2" data-name="レイヤー 2" xmlns="http://www.w3.org/2000/svg" viewBox="0 0 110.73 208.69">
  <g id="saffron">
    <g>
      <path d="M39.21,143.61c-4.87,13.33,8.59,1.81,9.99,6.51,1.5,5.01-10.99,3.47-6.05,10.04,5.6,2.08,4.17-1.84,5.61-4.5,1.92-3.52,5.99-2.57,5.44,1.94-1.92.96-3.55,6.73.52,7.07,5.14.43,5.4-5.92,1.48-7.07-.52-3.03,1.58-4.98,4.4-3.92,3.08,1.15.01,9.35,7.6,6.92.03,3.7,5.66,13.43,6,21,.26,5.82-.27,9.26-3.17,14.33-2.17,3.79-11,12.69-15.31,12.75-8.03.11-22.33-18.22-19.52-27.07-5.5,1.47-10.41,4.99-16.39,4.89-4.18-.07-18.5-4.23-19.36-8.58-2.27-11.5,4.23-25.13,14.76-30.31,5.78-2.84,17.6-4.5,24-4Z" fill="#865aa7"/>
      <path d="M35.22,34.6c1.42.22,1.57-2.78,1.7-3.77.25-1.91.58-3.83.34-5.76-.38-3.12-3.54-5.27-2.92-7.76,1.05-4.22,9.19-3.65,8.64,1.64-.12,1.15-1.48,2.51-1.71,4.23-.34,2.58-2.2,14.46-1.6,15.43.52.84,3.91,2.45,4.52,2,1.12-4.65,2.53-8.09,8.02-7,1.13,5.4-2.12,5.8-5,8.99,4.67,1.65,12.22,4.43,15.55-1,.74-1.21-.69-3.72-.65-5.49.03-1.47,1.28-5.24,1.1-5.48-.16-.21-3.81-.92-5-1.52-6.2-3.15-4.24-3.03-11.27-3.77-5.09-.53-4.17-9.68,3.62-7.77,1.24.3,1.02,4.1,3.26,5.94,9.64,7.91,10.06-1.96,6.56-9.56-2.61-5.66-7.52-5.48-8.05-6.95-1.87-5.21,3.1-8.56,6.74-6.24.76.48,3.98,14.55,6.15,16.86,2.19-2.18,6.84-3.31,8.54.02s-5.39,8.17.02,11.85c2.29-1.5,5.83.31,7.41-.32,1.45-.58,6.43-6.83,8.54-8.51,2.62-2.09,8.91-4.96,10.45-6.55,1.35-1.4.86-3.57,3.3-4.78,4.77-2.37,7.7,4.84,4.32,7.41-1.35,1.03-6.16,1.27-9.27,2.73-3.48,1.64-7.15,4.99-9.32,8.17,3.76-1.06,9.55,1.11,12.56.91,1.43-.09,2.22-1.43,3.22-1.7,6.64-1.79,7.28,9-.28,7.87-2.45-.36-2.09-2.84-3.19-3.1-1.53-.36-10.99-1.05-12.56-.77-.86.15-4.69,1.49-4.74,2.78,2.56,2.76,11.02,1.71,12.06,2.44,2.56,1.79.82,9.19-3.42,8.41-2-.37-3.26-4.13-4.7-5.28-4.71-3.77-10.24-.74-7.04,4,.28.41,7.09,6.25,7.53,6.51,2.5,1.46,11.84,1.94,6.65,8.53-4.02,5.11-7.44-2.16-8.52-5.65l-9.56-5.93c-2.23,2.58,5,21.51,7.52,23.97,1.55,1.5,4.2.91,5.07,4,1.2,4.25-4.69,6.62-7.46,4.89-1.06-.66-.98-6.18-1.6-7.9s-2.26-3.1-3.03-4.97c-.86-2.11-3.29-10.16-4.01-10.99-.42-.5-11.4-4.94-12.06-4.95-.4,0-2.23,4.56-6.45,3.45,1.55,4.06,9.46,2.9,10.56,4.43,1.33,1.86,1.02,6.63-2.09,7.12-4.79.77-4.83-3.34-7.44-5.59-3.14-2.72-17.19-14.57-18.88-5.81-.19.98,7.15,11.82,8.4,13.3,1.57,1.86,5.2,3.36,5.98,5.09,1.9,4.18-3.75,8.33-7.07,4.99-1.54-1.54-1.13-4.93-2.05-6.94-.74-1.63-7.19-12.88-7.92-13.1-.89-.28-1.88-.38-2.51.71-.34.59-3.69,8.56-3.77,9.04-.24,1.36.71,2.81.35,4.3-1.05,4.38-9.27,4.93-8.59-1.51.25-2.34,8.54-6.86,6.01-9.52-.42-.45-10.49,3.28-11.72,3.77-1.54.61-2.53,2.57-3.99,3.02-5.96,1.82-8.07-2.38-5.36-7.36,3.15-1.99,5.37,1.51,8.07,1.19,2.04-.24,11.66-4.42,13.38-5.73,2.55-1.95,2.08-3.67.19-5.97-1.69-2.05-12.95-10.28-15.55-11.45-3.21-1.45-7.36.9-6.05-5.96.58-3.02,4.87-4.37,6.78-2.28,1.33,1.45.67,4.2,1.5,5.5,1.28,2.02,15.54,9.16,17.72,13.26-1.25-5.71-7.14-16.37-11.1-20.39-2.26-2.29-7.31-2.73-6.75-6.87.71-5.24,8.21-5.07,8.81-.19.14,1.11-.69,2.28-.36,3.49.75,2.81,9.85,15.19,12.4,17.96.16-4.81-3.1-8.37-4.49-12.99-1.63-5.38-2.2-14.28-4.17-18.76-.83-1.88-3.61-1.84-4.21-3.94-1.93-6.78,7.51-8.19,8.72-2.6.35,1.6-1.02,3.59-.8,5.67.78,7.54,4.52,16.98,5.97,24.63ZM69.2,30.61c-2.33-2.16-3.89,5.44-2.99,6.99,4.89,1.87,4.11-5.95,2.99-6.99ZM73.2,51.61c-.01-4.2.18-12.05-5.51-9.02-9.88,5.26-.21,6.8,5.51,9.02ZM43.21,47.6c.19.25,5.36,2.84,5.68,2.88,1.11.17,3.3-2.03,3.3-2.37,0-.65-6.77-3.6-7.42-3.47-.85.17-2.11,2.23-1.56,2.96Z" fill="#cd4b34"/>
      <path d="M75.21,113.61c-.16,6.85-6.92,18.47-7,21-6.12-4.52-6.28,11.76-10.88,5.36-2.68-3.72,1.2-3.95,1.75-6.07,1.43-5.57-5.84-5.48-6.77-1.59-.54,2.27,4.62,6.39.4,9.29-5.4,1.7-2.75-13.27-10.49-5.99-3.23-8.36-6.15-12.1-6-22s6.1-20.63,15.65-24.84c5.39-2.37,7.94.01,12.26,3.42,6.27,4.93,11.28,13.23,11.08,21.42Z" fill="#865aa7"/>
      <path d="M72.21,150.61c7.88.75,17.01-3.13,24-2,10.15,1.64,17.28,21.52,13.48,29.98-1.52,3.39-12.28,6.64-15.99,7-7.76.76-12.63-.92-19.49-3.99-.34-7.57-5.97-17.3-6-21,0-1.03,1.86-2.45.54-5-1.5-2.91-7.66-.48-6.54-7,3.92-.38,5.99,1.62,10,1.99Z" fill="#71478f"/>
      <path d="M36.21,113.61c-.15,9.9,2.77,13.64,6,22,.31.79-.48,2.87.43,4.04,1,1.28,7.06,1.04,6.5,4.34-.23,1.36-2.9,2.96-4.36,2.7-.88-.15.24-2.62-5.57-3.07-6.4-.5-18.22,1.16-24,4-10.15-4.72-14.6-14.68-15.03-25.55-.24-6.17,1.66-7.08,6.77-9.21,10.51-4.37,19.05-4.11,29.26.76Z" fill="#71478f"/>
      <path d="M96.21,146.61c-3.41.37-7.05-1.71-10.51-1.99-4.07-.33-8.51.4-12.49,0-.87-.09-3.33-.65-4-1-1.06-.56-2.39-1.91-2-3,.05-.15,1.8-.29,2.03-2.53.15-1.52-1.04-2.99-1.03-3.47.08-2.53,6.84-14.15,7-21,9.5-4.56,17.02-5.39,26.99-1.49,8.27,3.24,8.85,4.96,8,13.98-.64,6.81-6.22,19.66-13.99,20.51Z" fill="#71478f"/>
      <path d="M96.21,146.61v2c-6.99-1.13-16.12,2.75-24,2l1-6c3.98.41,8.43-.32,12.49,0,3.46.28,7.1,2.36,10.51,1.99Z" fill="#865aa7"/>
      <path d="M42.21,135.61c7.74-7.28,5.09,7.7,10.49,5.99,4.23-2.9-.94-7.02-.4-9.29.93-3.88,8.2-3.97,6.77,1.59-.54,2.12-4.43,2.35-1.75,6.07,4.6,6.39,4.76-9.89,10.88-5.36-.02.47,1.18,1.94,1.03,3.47-.23,2.25-1.97,2.38-2.03,2.53-4.92-1.03-4.96,1.99-5,5.99l7-2.99c.67.35,3.13.91,4,1l-1,6c-4.01-.38-6.08-2.37-10-1.99-1.12,6.51,5.04,4.08,6.54,7,1.31,2.55-.55,3.97-.54,5-7.58,2.43-4.52-5.77-7.6-6.92-2.83-1.06-4.92.9-4.4,3.92-.31-.09-1.83-.09-2,0,.55-4.52-3.53-5.47-5.44-1.94-1.45,2.66-.01,6.58-5.61,4.5-4.94-6.57,7.55-5.03,6.05-10.04-1.41-4.7-14.87,6.82-9.99-6.51,5.81.45,4.69,2.92,5.57,3.07,1.46.26,4.13-1.34,4.36-2.7.56-3.3-5.5-3.06-6.5-4.34-.91-1.17-.13-3.25-.43-4.04Z" fill="#d8b07a"/>
      <path d="M56.21,157.61c3.92,1.15,3.65,7.5-1.48,7.07-4.07-.34-2.44-6.11-.52-7.07.17-.09,1.69-.09,2,0Z" fill="#c79c62"/>
      <path d="M67.21,140.61c-.39,1.09.94,2.44,2,3l-7,2.99c.03-4,.08-7.02,5-5.99Z" fill="#865aa7"/>
    </g>
  </g>
</svg>