<?xml version="1.0" encoding="UTF-8"?>
<svg id="_レイヤー_2" data-name="レイヤー 2" xmlns="http://www.w3.org/2000/svg" viewBox="0 0 125.59 165.61">
  <g id="snap_pea" data-name="snap pea">
    <g>
      <path d="M81.32,19.98c1.23,4.69,2.97,2.24,5,3s4.67,7.68,5.02,8.01c.29.27,1.51-.94,1.98-1.01,1.25-.18,4.75-1.01,5-1,5.79.22,13.8,7.95,18.05,11.46,1.75,1.45,6.64,1.47,2.96,5.05-1.23,1.2-3.36,1.36-5.01,1.49-3.61.28-6.81-.31-9.99-2-.13,13.71-6.59,14.16-11.5,2l-6.53,7.55,1.02,16.44c-.22,1.07-.24,6,0,7-2.3,1.42-1.76,3.79-2,6-13.89,29.24-42.75,69.24-80.05,48.55-11.44-6.35-1.41-10.63,3.58-15.52,24.01-23.54,41.17-48.5,54.46-79.54.15-.46-8.71-2.06-7.99-4.98,5.4-1.78,10.34-7.05,15.27-8.74,3.64-1.24,8.59-.2,10.72-3.78ZM77.06,50.26c-1.48-1.75-9.68-1.61-12.03-1.07-3.78.86-8.06,6.6-8.64,10.35-3.53,22.82,32.34,23.21,26.71-1.84-.94-4.18-3.62-2.94-5.24-4.8-.53-.61-.34-2.1-.8-2.64ZM53.08,77.21c-19.63,1.11-18.3,32.58,3.51,28.53,16.39-3.04,12.52-29.43-3.51-28.53ZM29.04,104.21c-3.65.76-7.81,4.5-8.96,8.04-6.62,20.33,19.12,27.05,25.73,11.73,4.9-11.36-4.34-22.35-16.77-19.77Z" fill="#6d9442"/>
      <path d="M114.32,46.98c14.59,26.79,15.28,69.18.52,96.02-8.43,15.34-26.07,25.36-43.99,21.95-7.74-1.47,1.11-15.39,2.74-20.2,7.43-21.88,9.3-38.06,11.73-60.77.24-2.21-.3-4.58,2-6,.37,1.53,5.43,7.4,7.05,8.45,12.86,8.36,28.29-7.84,18.96-20.96-7.09-9.96-23.72-5.65-26,5.5l-1.02-16.44,6.53-7.55c4.92,12.16,11.37,11.71,11.5-2,3.18,1.69,6.38,2.28,9.99,2ZM98.07,93.19c-17.67,2.92-14.19,30.85,4.64,28.73s14.02-31.81-4.64-28.73ZM91.08,126.19c-17.12,2.47-13.88,30.12,4.51,28.56,17.3-1.47,15.38-31.44-4.51-28.56Z" fill="#84a64b"/>
      <path d="M98.32,28.98c-.25,0-3.75.82-5,1-2.78-5.96.19-12.09.99-18-3.82,2.58-7.14,6.32-7.99,11-2.03-.76-3.77,1.69-5-3C87.5,9.61,90.96,2.3,105.08.24c2.76-.4,13.01-1.01,8.82,4.81-1.31,1.82-9.81-.78-13.76,8.24-2.2,5.01-1.9,10.34-1.82,15.68ZM93.82,26.98v1c.65-.33.65-.67,0-1Z" fill="#84a64b"/>
      <path d="M87.32,77.98c-.24-1-.22-5.93,0-7,2.28-11.15,18.92-15.47,26-5.5,9.34,13.12-6.1,29.32-18.96,20.96-1.62-1.05-6.68-6.92-7.05-8.45Z" fill="#98b457"/>
      <path d="M53.08,77.21c16.03-.9,19.9,25.49,3.51,28.53-21.81,4.05-23.14-27.42-3.51-28.53Z" fill="#98b457"/>
      <path d="M29.04,104.21c12.43-2.58,21.67,8.41,16.77,19.77-6.61,15.32-32.34,8.6-25.73-11.73,1.15-3.54,5.31-7.28,8.96-8.04Z" fill="#98b457"/>
      <path d="M77.06,50.26c.46.54.26,2.03.8,2.64,1.62,1.86,4.31.62,5.24,4.8,5.63,25.05-30.25,24.67-26.71,1.84.58-3.75,4.86-9.49,8.64-10.35,2.35-.53,10.55-.67,12.03,1.07Z" fill="#98b457"/>
      <path d="M98.07,93.19c18.66-3.09,22.97,26.66,4.64,28.73s-22.31-25.8-4.64-28.73Z" fill="#98b457"/>
      <path d="M91.08,126.19c19.89-2.87,21.81,27.1,4.51,28.56-18.39,1.56-21.63-26.09-4.51-28.56Z" fill="#98b457"/>
      <path d="M93.82,26.98c.65.33.65.67,0,1v-1Z" fill="#6d9442"/>
    </g>
  </g>
</svg>