<?xml version="1.0" encoding="UTF-8"?>
<svg id="_レイヤー_2" data-name="レイヤー 2" xmlns="http://www.w3.org/2000/svg" viewBox="0 0 208.13 211.01">
  <g id="syungiku">
    <g>
      <path d="M66.01,67.16c-.76-2.79-3.31-3.9-4.48-7.02-2.58-6.87-2.3-12.54,6.49-11.99-3.23-8.11,2.55-28.96,11.83-15.33,1.08,1.59,8.63,19.97,12.16,16.33-.92-10.51-9.16-19.88-7.6-31.01,1.47-10.5,7.65-3.29,8.59-3.98.66-.49,3.89-11.11,9.04-13.49,9.37-4.33,13.38,13.87,16.29,13.37.99-.17,2.06-2.38,4.06-1.82,3.86,1.07,2.91,13.17,1.57,16.39-.07,2.96-8.3,18.09-7.93,19.05.59,1.54,1.7,1.4,3.08,1.12,4.32-.88,9.33-18.85,14.46-19.64,5.53-.85,5.28,4.65,6.54,8.26.29.84,1.85.75,1.88,1.37.07,1.28-1.3,9.06-.97,9.39,1.46,1.49,8.95-2.44,7.96,7.38-.46,4.63-2.34,5.82-4.96,8.62-6.83,7.32-10.43,4.35-16.95,8.55-3.01,1.94-11.24,10.67-3.54,10.55,6.8-.11,15.46-12.91,20.5-14.09.29-.07.66.03,1,0l1.49.99.51-.99h2c-.22,1.72,1.82,3.53,1.89,5.46.11,3.24-3.56,9.87-2.96,12.86.25,1.22,4.45,1.11,4.1,5.11-.11,1.3-5.34,8.29-6.03,8.57-.58.24-2.6,0-4.05.45-.96.3-1.81,1.53-1.95,1.55-4.26.74-7.9-.85-12.7,1.35-.45.21-.23,1.61-.3,1.65-.97.51-5.14-.87-4.99,2.48,1.46,2.15,3.77,1.42,5.99,1.52,5.6.24,9.61-2.02,14-2,1.17,0,2.73.86,4,1-.45,5.42-1.47,8.07-5.5,12-1.44,1.4-5.39,2.9-6.04,4.02-1.1,1.88,2.15,3-3.54,7.4-5.62,4.34-13.34,4.71-19.91,2.59-1.32-.43-2.78-2.62-5-2-.34-17.3-.66-34.82-1-52-.05-2.32,0-6.02,0-8.5v-27.5l-1.91,16.61c.27,6.29.83,13.3.91,19.39.22,17.09-.72,34.8-1,52-2.83-1.12-6.44,2.83-7,3-4.87,1.45-21.22-1.23-21.97-7.54-.13-1.1.87-2.57.46-3.53-1.14-2.65-13.96-7.92-10.06-15,1.01-1.43,6.24-1.06,8.12-.97,2.44.11,15.44,3.13,14.44-1.43-4.27-6.27-11.94-3.7-17.99-4.53-.42-.06-5.73-1.83-6-2s-3.63-4.18-3.87-4.62c-3.46-6.55,1.56-6.74,1.89-9.9s-3.43-7.81-3.01-11.89c.36-3.48,2.57-3.63,3.99-5.59,1.63.19,3.37-.17,5,0,.31.35.67.67,1,1s.69.65,1,1,.68.66,1,1c3.09,3.33,11.07,10.72,15.59,11,8.51.53-1.97-9.6-5.69-11.4-2.31-1.12-11.46-4.16-13.9-4.6Z" fill="#556d2e"/>
      <path d="M74.01,158.16c-2.62,6.38-13.92,12.38-20.5,11.04-3.29-.67-1.95-3.26-2.63-3.9-.37-.35-7.17-.22-10.17-1.35-15.69-5.91,6.59-11.37,9.63-14.74,3.35-3.71-2.27-3.47-5.37-2.58-6.26,1.8-8.52,7.82-17.23,6.3-10.68-1.86-4.2-8.84-4.79-9.69-.28-.4-5.93-2.82-7.95-5.57-9.48-12.97,20.22-6.42,24.41-9.44,2.37-5.39-6.16-5.43-9.92-5.07-4.48.44-8.58,4.02-11.87,3.94-3.55-.08-10.06-2.94-12.08-5.98-4.17-6.29,1.77-7.2,1.38-9.32-.31-1.71-6.47-6.7-6.9-12.27-1.04-13.47,21.8,4.8,24.97,1.62.4-.4.1-2.22-.66-3.04-5-5.48-19.59-8.55-21.92-17.95-1.37-5.53,3.87-4.3,4.56-5.04,1.23-1.32-7.13-19.88,8.44-17.87,2.8.36,6.49,2.96,8.14,2.93,2.62-.05,2.36-4.06,4.92-4.05,9.29.03,11.13,26.75,14.04,28.04.37.16,2.52.36,2.5-.5,1.05-8.7-7.14-34.91,11.04-19.04,2.75,2.4.97,3.96,5.95,4.55-1.42,1.96-3.63,2.11-3.99,5.59-.42,4.08,3.36,8.63,3.01,11.89s-5.36,3.35-1.89,9.9c.24.45,3.62,4.46,3.87,4.62-1.53,7.7,6.02,10.86,6,2,6.05.83,13.72-1.75,17.99,4.53,1,4.56-12,1.54-14.44,1.43-1.88-.08-7.11-.45-8.12.97-3.9,7.08,8.93,12.35,10.06,15,.41.95-.59,2.43-.46,3.53.75,6.31,17.09,8.99,21.97,7.54,2.72,9.45-9.6,18.15-18,19-9.65-17.34-21.73-33.73-33-50-.97-1.39-1.25-4.15-3.49-4.01-2.11,1.73,1.92,3.16,2.49,4.01,11.53,17.19,20.95,34.91,30,53ZM36.5,94.18c-.99.7.54,1.37,1.02,1.96.99-.66-.47-1.32-1.02-1.96ZM38.5,97.18l-.47.47,2.49,2.49.47-.47-2.49-2.49Z" fill="#749435"/>
      <path d="M149.01,69.16c.48-3.77,10.29-11.27,14.86-8.86,2.92,1.85-2.04,19.19-.87,23.27-.08.96,2.02.76,2.52.6,2.81-.9,5.14-28.15,14.97-27.05,2.22.25,3,2.99,5,3.02,3.52.06,11.58-6.78,15.34-.3,3.09,5.33-.6,12.15.26,14.67.62,1.84,3.71,1.5,4.52,2.58,2.19,2.94-4.79,10.15-7.11,12.03-2.09,1.7-17.64,8.78-14.47,12.02,2.75,2.81,26.34-16.27,23.94.43-.58,4-5.97,9.08-5.97,11.1,0,2.71,7.44,5.22-1.64,11.32-12,8.06-16.53-3.2-27.62-.61-2.34.55-5.15,2.49-3.13,4.84,4.25,3.06,31.36-3.27,25.28,8.29-2.14,4.06-8.44,6.22-8.81,6.72-1.07,1.44,4.34,6.9-3.22,9.25-11.62,3.61-15.17-7.29-25.83-6.32-.16,6.47,21.56,9.44,14.54,16.04-4.43,4.17-10.1,1.83-13.94,2.88-1.16.32-.2,3.22-2.22,3.95-7.13,2.56-18.61-3.85-21.39-10.88,1.74-3.4,3.17-9.1,5.83-12.67l26.17-42.32-5.31,5.24c-9.54,15.38-21.61,31.06-30.69,45.76-9.92.27-19.27-9.06-19-19,6.57,2.12,14.29,1.75,19.91-2.59,5.69-4.4,2.45-5.52,3.54-7.4.65-1.12,4.61-2.62,6.04-4.02,4.03-3.92,5.05-6.57,5.5-12,.22-2.63-.15-5.36,0-8,.69-.28,5.91-7.27,6.03-8.57.35-4-3.85-3.89-4.1-5.11-.61-2.99,3.07-9.61,2.96-12.86-.07-1.93-2.11-3.74-1.89-5.46ZM175.51,89.16v1c.65-.33.65-.67,0-1ZM174.51,91.16v1c.65-.33.65-.67,0-1ZM172.51,93.16v1c.65-.33.65-.67,0-1ZM167.01,101.16c-.04.1-2.06.45,0,1l4.98-6.51c-2.82.35-4.07,3.29-4.98,5.51Z" fill="#749435"/>
      <path d="M130.01,154.16c9.08-14.7,21.15-30.38,30.69-45.76l5.31-5.24-26.17,42.32c-2.66,3.57-4.08,9.28-5.83,12.67-.13.26-1.56.99-2.2,2.26-7.51,14.96-14.37,30.55-17.77,47.04l-5.03.7c.16-.66.06-2.18,0-3,4.23-16.33,12.13-32.57,20.22-47.33.69-1.27.56-3.32.78-3.67Z" fill="#b0ca7f"/>
      <path d="M45.01,105.16c11.27,16.27,23.35,32.66,33,50,6.12,11,14.02,26.68,18.02,38.48.98,2.89,5.48,13.8,1.47,15.51-.86.37-2.76.48-2.74-1.24-3.71-17.23-10.76-33.48-18.74-49.06-.47-.92-1.96-.6-2.01-.69-9.05-18.09-18.47-35.81-30-53h1Z" fill="#b0ca7f"/>
      <path d="M107.01,163.16c.34,14.26,1.03,28.08,2,42,.06.82.16,2.34,0,3-.76,3.09-6.97,4.66-7.97-.53.78-15.15.66-30.31.97-45.47l5,1Z" fill="#c5d69a"/>
      <path d="M106.01,133.16c.19,9.93.76,19.99,1,30l-5-1c.2-9.69.84-19.29,1-29,.28-17.2,1.22-34.91,1-52h1c.34,17.18.66,34.7,1,52Z" fill="#b0ca7f"/>
      <path d="M147.01,69.16l-.51.99-1.49-.99c.65-.06,1.34,0,2,0Z" fill="#749435"/>
      <path d="M140.01,103.16l2,5c-4.39-.02-8.4,2.24-14,2l-1-4c.07-.04-.15-1.45.3-1.65,4.79-2.19,8.44-.61,12.7-1.35Z" fill="#627e30"/>
      <path d="M105.01,81.16h-1c-.08-6.09-.63-13.1-.91-19.39l1.91-16.61v27.5c0,2.48-.05,6.18,0,8.5Z" fill="#89ac47"/>
      <path d="M127.01,106.16l1,4c-2.22-.09-4.54.64-5.99-1.52-.15-3.36,4.03-1.97,4.99-2.48Z" fill="#89ac47"/>
      <path d="M68.01,70.16c-.33-.33-.69-.65-1-1,.46.05.9.53,1,1Z" fill="#749435"/>
      <path d="M70.01,72.16c-.32-.34-.69-.65-1-1l1,1Z" fill="#749435"/>
      <path d="M45.01,105.16h-1c-.57-.85-4.6-2.28-2.49-4.01,2.24-.14,2.52,2.62,3.49,4.01Z" fill="#94ba52"/>
      <rect x="39.18" y="96.9" width=".66" height="3.52" transform="translate(-58.19 56.83) rotate(-45)" fill="#94ba52"/>
      <path d="M36.5,94.18c.55.64,2.01,1.3,1.02,1.96-.48-.59-2.01-1.26-1.02-1.96Z" fill="#94ba52"/>
      <path d="M167.01,102.16v-1c.91-2.22,2.16-5.16,4.98-5.51l-4.98,6.51Z" fill="#89ac47"/>
      <path d="M175.51,89.16c.65.33.65.67,0,1v-1Z" fill="#89ac47"/>
      <path d="M167.01,102.16c-2.06-.55-.04-.9,0-1v1Z" fill="#b0ca7f"/>
      <path d="M172.51,93.16c.65.33.65.67,0,1v-1Z" fill="#89ac47"/>
      <path d="M174.51,91.16c.65.33.65.67,0,1v-1Z" fill="#89ac47"/>
    </g>
  </g>
</svg>