<?xml version="1.0" encoding="UTF-8"?>
<svg id="_レイヤー_2" data-name="レイヤー 2" xmlns="http://www.w3.org/2000/svg" viewBox="0 0 143.27 164.04">
  <g id="_レイヤー_31" data-name="レイヤー 31">
    <g>
      <path d="M108.97,16.95c2.57-.37,9.26.67,11.03,2.47s.42,7.36,3.65,8.4c3.69,1.19,7.28-2.75,10.28-1.4,1.27.57,6.77,7.36,7.04,8.53,4.18,18.03-17.46,50.99-27.59,65.91-19.87,29.27-57.71,79.28-97.41,58.09,2.53-5.63-6.34-14.97-12-12-10.98-24.13,2.16-44.74,23.08-57.42,22.56-13.68,38.38-17.78,55.89-40.11,5.86-7.47,17.48-31.24,26.03-32.47ZM9.12,129.79c.34.56,3.41,1.72,4.37.19.78-1.24.52-4.06,1.16-5.84.81-2.22,5.97-10.9,1.8-12.18-4.47-1.37-9.29,14.68-7.34,17.83Z" fill="#45673d"/>
      <path d="M108.97,16.95c1.5-7.76,12.99-4.57,17.01-6.49,4.91-2.35-2.53-13.41,8.71-9.71,9.93,3.27.84,13.46,1.44,16.56.36,1.85,11.95,12.98,4.85,17.64-.27-1.18-5.77-7.97-7.04-8.53-3.01-1.35-6.59,2.59-10.28,1.4-3.23-1.04-1.86-6.58-3.65-8.4s-8.46-2.84-11.03-2.47Z" fill="#6d9442"/>
      <path d="M15.97,158.95c-5.74-3.06-7.68-2.45-11.44-9.1-.59-1.05-.31-2.34-.56-2.9,5.66-2.97,14.53,6.37,12,12Z" fill="#84a64b"/>
      <path d="M9.12,129.79c-1.96-3.15,2.86-19.2,7.34-17.83,4.16,1.28-.99,9.96-1.8,12.18-.64,1.78-.39,4.6-1.16,5.84-.96,1.53-4.02.37-4.37-.19Z" fill="#6d9442"/>
    </g>
  </g>
</svg>